<svg id="Layer_1" data-name="Layer 1" xmlns="http://www.w3.org/2000/svg" viewBox="0 0 64.74 55.1"><defs><style>.cls-1{fill:#ffa8ba;}.cls-2{fill:none;stroke:#726d68;stroke-linecap:round;stroke-linejoin:round;stroke-width:1.3px;}.cls-3{fill:#dd817f;}.cls-4{fill:#c76963;}.cls-5{fill:#7cb1bd;}.cls-6{fill:#cff0ef;}.cls-7{fill:#e4ebef;}.cls-8{fill:#a7d2d7;}.cls-9{fill:#c7e2e5;}.cls-10{fill:#ffffc4;}</style></defs><title>astronomy icon</title><g id="picture_phy" data-name="picture phy"><g id="Group_418" data-name="Group 418"><circle id="Ellipse_151" data-name="Ellipse 151" class="cls-1" cx="32.02" cy="27.56" r="27.53"/></g><g id="Group_422" data-name="Group 422"><line id="Line_62" data-name="Line 62" class="cls-2" x1="47.97" y1="21.94" x2="44.62" y2="20.42"/></g></g><path class="cls-3" d="M45,32.11l-2.74-.87-.11,0a.43.43,0,0,1-.12-.11,9.33,9.33,0,0,1,.84-.55l2.39.76a.43.43,0,0,1,.07.79A.39.39,0,0,1,45,32.11Z"/><path class="cls-4" d="M56,44.18a9.9,9.9,0,1,1-2.9-13.69A9.9,9.9,0,0,1,56,44.18Z"/><path class="cls-3" d="M53.08,38.52l-14-4.44L39,34c.12-.22.25-.44.39-.65l.16-.25,13.82,4.39a.53.53,0,0,1,.39.39.51.51,0,0,1-.7.6Z"/><path class="cls-3" d="M57.11,35.71a.53.53,0,0,1-.33,0L48,32.92l-.13-.07a.51.51,0,0,1-.18-.65.52.52,0,0,1,.62-.28l8.4,2.67h0A9.63,9.63,0,0,1,57.11,35.71Z"/><path class="cls-3" d="M57.53,39.92a.2.2,0,0,1-.11,0l-2.34-.74A.31.31,0,0,1,55,39.1a.52.52,0,0,1,.44-.93l2.21.7C57.59,39.22,57.57,39.58,57.53,39.92Z"/><path class="cls-3" d="M56.37,43.54l-12.7-4a.31.31,0,0,1-.13-.06.52.52,0,0,1,.44-.94l12.79,4.07.06,0A8.17,8.17,0,0,1,56.37,43.54Z"/><path class="cls-5" d="M38,40.63l-.36-.23c-3.32-2.2-4.81-4.39-4.24-6.18s3.35-2.46,7.24-2.35a10.76,10.76,0,0,0-.87,1c-2.87,0-5,.5-5.38,1.64s.9,3,3.45,4.73A12,12,0,0,0,38,40.63Z"/><path class="cls-5" d="M55.05,45.91h-.47a9.75,9.75,0,0,0,.91-1c3.08,0,5.15-.64,5.55-1.86s-1.21-3-3.46-4.68a9.38,9.38,0,0,0-.16-1.4c3.12,2.14,5.16,4.67,4.61,6.4S59,46,55.05,45.91Z"/><path class="cls-5" d="M55.49,44.88a9.75,9.75,0,0,1-.91,1A35.16,35.16,0,0,1,46,44.24a34.55,34.55,0,0,1-8-3.61,12,12,0,0,1-.16-1.36l.35.24a32.57,32.57,0,0,0,8.1,3.74A33.8,33.8,0,0,0,55,44.87h.48Z"/><path class="cls-5" d="M25.16,24.51h2.4v3.92h-2.4Z"/><path class="cls-5" d="M37.06,49l-9.67-16.2-1,.62-1-.65L14.9,48.92l2,1.3,8.25-12.75v12h2.4V37.76L35,50.22Z"/><path class="cls-6" d="M26.36,34.61a3.69,3.69,0,1,1,3.69-3.69A3.7,3.7,0,0,1,26.36,34.61Zm0-5a1.29,1.29,0,1,0,1.29,1.29A1.29,1.29,0,0,0,26.36,29.63Z"/><path class="cls-7" d="M13.13,48.4h5.55v2.4H13.13Z"/><path class="cls-7" d="M33.26,48.4H38.8v2.4H33.26Z"/><path class="cls-7" d="M23.59,48.4h5.54v2.4H23.59Z"/><path class="cls-8" d="M6.54,20.3,14,19l1,6-7.5,1.28Z"/><path class="cls-9" d="M11.71,17.62,23,15.7l1.6,9.4L13.31,27Z"/><path class="cls-7" d="M20.42,14.91l14-2.39,2,11.78-14,2.39Z"/><path class="cls-8" d="M31.86,11.65l8.44-1.44,2.44,14.33L34.3,26Z"/><path class="cls-6" d="M5.8,18.92l2.37-.4,1.55,9.09L7.35,28Z"/><line id="Line_62-2" data-name="Line 62" class="cls-2" x1="48.97" y1="16.35" x2="45.12" y2="16.61"/><line id="Line_62-3" data-name="Line 62" class="cls-2" x1="47.34" y1="11.05" x2="43.62" y2="12.6"/><path class="cls-10" d="M17,8.31l.76,1.54a1.26,1.26,0,0,0,.94.68l1.69.24L19.2,12a1.23,1.23,0,0,0-.36,1.1l.29,1.69L17.61,14a1.25,1.25,0,0,0-1.16,0l-1.51.8.29-1.69a1.26,1.26,0,0,0-.36-1.1l-1.23-1.2,1.7-.24a1.29,1.29,0,0,0,.94-.68Z"/><path class="cls-10" d="M46,27.39,46.08,29a1.15,1.15,0,0,0,.57.91l1.36.79-1.46.6a1.13,1.13,0,0,0-.68.82l-.34,1.54-1-1.2a1.13,1.13,0,0,0-1-.4L42,32.18l.82-1.34a1.16,1.16,0,0,0,.08-1.07l-.64-1.44,1.53.37a1.16,1.16,0,0,0,1-.26Z"/><path class="cls-10" d="M23.59,1.93,24.11,3a.86.86,0,0,0,.65.47l1.16.17-.84.82a.84.84,0,0,0-.25.76L25,6.37l-1-.55a.87.87,0,0,0-.8,0l-1,.55.19-1.16a.86.86,0,0,0-.24-.76l-.85-.82,1.17-.17A.88.88,0,0,0,23.07,3Z"/><path class="cls-10" d="M18.06,29.49l.39.77a.63.63,0,0,0,.47.35l.86.12-.62.61a.61.61,0,0,0-.18.56l.15.85-.77-.4a.62.62,0,0,0-.59,0l-.77.4.15-.85a.63.63,0,0,0-.18-.56l-.62-.61.85-.12a.63.63,0,0,0,.48-.35Z"/></svg>