<svg id="icon_3" data-name="icon 3" xmlns="http://www.w3.org/2000/svg" width="135.727" height="135.727" viewBox="0 0 135.727 135.727">
  <ellipse id="Ellipse_190" data-name="Ellipse 190" cx="67.864" cy="67.864" rx="67.864" ry="67.864" fill="#e5eeed"/>
  <g id="Group_505" data-name="Group 505" transform="translate(7.489 9.817)">
    <g id="Group_504" data-name="Group 504" transform="translate(25.261)">
      <rect id="Rectangle_386" data-name="Rectangle 386" width="8.915" height="27.588" transform="translate(31.37 67.322)" fill="#ffcd72"/>
      <rect id="Rectangle_387" data-name="Rectangle 387" width="17.157" height="9.083" transform="translate(27.249 77.697)" fill="#f2ad4c"/>
      <path id="Path_514" data-name="Path 514" d="M366.8,847.892h-48.37a2.138,2.138,0,0,1-2.111-2.484l2.832-17.294a2.139,2.139,0,0,1,2.111-1.793h43.01a2.14,2.14,0,0,1,2.117,1.829l2.527,17.294A2.139,2.139,0,0,1,366.8,847.892Z" transform="translate(-306.347 -741.138)" fill="#f0a34b"/>
      <path id="Rectangle_388" data-name="Rectangle 388" d="M0,0H62.571a0,0,0,0,1,0,0V40.053A26.218,26.218,0,0,1,36.353,66.271H26.218A26.218,26.218,0,0,1,0,40.053V0A0,0,0,0,1,0,0Z" transform="translate(4.541 3.028)" fill="#ffcd72"/>
      <rect id="Rectangle_389" data-name="Rectangle 389" width="71.654" height="7.737" rx="1.259" fill="#f0a34b"/>
    </g>
    <path id="Path_515" data-name="Path 515" d="M321.316,800.166a40.852,40.852,0,0,0-3.172-2.8c-1.909-1.433-3.871-2.783-5.88-4.077a69.667,69.667,0,0,1-9.165-6.859,13.57,13.57,0,0,1-3.766-5.277,9.931,9.931,0,0,1,6.728-13.078c2.891-.7,5.518.118,8.149,1.284a2.407,2.407,0,0,1,.714.467l3.3,1.4c-.909-3.661.272-5.02.252-5.046-2.019-2.607-8.725-3.377-11.173-3.291a13.475,13.475,0,0,0-6.907,2.282,17.571,17.571,0,0,0-2.91,2.468c-.2-.907-.326-1.724-.581-2.5-.265-.8-.5-2.052-1.231-2.1-.79-.054-1.348,1.031-1.718,1.869a10.677,10.677,0,0,0-.808,5.7,2.333,2.333,0,0,1,0,1.157c-.925-.72-1.813-1.447-2.737-2.123-1.074-.785-1.642-.55-1.832.784a10.825,10.825,0,0,0,.746,5.786c.458,1.1,1.115,2.087,1.7,3.281a16.915,16.915,0,0,0-3.618-.307c-.464-.014-.636.141-.612.611a9.924,9.924,0,0,0,1.039,3.926,19.457,19.457,0,0,0,6.081,6.8c.334.253,4.291,2.656,4.7,2.867a62.049,62.049,0,0,0,8.646,3.628c3.61,1.122,9.257,5.007,11.235,7.555a7.2,7.2,0,0,1,1.7,6.172,2.185,2.185,0,0,1-1.8,1.772,2.514,2.514,0,0,1-2.375-1.008c-.353-.449-.224-.64.357-.69a2.368,2.368,0,0,0,2.11-2.222c.144-1.931-1.62-3.027-3.459-2.838-3,.312-4.773,3.936-4.1,6.5a6.987,6.987,0,0,0,4.539,4.785,7.165,7.165,0,0,0,9.212-3.933,10.625,10.625,0,0,0,.724-4.193l.068.11S321.382,800.011,321.316,800.166Z" transform="translate(-286.788 -753.398)" fill="#ffcd72"/>
    <path id="Path_516" data-name="Path 516" d="M359.715,800.166a40.82,40.82,0,0,1,3.17-2.8c1.909-1.433,3.872-2.783,5.88-4.077a69.678,69.678,0,0,0,9.167-6.859,13.594,13.594,0,0,0,3.766-5.277,9.932,9.932,0,0,0-6.728-13.078c-2.891-.7-5.518.118-8.15,1.284a2.4,2.4,0,0,0-.712.467l-3.3,1.4c.909-3.661-.273-5.02-.253-5.046,2.019-2.607,8.725-3.377,11.173-3.291a13.475,13.475,0,0,1,6.907,2.282,17.522,17.522,0,0,1,2.91,2.468c.205-.907.326-1.724.581-2.5.265-.8.5-2.052,1.232-2.1.79-.054,1.348,1.031,1.718,1.869a10.666,10.666,0,0,1,.808,5.7,2.347,2.347,0,0,0,.006,1.157c.924-.72,1.811-1.447,2.737-2.123,1.073-.785,1.642-.55,1.83.784a10.813,10.813,0,0,1-.746,5.786c-.457,1.1-1.115,2.087-1.7,3.281a16.9,16.9,0,0,1,3.617-.307c.465-.014.636.141.612.611a9.922,9.922,0,0,1-1.038,3.926,19.48,19.48,0,0,1-6.081,6.8c-.334.253-4.292,2.656-4.7,2.867a61.93,61.93,0,0,1-8.646,3.628c-3.608,1.122-9.257,5.007-11.235,7.555a7.2,7.2,0,0,0-1.7,6.172,2.185,2.185,0,0,0,1.8,1.772,2.514,2.514,0,0,0,2.375-1.008c.353-.449.223-.64-.357-.69a2.368,2.368,0,0,1-2.111-2.222c-.144-1.931,1.62-3.027,3.459-2.838,3.006.312,4.774,3.936,4.1,6.5a6.992,6.992,0,0,1-4.54,4.785,7.165,7.165,0,0,1-9.212-3.933,10.647,10.647,0,0,1-.724-4.193l-.067.11S359.648,800.011,359.715,800.166Z" transform="translate(-273.494 -753.398)" fill="#ffcd72"/>
    <ellipse id="Ellipse_191" data-name="Ellipse 191" cx="19.852" cy="19.852" rx="19.852" ry="19.852" transform="translate(41.236 13.574)" fill="#f0a34b" opacity="0.27"/>
    <ellipse id="Ellipse_192" data-name="Ellipse 192" cx="15.131" cy="15.131" rx="15.131" ry="15.131" transform="translate(45.957 18.296)" fill="#ffcd72"/>
  </g>
</svg>
