<svg id="picture_girl_" data-name="picture girl " xmlns="http://www.w3.org/2000/svg" width="66.273" height="58.106" viewBox="0 0 66.273 58.106">
  <g id="Group_356" data-name="Group 356" transform="translate(0 0)">
    <g id="Group_335" data-name="Group 335" transform="translate(4.875)">
      <circle id="Ellipse_103" data-name="Ellipse 103" cx="27.531" cy="27.531" r="27.531" fill="#cff0ef"/>
    </g>
    <g id="Group_336" data-name="Group 336" transform="translate(22.586 1.359)">
      <rect id="Rectangle_305" data-name="Rectangle 305" width="3.831" height="2.917" transform="translate(16.85 3.035) rotate(108.176)" fill="#aeaeb0"/>
      <rect id="Rectangle_306" data-name="Rectangle 306" width="2.598" height="3.325" transform="translate(13.905 2.653) rotate(108.176)" fill="#55585b"/>
      <path id="Path_300" data-name="Path 300" d="M507.822-245.367l1.077-3.28a1.242,1.242,0,0,0-.822-1.577c-2.056-.617-6.289-1.338-8.926,2.01l-.077.861s2.126-2.315,4.4-.976c0,0,.644,1.1.985,1.859Z" transform="translate(-497.104 250.747)" fill="#aeaeb0"/>
      <path id="Path_301" data-name="Path 301" d="M496.646-219.6h0a1.749,1.749,0,0,0,2.193-1.072c.85-2.375,2.473-6.961,3.718-10.788a55.357,55.357,0,0,0,1.627-5.645s.458-3.54,1.906-4.656l-3.274-1.075a10.929,10.929,0,0,1-1.3,4.791s-1.341,3.185-2.733,6.822c-.874,2.284-1.769,4.748-2.365,6.712l-.888,2.7A1.75,1.75,0,0,0,496.646-219.6Z" transform="translate(-495.442 247.128)" fill="#87bfd3"/>
    </g>
    <g id="Group_337" data-name="Group 337" transform="translate(26.185 3.585)">
      <rect id="Rectangle_307" data-name="Rectangle 307" width="0.892" height="12.731" transform="matrix(0.847, 0.531, -0.531, 0.847, 15.102, 3.043)" fill="#aeaeb0"/>
      <rect id="Rectangle_308" data-name="Rectangle 308" width="5.112" height="1.074" rx="0.411" transform="matrix(0.847, 0.531, -0.531, 0.847, 8.288, 9.937)" fill="#c76963"/>
      <rect id="Rectangle_309" data-name="Rectangle 309" width="3.315" height="10.02" transform="matrix(0.847, 0.531, -0.531, 0.847, 8.536, 11.233)" fill="#c76963"/>
      <path id="Rectangle_310" data-name="Rectangle 310" d="M.83,0H4.283a.83.83,0,0,1,.83.83v9.5a1.956,1.956,0,0,1-1.956,1.956h-1.2A1.956,1.956,0,0,1,0,10.333V.83A.83.83,0,0,1,.83,0Z" transform="matrix(0.847, 0.531, -0.531, 0.847, 6.528, 12.744)" fill="#c76963"/>
      <path id="Path_302" data-name="Path 302" d="M532.541-246.169l-.756-.474-1.96,1.957.052,1.086.756.474,1-.426Z" transform="translate(-514.776 246.643)" fill="#aeaeb0"/>
    </g>
    <g id="Group_338" data-name="Group 338" transform="translate(0 1.735)">
      <path id="Path_303" data-name="Path 303" d="M482.8-173.063v-14.473H480.63v12.91Z" transform="translate(-466.077 221.443)" fill="#9dba76"/>
      <path id="Path_304" data-name="Path 304" d="M460.237-207h24.3v-27.391l-12.206-5.956-12.09,5.956Z" transform="translate(-456.745 245.612)" fill="#86ab6a"/>
      <circle id="Ellipse_104" data-name="Ellipse 104" cx="4.123" cy="4.123" r="4.123" transform="translate(11.459 13.075)" fill="#5d5d5d"/>
      <path id="Path_305" data-name="Path 305" d="M467.026-247.8l2.56-2.253,2.56,2.253,13.227,11.643-2.235,2.539L469.38-244.475l-13.347,10.856-2.235-2.539Z" transform="translate(-453.798 250.054)" fill="#9dba76"/>
    </g>
    <path id="Path_306" data-name="Path 306" d="M489.216-175.449l-2.878,1.661v3.323l2.878,1.661,2.878-1.661v-3.323Zm0,1.741a1.582,1.582,0,0,1,1.582,1.582,1.582,1.582,0,0,1-1.582,1.582,1.582,1.582,0,0,1-1.582-1.582A1.581,1.581,0,0,1,489.216-173.708Z" transform="translate(-468.69 217.647)" fill="#777479"/>
    <g id="Group_339" data-name="Group 339" transform="translate(40.135 10.918)">
      <circle id="Ellipse_105" data-name="Ellipse 105" cx="2.747" cy="2.747" r="2.747" fill="#aeaeb0"/>
      <path id="Path_307" data-name="Path 307" d="M532.584-227.686h0a.33.33,0,0,0,.329-.329v-4.1a.33.33,0,0,0-.329-.329h0a.33.33,0,0,0-.329.329v4.1A.33.33,0,0,0,532.584-227.686Z" transform="translate(-529.838 232.812)" fill="#777479"/>
      <path id="Path_308" data-name="Path 308" d="M533.234-228.336h0a.33.33,0,0,0-.329-.329h-4.1a.33.33,0,0,0-.329.329h0a.33.33,0,0,0,.329.329h4.1A.33.33,0,0,0,533.234-228.336Z" transform="translate(-528.108 231.083)" fill="#777479"/>
    </g>
    <g id="Group_350" data-name="Group 350" transform="translate(22.112 20.693)">
      <rect id="Rectangle_311" data-name="Rectangle 311" width="29.99" height="29.574" transform="matrix(0.951, -0.31, 0.31, 0.951, 0, 9.297)" fill="#f0eeaa"/>
      <g id="Group_340" data-name="Group 340" transform="translate(6.667 11.407)">
        <line id="Line_13" data-name="Line 13" x2="2.548" y2="1.372" transform="translate(0 0.614)" fill="none" stroke="#7cb1bd" stroke-linecap="round" stroke-linejoin="round" stroke-width="1"/>
        <line id="Line_14" data-name="Line 14" x1="1.272" y2="2.599" transform="translate(0.638)" fill="none" stroke="#7cb1bd" stroke-linecap="round" stroke-linejoin="round" stroke-width="1"/>
      </g>
      <g id="Group_341" data-name="Group 341" transform="translate(7.941 16.552)">
        <line id="Line_15" data-name="Line 15" x2="2.548" y2="1.372" transform="translate(0 0.614)" fill="none" stroke="#7cb1bd" stroke-linecap="round" stroke-linejoin="round" stroke-width="1"/>
        <line id="Line_16" data-name="Line 16" x1="1.272" y2="2.599" transform="translate(0.638)" fill="none" stroke="#7cb1bd" stroke-linecap="round" stroke-linejoin="round" stroke-width="1"/>
      </g>
      <g id="Group_342" data-name="Group 342" transform="translate(9.676 22.4)">
        <line id="Line_17" data-name="Line 17" x2="2.548" y2="1.372" transform="translate(0 0.614)" fill="none" stroke="#7cb1bd" stroke-linecap="round" stroke-linejoin="round" stroke-width="1"/>
        <line id="Line_18" data-name="Line 18" x1="1.272" y2="2.599" transform="translate(0.638)" fill="none" stroke="#7cb1bd" stroke-linecap="round" stroke-linejoin="round" stroke-width="1"/>
      </g>
      <g id="Group_343" data-name="Group 343" transform="translate(11.587 29.11)">
        <line id="Line_19" data-name="Line 19" x2="2.548" y2="1.372" transform="translate(0 0.614)" fill="none" stroke="#7cb1bd" stroke-linecap="round" stroke-linejoin="round" stroke-width="1"/>
        <line id="Line_20" data-name="Line 20" x1="1.272" y2="2.599" transform="translate(0.638)" fill="none" stroke="#7cb1bd" stroke-linecap="round" stroke-linejoin="round" stroke-width="1"/>
      </g>
      <g id="Group_344" data-name="Group 344" transform="translate(12.223 9.196)">
        <line id="Line_21" data-name="Line 21" x2="2.548" y2="1.372" transform="translate(0 0.614)" fill="none" stroke="#7cb1bd" stroke-linecap="round" stroke-linejoin="round" stroke-width="1"/>
        <line id="Line_22" data-name="Line 22" x1="1.272" y2="2.599" transform="translate(0.638)" fill="none" stroke="#7cb1bd" stroke-linecap="round" stroke-linejoin="round" stroke-width="1"/>
      </g>
      <g id="Group_345" data-name="Group 345" transform="translate(18.292 7.21)">
        <line id="Line_23" data-name="Line 23" x2="2.548" y2="1.372" transform="translate(0 0.614)" fill="none" stroke="#7cb1bd" stroke-linecap="round" stroke-linejoin="round" stroke-width="1"/>
        <line id="Line_24" data-name="Line 24" x1="1.272" y2="2.599" transform="translate(0.638)" fill="none" stroke="#7cb1bd" stroke-linecap="round" stroke-linejoin="round" stroke-width="1"/>
      </g>
      <g id="Group_346" data-name="Group 346" transform="translate(24.34 5.372)">
        <line id="Line_25" data-name="Line 25" x2="2.548" y2="1.372" transform="translate(0 0.614)" fill="none" stroke="#7cb1bd" stroke-linecap="round" stroke-linejoin="round" stroke-width="1"/>
        <line id="Line_26" data-name="Line 26" x1="1.272" y2="2.599" transform="translate(0.638)" fill="none" stroke="#7cb1bd" stroke-linecap="round" stroke-linejoin="round" stroke-width="1"/>
      </g>
      <g id="Group_347" data-name="Group 347" transform="translate(2.403 2.077)">
        <line id="Line_27" data-name="Line 27" x1="2.776" y2="0.82" transform="translate(0 7.42)" fill="none" stroke="#c76963" stroke-linecap="round" stroke-linejoin="round" stroke-width="1"/>
        <line id="Line_28" data-name="Line 28" x1="2.776" y2="0.82" transform="translate(11.094 3.663)" fill="none" stroke="#c76963" stroke-linecap="round" stroke-linejoin="round" stroke-width="1"/>
        <line id="Line_29" data-name="Line 29" x1="2.776" y2="0.82" transform="translate(22.058)" fill="none" stroke="#c76963" stroke-linecap="round" stroke-linejoin="round" stroke-width="1"/>
        <line id="Line_30" data-name="Line 30" x1="1.202" y2="0.355" transform="translate(6.603 5.666)" fill="none" stroke="#c76963" stroke-linecap="round" stroke-linejoin="round" stroke-width="1"/>
        <line id="Line_31" data-name="Line 31" x1="1.202" y2="0.355" transform="translate(17.067 2.149)" fill="none" stroke="#c76963" stroke-linecap="round" stroke-linejoin="round" stroke-width="1"/>
      </g>
      <g id="Group_348" data-name="Group 348" transform="translate(2.403 10.316)">
        <line id="Line_32" data-name="Line 32" x1="0.842" y1="2.769" stroke-width="1" stroke="#c76963" stroke-linecap="round" stroke-linejoin="round" fill="none"/>
        <line id="Line_33" data-name="Line 33" x1="0.842" y1="2.769" transform="translate(3.843 11.065)" fill="none" stroke="#c76963" stroke-linecap="round" stroke-linejoin="round" stroke-width="1"/>
        <line id="Line_34" data-name="Line 34" x1="0.842" y1="2.769" transform="translate(7.591 22)" fill="none" stroke="#c76963" stroke-linecap="round" stroke-linejoin="round" stroke-width="1"/>
        <line id="Line_35" data-name="Line 35" x1="0.365" y1="1.2" transform="translate(2.269 6.585)" fill="none" stroke="#c76963" stroke-linecap="round" stroke-linejoin="round" stroke-width="1"/>
        <line id="Line_36" data-name="Line 36" x1="0.365" y1="1.2" transform="translate(5.869 17.022)" fill="none" stroke="#c76963" stroke-linecap="round" stroke-linejoin="round" stroke-width="1"/>
      </g>
      <g id="Group_349" data-name="Group 349" transform="translate(27.358 2.118)">
        <line id="Line_37" data-name="Line 37" x1="0.842" y1="2.769" stroke-width="1" stroke="#c76963" stroke-linecap="round" stroke-linejoin="round" fill="none"/>
        <line id="Line_38" data-name="Line 38" x1="0.842" y1="2.769" transform="translate(3.843 11.065)" fill="none" stroke="#c76963" stroke-linecap="round" stroke-linejoin="round" stroke-width="1"/>
        <line id="Line_39" data-name="Line 39" x1="0.842" y1="2.769" transform="translate(7.591 22)" fill="none" stroke="#c76963" stroke-linecap="round" stroke-linejoin="round" stroke-width="1"/>
        <line id="Line_40" data-name="Line 40" x1="0.365" y1="1.2" transform="translate(2.269 6.585)" fill="none" stroke="#c76963" stroke-linecap="round" stroke-linejoin="round" stroke-width="1"/>
        <line id="Line_41" data-name="Line 41" x1="0.365" y1="1.2" transform="translate(5.869 17.022)" fill="none" stroke="#c76963" stroke-linecap="round" stroke-linejoin="round" stroke-width="1"/>
      </g>
    </g>
    <g id="Group_353" data-name="Group 353" transform="translate(33.528 31.76)">
      <g id="Group_351" data-name="Group 351" transform="translate(0 3.632)">
        <path id="Path_309" data-name="Path 309" d="M519.123-184.368l20.368,12.651s5.879,3.607,6.117,3.332c.3-.342-5.578-4.2-5.578-4.2l-20.368-12.651Z" transform="translate(-517.221 186.733)" fill="#5f5f5f"/>
        <circle id="Ellipse_106" data-name="Ellipse 106" cx="1.686" cy="1.686" r="1.686" fill="#c76963"/>
      </g>
      <g id="Group_352" data-name="Group 352" transform="translate(2.672)">
        <path id="Path_310" data-name="Path 310" d="M523.715-190.864l16.069,17.135s5.526,5.584,5.748,5.377c.26-.244-5-6.073-5-6.073L524.458-191.56Z" transform="translate(-521.995 193.26)" fill="#5f5f5f"/>
        <circle id="Ellipse_107" data-name="Ellipse 107" cx="1.686" cy="1.686" r="1.686" fill="#c76963"/>
      </g>
      <path id="Path_311" data-name="Path 311" d="M525.107-151.065a2.117,2.117,0,0,1-2.114-2.114,2.157,2.157,0,0,1,2.114-2.16h8.455a.7.7,0,0,1,.7.7.7.7,0,0,1-.7.7h-8.455a.747.747,0,0,0-.7.751.705.705,0,0,0,.7.7h4.228a.7.7,0,0,1,.7.7.7.7,0,0,1-.7.705Zm0,0" transform="translate(-518.993 176.684)" fill="#7cb1bd"/>
      <path id="Path_312" data-name="Path 312" d="M526.331-173.858a10.56,10.56,0,0,0,8.758,4.765,10.609,10.609,0,0,0,10.569-10.616,10.516,10.516,0,0,0-4.728-8.765Zm14.6-14.616" transform="translate(-520.52 191.848)" fill="#7cb1bd"/>
      <path id="Path_313" data-name="Path 313" d="M524.359-176.741a10.539,10.539,0,0,0,1.07,1.982,10.5,10.5,0,0,0,4.624,1.667,10.647,10.647,0,0,0,1.157.063,10.516,10.516,0,0,0,7.461-3.1,10.563,10.563,0,0,0,3.064-8.283,10.524,10.524,0,0,0-1.708-4.966,10.524,10.524,0,0,0-1.985-1.067l-.379.379-12.931,12.948Zm.374-.375" transform="translate(-519.618 192.749)" fill="#7cb1bd"/>
      <path id="Path_314" data-name="Path 314" d="M535.019-191.8a10.553,10.553,0,0,0-8.842,4.789l13.315,1.305a10.741,10.741,0,0,0,.113-1.769,10.545,10.545,0,0,0-.731-3.588,10.422,10.422,0,0,0-3.856-.737Zm0,0" transform="translate(-520.45 193.37)" fill="#a2d6dd"/>
      <path id="Path_315" data-name="Path 315" d="M525.34-184.489a10.5,10.5,0,0,0-.992,1.928l12.554,3.867a10.4,10.4,0,0,0,1.372-2.8,10.415,10.415,0,0,0,.382-1.692,10.4,10.4,0,0,0-5.915-2.991,10.451,10.451,0,0,0-7.4,1.686Zm0,0" transform="translate(-519.613 190.848)" fill="#a2d6dd"/>
      <path id="Path_316" data-name="Path 316" d="M523.827-180.04a10.666,10.666,0,0,0-.618,2.362l10.14,4.429a10.439,10.439,0,0,0,3.031-2.924,10.5,10.5,0,0,0-1.226-1.509,10.539,10.539,0,0,0-8.173-3.072,11.3,11.3,0,0,0-3.155.715Zm0,0" transform="translate(-519.091 188.327)" fill="#a2d6dd"/>
      <path id="Path_317" data-name="Path 317" d="M523.114-175.153a10.293,10.293,0,0,0,.624,5.359,10.513,10.513,0,0,0,9.516-.93,10.561,10.561,0,0,0-1.183-1.444,10.5,10.5,0,0,0-8.957-2.985Zm0,0" transform="translate(-518.997 185.802)" fill="#a2d6dd"/>
    </g>
    <g id="Group_355" data-name="Group 355" transform="translate(51.815 23.73)">
      <path id="Path_318" data-name="Path 318" d="M553.075-188.613c-1.085,4.362-1.844,5.908-1.821,7.339.019,1.142.581.265.581.265a20.243,20.243,0,0,0,3.95-7.89,13.409,13.409,0,0,0-.483-8.342c-.261-1.07-1.422-3.291.02-4.934,1.538-1.753,1.72-4.885-.112-6.526-2.444-2.191-5.805.423-5.876,4.249s3.842,5.8,4.255,7.935C553.979-194.5,554.158-192.974,553.075-188.613ZM551.717-207c1.654-1.848,3.481-.346,3.368,1.747s-2.276,4.377-2.276,4.377C550.651-201.762,550.063-205.155,551.717-207Z" transform="translate(-549.333 209.5)" fill="#d9857c"/>
      <path id="Path_319" data-name="Path 319" d="M557.2-194.454c1.641-2.036,5.48-1.79,7.026-5.29s-.4-7.287-3.543-6.328c-2.352.718-3.5,3.634-2.847,5.873.616,2.1-1.371,3.623-2.059,4.484a13.4,13.4,0,0,0-3.948,7.364,20.233,20.233,0,0,0,.261,8.82s.142,1.032.639,0c.623-1.287.585-3.009,1.437-7.422S555.839-192.764,557.2-194.454Zm2.37-3.511s-1-2.983-.222-4.93,3.067-2.54,3.789-.167S561.9-197.857,559.571-197.965Z" transform="translate(-550.31 208.001)" fill="#c76963"/>
      <g id="Group_354" data-name="Group 354" transform="translate(4.752 13.087)">
        <path id="Path_320" data-name="Path 320" d="M558.2-184.291a.705.705,0,0,1,.105-.879.706.706,0,0,1,.882-.082Z" transform="translate(-558.095 185.371)" fill="#d9857c"/>
        <path id="Path_321" data-name="Path 321" d="M558.678-183.8l.988-.962a.705.705,0,0,1-.106.879A.706.706,0,0,1,558.678-183.8Z" transform="translate(-558.362 185.09)" fill="#d9857c"/>
      </g>
    </g>
  </g>
</svg>
