<svg id="picture_his" data-name="picture his" xmlns="http://www.w3.org/2000/svg" width="69.009" height="57.494" viewBox="0 0 69.009 57.494">
  <g id="Group_372" data-name="Group 372">
    <g id="Group_364" data-name="Group 364" transform="translate(5.867)">
      <circle id="Ellipse_109" data-name="Ellipse 109" cx="27.531" cy="27.531" r="27.531" fill="#cff0ef"/>
    </g>
    <g id="Group_365" data-name="Group 365" transform="translate(0 31.398)">
      <path id="Path_334" data-name="Path 334" d="M317.653-42.016a.4.4,0,0,0-.129-.438c-.283-.2-1.1.034-1.357.224-.292.215-.388.645-.591.92a3,3,0,0,1-1.787,1.352c-.431.061-.739.148-.972-.214-.187-.275-.236-.469-.585-.569-.445-.126-.955.113-1.386-.116-.24-.129-.368-.5-.644-.546-.206-.03-.592.176-.805.215a4.581,4.581,0,0,1-.814.052c-.352-.017-.814-.238-1.148-.028a.523.523,0,0,0-.118.088c-.266.25.088.507.219.788.252.53-.245.848-.623,1.119-.348.254-.784.49-.9.926-.046.177.014.41-.084.575-.082.162-.338.293-.483.405-.172.135-.493.367-.4.657.062.273.133.454.4.508.3.055.316-.122.519-.265.513-.355,1.137.146,1.635.118.449-.024.919-.575,1.381-.321.443.242.5,1,.475,1.433a1.354,1.354,0,0,0,.076.65c.128.273.254.282.5.327a2.19,2.19,0,0,0,1.6-.072.924.924,0,0,0,.414-.643c.108-.35.3-.375.536-.65.384-.471.245-1.047.782-1.433a2.71,2.71,0,0,0,1.228-1.5c.164-.588.092-1.124.826-1.262.607-.114.991-.006,1.491-.44.379-.329,1.007-.3.894-.932a6.281,6.281,0,0,1-.168-.652A1.743,1.743,0,0,1,317.653-42.016Z" transform="translate(-268.049 56.787)" fill="#86ab6a"/>
      <path id="Path_335" data-name="Path 335" d="M262.989-59.314v-.4H251.123v-9.107c-.093.035-.181.063-.278.1a8.515,8.515,0,0,1-1.233.35,6.3,6.3,0,0,1-1.632-.011c-1.117.03-1.717.854-2.734,1.206-.995.346-1.685-.089-2.634-.144a4.147,4.147,0,0,0-2.134.581,6.856,6.856,0,0,0-2.005,2.21,3.632,3.632,0,0,1-1.623,1.185,7.536,7.536,0,0,0,.792.863c.33.354.613.777.939,1.116.272.286.732.5.97.818.964,1.307-.277,2.436-1,3.406a4.109,4.109,0,0,0-.948,2.947c.122.829,1.048,1.7.126,2.134-.053.022-.1.051-.155.073a1.737,1.737,0,0,1-.182,1,3.23,3.23,0,0,0-.306,1.774c.024.126.04.254.059.391a2.327,2.327,0,0,1,.4-.094,2.633,2.633,0,0,1,2.184.9c.043-.027.091-.065.17-.11a3.486,3.486,0,0,1,.97-.249c.668-.138,1.395-.366,2.072-.465a22.356,22.356,0,0,1,2.282-.519c.977-.027,1.429.51,2.389-.1a7.824,7.824,0,0,0,2.011-1.93c.424-.6.727-1.261,1.441-1.444-.071-.47-.116-.872.627-1.071a4.246,4.246,0,0,0,1.161-.438,2.534,2.534,0,0,1,1.108-.549c.844-.093,1.59.527,2.4.459.909-.068,1.6-.725,2.581-.447.9.257.658,1.212,1.154,1.887.384.53.817.254,1.3.577.421.289.291.91.674,1.275s.9.223,1.366.361.7.613.929,1.044c.332.618.146.731-.49.894a5.728,5.728,0,0,0-1.244.311c-.269.144-.355.356-.665.436-.278.079-.444-.217-.379.263.036.272.376.631.46.924a2.075,2.075,0,0,1-.076,1.252,15.162,15.162,0,0,0-.767,1.909,3.65,3.65,0,0,0-.01.83,1.614,1.614,0,0,0,2.021-.469c.688-.673,1.346-1.329,2.106-.656a.735.735,0,0,0,.074-.581c-.1-.312-.447-.324-.6-.591-.281-.482.174-.772.479-1.033.514-.446.772-.76.52-1.357a3.834,3.834,0,0,1-.446-1.416c.436-.2,1.1.248,1.46-.143.4-.434-.163-.959-.361-1.313a3.417,3.417,0,0,1-.222-2.06c.252-1.082.81.611,1.253.728.6.152.629-.707.868-1.033a1.1,1.1,0,0,1,1.288-.364c.687.2,1.035.488.712,1.166-.125.255-.284.28-.179.559a.812.812,0,0,0,.667.375c1.176.1,2.376-.733,3.462-1.012a2.051,2.051,0,0,0,1.253-.594,5.129,5.129,0,0,0,.267-.44,1.527,1.527,0,0,1,.566-.633,16.353,16.353,0,0,1,2.576-.694,1.407,1.407,0,0,0,.945-1.086c.146-.624.14-.871.721-1.219.279-.17.289-.033.425-.341.105-.234.044-.408.212-.625.355-.455,1.124-.52,1.547-.9a2.323,2.323,0,0,0,.466-.671Z" transform="translate(-236.851 68.817)" fill="#86ab6a"/>
    </g>
    <g id="Group_366" data-name="Group 366" transform="translate(36.895 14.603)">
      <path id="Path_336" data-name="Path 336" d="M321.852-99.783,304.877-74.76l14.412,5.807,17.7-6.39Z" transform="translate(-304.877 99.783)" fill="#efcb68"/>
      <path id="Path_337" data-name="Path 337" d="M321.852-99.783,304.877-74.76l14.412,5.807.515-11.567,1.107-.467-.03-7.751.985-.463Z" transform="translate(-304.877 99.783)" fill="#e5b75b"/>
    </g>
    <g id="Group_368" data-name="Group 368" transform="translate(36.723 4.787)">
      <g id="Group_367" data-name="Group 367" transform="translate(2.174 1.686)">
        <path id="Path_338" data-name="Path 338" d="M312.777-104.669a1.142,1.142,0,0,0,.2-1.444l-.235-.382c-2.145-3.127-1.793-8.278-1.793-8.278l12.9,1.8a12.784,12.784,0,0,1-3.759,7.421l-.427.4a1.142,1.142,0,0,0-.2,1.428,12.45,12.45,0,0,1,2.046,8.763L308.569-96.8C308.672-100.837,312.777-104.669,312.777-104.669Z" transform="translate(-308.569 114.773)" fill="#ffffe7"/>
        <path id="Path_339" data-name="Path 339" d="M313.4-104.917l8.555,1.19c-.855,1.763-3.554,3.429-3.7,3.536a1.5,1.5,0,0,0-.5,1.815c1.005,3.418,2.538,2.478,3.187,5.027a6.3,6.3,0,0,1,.044,2.678L310.8-92.089a7.68,7.68,0,0,1,.621-2.377c.752-2.019,2.986-1.288,4.517-4.081a1.57,1.57,0,0,0,.044-1.962C315.922-100.6,313.632-103.124,313.4-104.917Z" transform="translate(-309.59 110.263)" fill="#ffd972"/>
      </g>
      <rect id="Rectangle_328" data-name="Rectangle 328" width="16.729" height="1.688" transform="translate(16.569 23.211) rotate(-172.075)" fill="#7cb1bd"/>
      <rect id="Rectangle_329" data-name="Rectangle 329" width="16.729" height="1.688" transform="translate(19.173 3.978) rotate(-172.075)" fill="#7cb1bd"/>
    </g>
    <path id="Path_340" data-name="Path 340" d="M279.4-42.1h.065c-.022,0-.043-.008-.065-.008Z" transform="translate(-256.321 87.993)" fill="#ff88c4"/>
    <path id="Path_341" data-name="Path 341" d="M279.4-55.453v.008c.022,0,.043-.008.065-.008Z" transform="translate(-256.321 94.099)" fill="#ff88c4"/>
    <g id="Group_370" data-name="Group 370" transform="translate(5.7 5.301)">
      <g id="Group_369" data-name="Group 369">
        <path id="Path_342" data-name="Path 342" d="M263.976-115.879l-13.983.637a1.759,1.759,0,0,0-.251-.024c-1.4.064-2.466,1.718-2.376,3.694s1.3,3.526,2.7,3.462a1.736,1.736,0,0,0,.248-.047l13.983-.636Z" transform="translate(-247.361 116.451)" fill="#ffe1a4"/>
        <path id="Path_343" data-name="Path 343" d="M257.35-107.769l-5,.228c.726,1.693-.067,3.087-.817,3.121a.657.657,0,0,1-.233-.045.78.78,0,0,0,.353.075l5.837-.3Z" transform="translate(-249.164 112.739)" fill="#fff5b8"/>
        <path id="Path_344" data-name="Path 344" d="M288.88-79.532l-28.015,1.275s-4.065-.357-3.974-6.1c.124-7.934-.44-20.829-1.468-26.322a6.525,6.525,0,0,0-3.609-5.068l25.979-1.183s5.38,1.085,5.835,6.466c.461,5.436,1.11,16.691,1.2,24.567C284.874-82.026,288.88-79.532,288.88-79.532Z" transform="translate(-249.398 116.933)" fill="#ffffc4"/>
        <path id="Path_345" data-name="Path 345" d="M298.1-68.466a2.638,2.638,0,0,1-.14-.373,1.874,1.874,0,0,0-.693-1.092,2,2,0,0,0-1.31-.2,2.861,2.861,0,0,1-.409.017,3.051,3.051,0,0,1-.424-.068,2.022,2.022,0,0,0-1.306.038,1.89,1.89,0,0,0-.816.969,3.3,3.3,0,0,1-.211.382,3.326,3.326,0,0,1-.285.337,1.858,1.858,0,0,0-.613,1.1,1.866,1.866,0,0,0,.464,1.18,2.964,2.964,0,0,1,.228.353,2.6,2.6,0,0,1,.14.373,1.877,1.877,0,0,0,.694,1.092,2,2,0,0,0,1.311.2,2.861,2.861,0,0,1,.409-.017,3.311,3.311,0,0,1,.424.068,2.016,2.016,0,0,0,1.3-.038h0a1.89,1.89,0,0,0,.814-.966,3.186,3.186,0,0,1,.214-.385,3.129,3.129,0,0,1,.284-.336,1.86,1.86,0,0,0,.612-1.1,1.867,1.867,0,0,0-.464-1.181A2.994,2.994,0,0,1,298.1-68.466Z" transform="translate(-267.741 95.58)" fill="#c76963"/>
        <path id="Path_346" data-name="Path 346" d="M272.532-59.2l-5.27.233c-.826.037-1.452,1.012-1.4,2.176s.766,2.077,1.592,2.04a1.016,1.016,0,0,0,.146-.028l5.123-.233Z" transform="translate(-255.827 90.512)" fill="#ffe1a4"/>
        <path id="Path_347" data-name="Path 347" d="M295.86-61.144a1.75,1.75,0,0,0-.248.047l-27.344,1.245c1.4-.064,2.611,1.47,2.7,3.427s-.975,3.594-2.377,3.658l27.344-1.245a1.761,1.761,0,0,0,.251.024c1.4-.064,2.466-1.718,2.376-3.694S297.262-61.208,295.86-61.144Z" transform="translate(-256.929 91.403)" fill="#ffebb8"/>
      </g>
      <line id="Line_42" data-name="Line 42" x1="18.852" y2="0.858" transform="translate(12.942 18.201)" fill="none" stroke="#929584" stroke-linecap="round" stroke-linejoin="round" stroke-width="1.2"/>
      <line id="Line_43" data-name="Line 43" x1="18.852" y2="0.858" transform="translate(11.64 8.416)" fill="none" stroke="#929584" stroke-linecap="round" stroke-linejoin="round" stroke-width="1.2"/>
      <line id="Line_44" data-name="Line 44" x1="18.852" y2="0.858" transform="translate(12.314 13.094)" fill="none" stroke="#929584" stroke-linecap="round" stroke-linejoin="round" stroke-width="1.2"/>
    </g>
    <g id="Group_371" data-name="Group 371" transform="translate(4.518 24.849)">
      <path id="Path_348" data-name="Path 348" d="M292.927-48.669a1.381,1.381,0,0,1-.578-.1l-17.9-7.381a.437.437,0,0,1-.239-.569l.72-1.763a.438.438,0,0,1,.236-.239.44.44,0,0,1,.152-.033.427.427,0,0,1,.183.033l17.9,7.38a1.38,1.38,0,0,1,.754.748,1.379,1.379,0,0,1,0,1.063A1.393,1.393,0,0,1,292.927-48.669Z" transform="translate(-258.45 70.762)" fill="#c9a478"/>
      <circle id="Ellipse_110" data-name="Ellipse 110" cx="1.94" cy="1.94" r="1.94" transform="translate(33.362 19.118)" fill="#a98769"/>
      <circle id="Ellipse_111" data-name="Ellipse 111" cx="2.411" cy="2.411" r="2.411" transform="translate(12.516 10.22)" fill="#a98769"/>
      <circle id="Ellipse_112" data-name="Ellipse 112" cx="6.417" cy="6.417" r="6.417" transform="translate(2.987 3.396)" fill="#c9a478"/>
      <path id="Path_349" data-name="Path 349" d="M261.26-77.18a1.235,1.235,0,0,1-1.191,1.279,1.236,1.236,0,0,1-1.279-1.191,27.714,27.714,0,0,1,.9-3.8A21.984,21.984,0,0,1,261.26-77.18Z" transform="translate(-251.409 80.892)" fill="#a98769"/>
      <path id="Path_350" data-name="Path 350" d="M249.21-69.046a1.236,1.236,0,0,1,.67,1.614,1.236,1.236,0,0,1-1.614.67,27.658,27.658,0,0,1-3.083-2.4A21.983,21.983,0,0,1,249.21-69.046Z" transform="translate(-245.182 75.542)" fill="#a98769"/>
      <path id="Path_351" data-name="Path 351" d="M270.762-71.26a1.235,1.235,0,0,0-.385,1.7,1.236,1.236,0,0,0,1.7.385,27.7,27.7,0,0,0,2.629-2.887A22,22,0,0,0,270.762-71.26Z" transform="translate(-256.625 76.849)" fill="#a98769"/>
      <path id="Path_352" data-name="Path 352" d="M262.487-52.843a1.236,1.236,0,0,0-1.285-1.183,1.235,1.235,0,0,0-1.184,1.285,27.692,27.692,0,0,0,1.19,3.72A21.981,21.981,0,0,0,262.487-52.843Z" transform="translate(-251.971 68.598)" fill="#a98769"/>
      <path id="Path_353" data-name="Path 353" d="M250.767-56.5a1.236,1.236,0,0,0,.38-1.706,1.235,1.235,0,0,0-1.705-.381,27.693,27.693,0,0,0-2.623,2.894A22.026,22.026,0,0,0,250.767-56.5Z" transform="translate(-245.931 70.771)" fill="#a98769"/>
      <circle id="Ellipse_113" data-name="Ellipse 113" cx="1.501" cy="1.501" r="1.501" transform="translate(7.894 8.079)" fill="#a98769"/>
    </g>
  </g>
</svg>
