<svg id="picture_ukr" data-name="picture ukr" xmlns="http://www.w3.org/2000/svg" xmlns:xlink="http://www.w3.org/1999/xlink" width="67.575" height="58.375" viewBox="0 0 67.575 58.375">
  <defs>
    <clipPath id="clip-path">
      <rect id="Rectangle_363" data-name="Rectangle 363" width="45.814" height="47.517" fill="none"/>
    </clipPath>
  </defs>
  <g id="Group_427" data-name="Group 427" transform="translate(5.762 0.843)">
    <circle id="Ellipse_161" data-name="Ellipse 161" cx="28.766" cy="28.766" r="28.766" fill="#cff0ef"/>
  </g>
  <g id="Group_428" data-name="Group 428" transform="translate(50.146 8.696)">
    <path id="Path_430" data-name="Path 430" d="M-367.587,26.187h-.01a3.161,3.161,0,0,0-3.152,3.161,3.132,3.132,0,0,0,.154.926,3.152,3.152,0,0,0,3.008,2.237,3.163,3.163,0,0,0,3.163-3.163A3.162,3.162,0,0,0-367.587,26.187Z" transform="translate(376.525 -23.951)" fill="#b86963"/>
    <circle id="Ellipse_162" data-name="Ellipse 162" cx="3.162" cy="3.162" r="3.162" transform="translate(3.162 5.555)" fill="#c76963"/>
    <circle id="Ellipse_163" data-name="Ellipse 163" cx="3.162" cy="3.162" r="3.162" transform="translate(0 3.327)" fill="#b86963"/>
    <path id="Path_431" data-name="Path 431" d="M-370.144,24.3a3.151,3.151,0,0,0-3.009-2.237,3.162,3.162,0,0,0-3.162,3.162,3.162,3.162,0,0,0,3.162,3.163h.01a3.132,3.132,0,0,1-.153-.926A3.161,3.161,0,0,1-370.144,24.3Z" transform="translate(379.072 -22.065)" fill="#c76963"/>
    <circle id="Ellipse_164" data-name="Ellipse 164" cx="1.384" cy="1.384" r="1.384" transform="translate(4.66 4.745)" fill="#646464"/>
  </g>
  <g id="Group_429" data-name="Group 429" transform="translate(55.475 18.061)">
    <path id="Path_432" data-name="Path 432" d="M-357.76,43.453h-.01a3.162,3.162,0,0,0-3.152,3.161,3.134,3.134,0,0,0,.154.926,3.152,3.152,0,0,0,3.009,2.237,3.162,3.162,0,0,0,3.162-3.163A3.162,3.162,0,0,0-357.76,43.453Z" transform="translate(366.699 -41.217)" fill="#b86963"/>
    <circle id="Ellipse_165" data-name="Ellipse 165" cx="3.162" cy="3.162" r="3.162" transform="translate(3.162 5.556)" fill="#c76963"/>
    <circle id="Ellipse_166" data-name="Ellipse 166" cx="3.162" cy="3.162" r="3.162" transform="translate(0 3.327)" fill="#b86963"/>
    <path id="Path_433" data-name="Path 433" d="M-360.318,41.568a3.152,3.152,0,0,0-3.009-2.237,3.162,3.162,0,0,0-3.163,3.163,3.162,3.162,0,0,0,3.163,3.162h.01a3.134,3.134,0,0,1-.154-.926A3.162,3.162,0,0,1-360.318,41.568Z" transform="translate(369.246 -39.331)" fill="#c76963"/>
    <circle id="Ellipse_167" data-name="Ellipse 167" cx="1.384" cy="1.384" r="1.384" transform="translate(4.66 4.745)" fill="#646464"/>
  </g>
  <g id="Group_439" data-name="Group 439" transform="translate(20.647 33.541)">
    <path id="Path_434" data-name="Path 434" d="M-403.072,78.527l-14.5,11.144c-2.919,2.182-10.614.448-14.326-1.724l-3.891-2.353,24.75-17.722Z" transform="translate(435.787 -67.872)" fill="#fff"/>
    <g id="Group_434" data-name="Group 434" transform="translate(3.613 2.378)">
      <g id="Group_430" data-name="Group 430" transform="translate(0 12.062)">
        <line id="Line_66" data-name="Line 66" x2="5.966" y2="1.085" transform="translate(0 2.441)" fill="none" stroke="#c76963" stroke-linecap="round" stroke-linejoin="round" stroke-width="2"/>
        <line id="Line_67" data-name="Line 67" x1="1.085" y2="5.966" transform="translate(2.441)" fill="none" stroke="#c76963" stroke-linecap="round" stroke-linejoin="round" stroke-width="2"/>
      </g>
      <g id="Group_431" data-name="Group 431" transform="translate(5.665 8.14)">
        <line id="Line_68" data-name="Line 68" x2="5.966" y2="1.085" transform="translate(0 2.441)" fill="none" stroke="#c76963" stroke-linecap="round" stroke-linejoin="round" stroke-width="2"/>
        <line id="Line_69" data-name="Line 69" x1="1.085" y2="5.966" transform="translate(2.441)" fill="none" stroke="#c76963" stroke-linecap="round" stroke-linejoin="round" stroke-width="2"/>
      </g>
      <g id="Group_432" data-name="Group 432" transform="translate(11.244 4.277)">
        <line id="Line_70" data-name="Line 70" x2="5.966" y2="1.085" transform="translate(0 2.441)" fill="none" stroke="#c76963" stroke-linecap="round" stroke-linejoin="round" stroke-width="2"/>
        <line id="Line_71" data-name="Line 71" x1="1.085" y2="5.966" transform="translate(2.441)" fill="none" stroke="#c76963" stroke-linecap="round" stroke-linejoin="round" stroke-width="2"/>
      </g>
      <g id="Group_433" data-name="Group 433" transform="translate(17.584)">
        <line id="Line_72" data-name="Line 72" x2="5.966" y2="1.085" transform="translate(0 2.441)" fill="none" stroke="#c76963" stroke-linecap="round" stroke-linejoin="round" stroke-width="2"/>
        <line id="Line_73" data-name="Line 73" x1="1.085" y2="5.966" transform="translate(2.441)" fill="none" stroke="#c76963" stroke-linecap="round" stroke-linejoin="round" stroke-width="2"/>
      </g>
      <line id="Line_74" data-name="Line 74" x2="0.879" y2="1.332" transform="translate(5.315 12.421)" fill="none" stroke="#646464" stroke-linecap="round" stroke-linejoin="round" stroke-width="1.3"/>
      <line id="Line_75" data-name="Line 75" x2="0.879" y2="1.332" transform="translate(11.019 8.314)" fill="none" stroke="#646464" stroke-linecap="round" stroke-linejoin="round" stroke-width="1.3"/>
      <line id="Line_76" data-name="Line 76" x2="0.879" y2="1.332" transform="translate(16.77 4.277)" fill="none" stroke="#646464" stroke-linecap="round" stroke-linejoin="round" stroke-width="1.3"/>
    </g>
    <g id="Group_438" data-name="Group 438" transform="translate(12.363 7.923)">
      <g id="Group_435" data-name="Group 435" transform="translate(0.546 7.848)">
        <line id="Line_77" data-name="Line 77" x2="5.966" y2="1.085" transform="translate(0 2.441)" fill="none" stroke="#c76963" stroke-linecap="round" stroke-linejoin="round" stroke-width="2"/>
        <line id="Line_78" data-name="Line 78" x1="1.085" y2="5.966" transform="translate(2.441)" fill="none" stroke="#c76963" stroke-linecap="round" stroke-linejoin="round" stroke-width="2"/>
      </g>
      <g id="Group_436" data-name="Group 436" transform="translate(6.392 3.863)">
        <line id="Line_79" data-name="Line 79" x2="5.966" y2="1.085" transform="translate(0 2.441)" fill="none" stroke="#c76963" stroke-linecap="round" stroke-linejoin="round" stroke-width="2"/>
        <line id="Line_80" data-name="Line 80" x1="1.085" y2="5.966" transform="translate(2.441)" fill="none" stroke="#c76963" stroke-linecap="round" stroke-linejoin="round" stroke-width="2"/>
      </g>
      <g id="Group_437" data-name="Group 437" transform="translate(11.971)">
        <line id="Line_81" data-name="Line 81" x2="5.966" y2="1.085" transform="translate(0 2.441)" fill="none" stroke="#c76963" stroke-linecap="round" stroke-linejoin="round" stroke-width="2"/>
        <line id="Line_82" data-name="Line 82" x1="1.085" y2="5.966" transform="translate(2.441)" fill="none" stroke="#c76963" stroke-linecap="round" stroke-linejoin="round" stroke-width="2"/>
      </g>
      <line id="Line_83" data-name="Line 83" x2="0.879" y2="1.332" transform="translate(5.899 8.172)" fill="none" stroke="#646464" stroke-linecap="round" stroke-linejoin="round" stroke-width="1.3"/>
      <line id="Line_84" data-name="Line 84" x2="0.879" y2="1.332" transform="translate(0 12.482)" fill="none" stroke="#646464" stroke-linecap="round" stroke-linejoin="round" stroke-width="1.3"/>
      <line id="Line_85" data-name="Line 85" x2="0.879" y2="1.332" transform="translate(11.603 4.066)" fill="none" stroke="#646464" stroke-linecap="round" stroke-linejoin="round" stroke-width="1.3"/>
    </g>
  </g>
  <g id="Group_442" data-name="Group 442" transform="translate(0 10.858)">
    <g id="Group_441" data-name="Group 441" clip-path="url(#clip-path)">
      <g id="Group_440" data-name="Group 440" transform="translate(2.362 1.313)">
        <path id="Path_435" data-name="Path 435" d="M-405.167,36.981c-25.381-5.931-47.121,3.756-61.084,17.818-2.865-.8-4.1-5.424-2.616-6.877,14.62-14.275,37.688-23.2,63.364-17.914Q-405.2,33.517-405.167,36.981Z" transform="translate(469.501 -28.471)" fill="#dba948"/>
        <path id="Path_436" data-name="Path 436" d="M-411.4,45.306c-21.922,5.662-38.18,16.372-49.656,31.3-2.28,1.793-5.746-3.2-4.414-4.934,11.571-15.108,29.69-26.665,51.3-32.527Q-412.708,42.207-411.4,45.306Z" transform="translate(467.793 -33.355)" fill="#6d8955"/>
        <path id="Path_437" data-name="Path 437" d="M-395.062,59.442c-23.294.471-41.617,10.783-52.477,25.286-.893,1.192-6.941-1.779-4.578-4.848,11.656-15.145,31.424-26.079,55.187-27.106Q-395.874,56.1-395.062,59.442Z" transform="translate(461.794 -39.593)" fill="#c76963"/>
        <path id="Path_438" data-name="Path 438" d="M-408.414,41.213c-22.992.593-42.934,10.705-55.244,23.949-2.008,2.16-6.27-3.123-4.413-5.051A85.646,85.646,0,0,1-411.062,34.2Q-409.6,37.694-408.414,41.213Z" transform="translate(469.056 -31.093)" fill="#7cb1bd"/>
      </g>
    </g>
  </g>
  <g id="Group_446" data-name="Group 446" transform="translate(40.639 0)">
    <g id="Group_445" data-name="Group 445">
      <g id="Group_443" data-name="Group 443">
        <path id="Path_439" data-name="Path 439" d="M-377.181,46.412l.815-1.373a2.2,2.2,0,0,0-.769-3.012l-15.582-9.248.941-10.974-4.315-.37s-3.029,32.489-2.828,34.11A12.26,12.26,0,0,0-388.1,66.164,12.239,12.239,0,0,0-374.541,54,12.179,12.179,0,0,0-377.181,46.412Zm-11.678,7.22a2.926,2.926,0,0,1-2.926-2.926,2.926,2.926,0,0,1,2.926-2.926,2.926,2.926,0,0,1,2.926,2.926A2.926,2.926,0,0,1-388.859,53.632Z" transform="translate(398.928 -13.08)" fill="#c9a478"/>
        <circle id="Ellipse_168" data-name="Ellipse 168" cx="2.926" cy="2.926" r="2.926" transform="translate(2.25 3.827)" fill="#a98769"/>
        <circle id="Ellipse_169" data-name="Ellipse 169" cx="2.059" cy="2.059" r="2.059" transform="translate(3.743)" fill="#a98769"/>
      </g>
      <g id="Group_444" data-name="Group 444" transform="translate(1.482 8.049)">
        <circle id="Ellipse_170" data-name="Ellipse 170" cx="3.255" cy="3.255" r="3.255" transform="translate(5.583 26.592)" fill="#a98769"/>
        <line id="Line_86" data-name="Line 86" y1="33.773" x2="2.31" transform="translate(0 0.913)" fill="#201600" stroke="#a98769" stroke-linecap="round" stroke-linejoin="round" stroke-width="0.5"/>
        <line id="Line_87" data-name="Line 87" y1="38.621" x2="2.743" transform="translate(1.823)" fill="#201600" stroke="#a98769" stroke-linecap="round" stroke-linejoin="round" stroke-width="0.5"/>
        <path id="Path_440" data-name="Path 440" d="M-389.2,73.067l1.83-26.761" transform="translate(392.995 -32.511)" fill="#201600" stroke="#a98769" stroke-linecap="round" stroke-linejoin="round" stroke-width="0.5"/>
        <path id="Path_441" data-name="Path 441" d="M-385.566,76.145l1.851-27.066" transform="translate(391.331 -33.78)" fill="#201600" stroke="#a98769" stroke-linecap="round" stroke-linejoin="round" stroke-width="0.5"/>
        <path id="Path_442" data-name="Path 442" d="M-381.579,77.981l1.82-26.62" transform="translate(389.507 -34.824)" fill="#201600" stroke="#a98769" stroke-linecap="round" stroke-linejoin="round" stroke-width="0.5"/>
        <path id="Path_443" data-name="Path 443" d="M-377.42,79.635l1.774-25.939" transform="translate(387.603 -35.893)" fill="#201600" stroke="#a98769" stroke-linecap="round" stroke-linejoin="round" stroke-width="0.5"/>
        <path id="Path_444" data-name="Path 444" d="M-373.156,80.725l1.649-24.114" transform="translate(385.652 -37.227)" fill="#201600" stroke="#a98769" stroke-linecap="round" stroke-linejoin="round" stroke-width="0.5"/>
        <path id="Path_445" data-name="Path 445" d="M-369.15,80.8l1.554-22.728" transform="translate(383.818 -37.896)" fill="#201600" stroke="#a98769" stroke-linecap="round" stroke-linejoin="round" stroke-width="0.5"/>
        <path id="Path_446" data-name="Path 446" d="M-365.014,80.737l1.394-20.389" transform="translate(381.926 -38.937)" fill="#201600" stroke="#a98769" stroke-linecap="round" stroke-linejoin="round" stroke-width="0.5"/>
        <path id="Path_447" data-name="Path 447" d="M-360.923,79.357l1.163-17" transform="translate(380.054 -39.858)" fill="#201600" stroke="#a98769" stroke-linecap="round" stroke-linejoin="round" stroke-width="0.5"/>
      </g>
    </g>
    <path id="Path_448" data-name="Path 448" d="M-372.148,55.894l-15.784-9.414.257-4.2,16.042,9.567a1.621,1.621,0,0,1,.567,2.222Z" transform="translate(393.896 -22.621)" fill="#a98769"/>
  </g>
  <g id="Group_449" data-name="Group 449" transform="translate(15.113 6.957)">
    <path id="Path_449" data-name="Path 449" d="M-423.393,42.886l-17.263,2.089a1.2,1.2,0,0,1-.9-.428c-.227-.284-.5-.68-.5-.68L-443.412,22.2l15.864-3.2a2.212,2.212,0,0,0,.575.718,2.557,2.557,0,0,0,.824.391Z" transform="translate(444.811 -18.926)" fill="#7ca0a9"/>
    <rect id="Rectangle_364" data-name="Rectangle 364" width="17.389" height="22.937" transform="translate(0 2.17) rotate(-6.9)" fill="#a2d6dd"/>
    <path id="Path_450" data-name="Path 450" d="M-422.343,24.309l-2.089-.909-1.84,1.385-.667-5.452,3.929-.475Z" transform="translate(437.272 -18.857)" fill="#efcb68"/>
    <g id="Group_447" data-name="Group 447" transform="translate(1.451 3.434)">
      <path id="Path_451" data-name="Path 451" d="M-435.52,29.749q.309-.037.353.322a.618.618,0,0,1-.047.349.386.386,0,0,1-.251.2q-1.02.336-1.45.5a1.876,1.876,0,0,0-.009.2,4.445,4.445,0,0,1-.654,2.447,2.267,2.267,0,0,1-1.646.988,1.513,1.513,0,0,1-1.122-.229,1.266,1.266,0,0,1-.491-.907,1.961,1.961,0,0,1,.624-1.607,6.777,6.777,0,0,1,2.24-1.43q.014-.238.03-1.157c.006-.137.013-.383.021-.74a3.2,3.2,0,0,1-.83,1.411,2.24,2.24,0,0,1-1.286.593,1.317,1.317,0,0,1-1.123-.306,1.734,1.734,0,0,1-.5-1.093,2.218,2.218,0,0,1-.008-.483q.023-.231.078-.553.064-.381.086-.62a2.5,2.5,0,0,0-.012-.525q-.049-.4-.349-.365a.85.85,0,0,0-.413.2,2.785,2.785,0,0,0-.449.465.4.4,0,0,1-.258.176.251.251,0,0,1-.217-.075.391.391,0,0,1-.11-.241.883.883,0,0,1,.171-.615,2.345,2.345,0,0,1,.678-.637,2.1,2.1,0,0,1,.878-.315,1.046,1.046,0,0,1,.836.213,1.3,1.3,0,0,1,.4.876,3.1,3.1,0,0,1,.015.618q-.024.291-.088.673c-.034.236-.056.417-.066.542a1.817,1.817,0,0,0,.007.373.838.838,0,0,0,.2.523.649.649,0,0,0,.521.094,1.391,1.391,0,0,0,.85-.548,3.939,3.939,0,0,0,.7-1.319,5.847,5.847,0,0,0,.283-1.8.936.936,0,0,1,.133-.551.577.577,0,0,1,.412-.2.521.521,0,0,1,.656.515,1.14,1.14,0,0,1,.011.16q-.015.79-.067,1.764-.055,1.228-.1,2.524.521-.174,1.243-.388A.652.652,0,0,1-435.52,29.749ZM-438,31.567a4.975,4.975,0,0,0-1.441.887,1.111,1.111,0,0,0-.391.938.586.586,0,0,0,.2.383.529.529,0,0,0,.43.118,1.129,1.129,0,0,0,.855-.613A3.508,3.508,0,0,0-438,31.644Z" transform="translate(443.316 -25.19)" fill="#fff"/>
    </g>
    <g id="Group_448" data-name="Group 448" transform="translate(4.084 17.678)">
      <path id="Path_452" data-name="Path 452" d="M-431.834,53.723a.64.64,0,0,1,.116.328.948.948,0,0,1-.12.656q-.291.437-.513.706a2.43,2.43,0,0,1-.564.49,1.849,1.849,0,0,1-.8.274.9.9,0,0,1-.913-.375,3.152,3.152,0,0,1-.422-1.405c-.037-.321-.06-.631-.067-.935l-.021,0a6.163,6.163,0,0,1-.763,2.211,1.75,1.75,0,0,1-1.278.894.988.988,0,0,1-.861-.284,1.5,1.5,0,0,1-.407-.915,1.359,1.359,0,0,1,.139-.854.782.782,0,0,1,.627-.394.444.444,0,0,1,.3.048.232.232,0,0,1,.1.216,4.923,4.923,0,0,0,0,.683c.028.245.1.361.227.347.068-.008.139-.068.212-.181a5.15,5.15,0,0,0,.348-.8q.182-.477.368-1.067t.3-1.049a1.291,1.291,0,0,1,.309-.631,1.028,1.028,0,0,1,.594-.23.893.893,0,0,1,.59.087.621.621,0,0,1,.241.479l.068.758q.059.862.1,1.24.124,1.073.564,1.022a.527.527,0,0,0,.342-.216q.159-.2.483-.7l.22-.336a.362.362,0,0,1,.259-.175A.238.238,0,0,1-431.834,53.723Z" transform="translate(438.462 -51.452)" fill="#fff"/>
    </g>
  </g>
  <g id="Group_450" data-name="Group 450" transform="translate(39.003 6.736)">
    <path id="Path_453" data-name="Path 453" d="M-388.131,22.572h-.01a3.162,3.162,0,0,0-3.152,3.161,3.113,3.113,0,0,0,.154.925,3.151,3.151,0,0,0,3.009,2.237,3.162,3.162,0,0,0,3.162-3.162A3.162,3.162,0,0,0-388.131,22.572Z" transform="translate(397.07 -20.336)" fill="#b86963"/>
    <circle id="Ellipse_171" data-name="Ellipse 171" cx="3.162" cy="3.162" r="3.162" transform="translate(3.162 5.556)" fill="#c76963"/>
    <circle id="Ellipse_172" data-name="Ellipse 172" cx="3.162" cy="3.162" r="3.162" transform="translate(0 3.327)" fill="#b86963"/>
    <path id="Path_454" data-name="Path 454" d="M-390.689,20.687A3.153,3.153,0,0,0-393.7,18.45a3.162,3.162,0,0,0-3.162,3.163,3.162,3.162,0,0,0,3.162,3.162h.011a3.113,3.113,0,0,1-.154-.925A3.162,3.162,0,0,1-390.689,20.687Z" transform="translate(399.617 -18.45)" fill="#c76963"/>
    <circle id="Ellipse_173" data-name="Ellipse 173" cx="1.384" cy="1.384" r="1.384" transform="translate(4.66 4.745)" fill="#646464"/>
  </g>
  <g id="Group_453" data-name="Group 453" transform="translate(22.332 10.215)">
    <path id="Path_455" data-name="Path 455" d="M-405.154,46.97l-16.207,6.3a1.2,1.2,0,0,1-.976-.193c-.29-.219-.655-.535-.655-.535l-6.684-20.65,14.577-7.03a2.2,2.2,0,0,0,.736.553,2.548,2.548,0,0,0,.895.174Z" transform="translate(431.305 -24.865)" fill="#dba948"/>
    <rect id="Rectangle_365" data-name="Rectangle 365" width="17.389" height="22.937" transform="matrix(0.932, -0.362, 0.362, 0.932, 0, 6.303)" fill="#efcb68"/>
    <path id="Path_456" data-name="Path 456" d="M-407.145,32.128l-2.269-.416-1.419,1.85-2.533-6.513,3.688-1.434Z" transform="translate(423.842 -25.208)" fill="#c76963"/>
    <g id="Group_451" data-name="Group 451" transform="translate(3.128 5.378)">
      <path id="Path_457" data-name="Path 457" d="M-418.7,38.788q.29-.113.422.225a.622.622,0,0,1,.041.349.39.39,0,0,1-.193.26q-.905.578-1.282.842a1.871,1.871,0,0,0,.042.2,4.443,4.443,0,0,1-.028,2.532,2.264,2.264,0,0,1-1.349,1.365,1.512,1.512,0,0,1-1.144.056,1.265,1.265,0,0,1-.7-.757,1.96,1.96,0,0,1,.207-1.712,6.783,6.783,0,0,1,1.816-1.941q-.046-.234-.258-1.128-.042-.2-.163-.723a3.2,3.2,0,0,1-.455,1.573,2.238,2.238,0,0,1-1.1.893A1.319,1.319,0,0,1-424,40.806a1.738,1.738,0,0,1-.753-.937,2.2,2.2,0,0,1-.127-.466c-.023-.153-.044-.338-.062-.554q-.033-.385-.071-.623a2.479,2.479,0,0,0-.142-.505q-.146-.377-.429-.267a.853.853,0,0,0-.351.295,2.76,2.76,0,0,0-.319.562.408.408,0,0,1-.207.234.25.25,0,0,1-.229-.02.4.4,0,0,1-.167-.207.88.88,0,0,1,.014-.638,2.336,2.336,0,0,1,.5-.785,2.1,2.1,0,0,1,.772-.523,1.045,1.045,0,0,1,.863,0,1.3,1.3,0,0,1,.6.75,3.048,3.048,0,0,1,.168.594c.033.192.06.417.081.674q.038.355.07.542a1.878,1.878,0,0,0,.1.359.838.838,0,0,0,.323.457.649.649,0,0,0,.527-.038,1.393,1.393,0,0,0,.688-.741,3.933,3.933,0,0,0,.349-1.451,5.843,5.843,0,0,0-.172-1.813.937.937,0,0,1-.008-.566.579.579,0,0,1,.349-.3.521.521,0,0,1,.763.336,1.12,1.12,0,0,1,.05.152q.182.769.373,1.726.251,1.2.527,2.47.463-.3,1.108-.684A.652.652,0,0,1-418.7,38.788Zm-1.95,2.376a4.979,4.979,0,0,0-1.176,1.217,1.112,1.112,0,0,0-.146,1.006.586.586,0,0,0,.288.322.529.529,0,0,0,.446.008,1.131,1.131,0,0,0,.676-.806,3.509,3.509,0,0,0-.068-1.672Z" transform="translate(426.913 -34.781)" fill="#fff"/>
    </g>
    <g id="Group_452" data-name="Group 452" transform="translate(9.237 18.629)">
      <path id="Path_458" data-name="Path 458" d="M-408.993,60.5a.541.541,0,0,1,.174.238.812.812,0,0,1,.065.569,5.05,5.05,0,0,1-.415,1,1.345,1.345,0,0,1-.649.593.7.7,0,0,1-.745-.057,2.058,2.058,0,0,1-.584-.848,9.247,9.247,0,0,1-.441-1.373l-.016.007a6.662,6.662,0,0,0-.041.937c.007.338.023.735.05,1.192l.019.418a.722.722,0,0,1-.068.413.528.528,0,0,1-.251.208.343.343,0,0,1-.3.015.969.969,0,0,1-.274-.241,4.345,4.345,0,0,1-.4-.607,8.167,8.167,0,0,1-.415-.83q-.113-.264-.193-.514l-.016.007a13.159,13.159,0,0,1,.158,1.443,2.413,2.413,0,0,1-.168,1.039,1.254,1.254,0,0,1-.695.674.843.843,0,0,1-.779-.015,1.29,1.29,0,0,1-.548-.645,1.255,1.255,0,0,1-.1-.746.645.645,0,0,1,.4-.492q.32-.137.413.078a.244.244,0,0,1,.02.068,4.17,4.17,0,0,0,.17.571q.117.272.237.22t.153-.26a4.158,4.158,0,0,0,0-.849q-.049-.861-.144-1.739a.765.765,0,0,1,.079-.465.749.749,0,0,1,.369-.3.775.775,0,0,1,.409-.073.336.336,0,0,1,.272.224q.5,1.158.817,1.742l.016-.007a7.662,7.662,0,0,1-.028-1.23,4.06,4.06,0,0,1,.121-.971,1.357,1.357,0,0,1,.2-.376.788.788,0,0,1,.311-.234.543.543,0,0,1,.445-.046.81.81,0,0,1,.3.414c.053.123.1.245.149.368l.127.338q.223.6.347.892a2.1,2.1,0,0,0,.329.587.258.258,0,0,0,.309.056c.213-.092.361-.488.445-1.187a.275.275,0,0,1,.154-.237A.2.2,0,0,1-408.993,60.5Z" transform="translate(415.65 -59.212)" fill="#fff"/>
    </g>
  </g>
</svg>
