<svg id="picture_dosl" data-name="picture dosl" xmlns="http://www.w3.org/2000/svg" xmlns:xlink="http://www.w3.org/1999/xlink" width="63.466" height="58.036" viewBox="0 0 63.466 58.036">
  <defs>
    <clipPath id="clip-path">
      <path id="Path_503" data-name="Path 503" d="M50.667,38.033a15.138,15.138,0,0,1-1.488-6.568h0c0-.143,0-.285.006-.427,0-.046,0-.092.005-.138,0-.1.008-.193.012-.289,0-.054.007-.106.01-.159.006-.089.012-.178.02-.266l.015-.163c.008-.089.017-.177.028-.266.005-.052.011-.1.017-.155q.018-.144.039-.287c.006-.042.011-.085.018-.127.041-.277.091-.551.146-.822.008-.036.016-.072.024-.108q.032-.149.066-.3l.033-.134c.022-.09.046-.181.069-.271.012-.046.024-.091.037-.136q.037-.136.078-.271c.012-.042.024-.084.037-.125.031-.1.062-.2.095-.3.01-.03.02-.061.03-.091q.133-.4.286-.782l.023-.057c.043-.107.088-.215.133-.321l.04-.092c.042-.1.085-.191.129-.286l.045-.1q.068-.143.138-.285l.041-.084c.054-.106.109-.212.165-.317l.022-.042q.3-.553.639-1.078l.03-.047c.066-.1.132-.2.2-.3l.038-.055c.068-.1.138-.2.208-.291l.031-.043q.12-.164.245-.323h0q.391-.5.821-.969l.011-.012q.134-.146.273-.287l.025-.026q.136-.14.276-.276l.018-.018q.513-.5,1.071-.945l.029-.023c.059-.047.117-.093.176-.139h0l.047-.036.041-.031.223-.168.04-.029c.077-.056.154-.112.232-.167L55.682,19A15.274,15.274,0,0,1,57,18.176l.058-.033.222-.12.08-.042c.072-.037.143-.074.215-.11l.091-.045.214-.1.093-.043.218-.1.082-.036q.386-.17.783-.319l.065-.024c.067-.025.135-.048.2-.072l.129-.046.189-.063.146-.048.183-.056.156-.047.18-.051.165-.045.174-.046.177-.043.167-.04.2-.045.143-.03q.17-.035.341-.065l.127-.022.229-.038.148-.022.212-.03.153-.019.209-.024.155-.015.213-.019.152-.012.223-.014.144-.008c.082,0,.165-.007.248-.01l.121,0q.185,0,.371,0h0a15.15,15.15,0,0,1,6.412,1.416c.1.046.193.092.289.139a15.132,15.132,0,0,1,1.693.973c.238.158.472.322.7.492.176.132.349.268.519.407l.1.081q.39.325.757.673.27.257.528.527.274.287.533.589.2.229.383.465c.111.14.219.281.325.425s.2.281.3.424q.174.254.338.515.119.189.232.381c.043.073.086.146.127.22.1.183.2.368.3.555l0,0A15.1,15.1,0,0,1,79.058,27.5c.031.117.062.235.091.354a15.242,15.242,0,0,1,.433,3.612h0q0,.175,0,.349c0,.029,0,.059,0,.088,0,.111-.007.222-.012.332v.016q-.009.172-.022.343l-.007.087q-.012.159-.028.316l0,.029q-.017.169-.039.337c0,.029-.007.057-.011.086q-.02.151-.042.3l-.005.039q-.026.166-.055.331c0,.028-.01.056-.015.084-.018.1-.036.193-.055.289l-.01.048q-.033.162-.07.323l-.02.083q-.033.139-.068.277c0,.018-.009.037-.014.055-.027.105-.056.211-.086.316-.008.027-.015.054-.023.081q-.038.133-.079.265L78.893,36c-.032.1-.066.206-.1.308-.009.027-.018.053-.027.08q-.044.128-.09.254l-.024.067q-.055.151-.114.3l-.031.079c-.033.082-.066.163-.1.244-.01.024-.02.048-.03.071q-.062.146-.127.29c-.011.026-.023.052-.035.077-.036.079-.072.156-.109.234l-.036.075q-.068.142-.14.281l-.039.074q-.058.113-.118.225l-.042.078q-.075.137-.152.271l-.042.073q-.063.107-.127.214l-.048.08c-.054.088-.108.175-.163.261l-.046.071q-.067.1-.135.206L76.964,40c-.057.084-.115.168-.174.251l-.049.068q-.071.1-.143.2l-.061.082q-.091.121-.184.241L76.3,40.9c-.05.063-.1.126-.152.188l-.067.082c-.065.078-.129.155-.195.231l-.053.061-.16.18-.074.081q-.1.111-.2.219L75.34,42q-.083.087-.168.172l-.08.081-.2.2-.065.061c-.059.056-.118.111-.178.166l-.085.078-.2.177L74.284,43l-.189.159L74,43.232l-.2.158-.085.066c-.067.052-.134.1-.2.155l-.1.071c-.065.048-.13.1-.2.142l-.088.063-.217.15-.1.067c-.065.044-.131.087-.2.129l-.085.055q-.118.075-.236.148l-.1.062-.2.117-.079.047h0l-.037.021-.006,0q-.159.09-.322.177l-.037.02c-.1.053-.2.1-.3.154l-.061.03q-.137.069-.277.136l-.078.036c-.087.041-.175.081-.264.12l-.093.041-.253.108-.1.042-.246.1-.114.043-.24.088-.124.043-.235.08-.132.043-.231.072-.138.041-.228.065-.145.039-.226.057-.15.037-.225.05-.154.034-.224.044-.158.03-.223.039-.162.027-.224.033-.164.023-.227.027-.164.018-.232.022-.162.014c-.08.007-.161.011-.241.016-.052,0-.1.008-.155.01-.088,0-.177.008-.265.011l-.133,0q-.2.006-.4.005h0a15.126,15.126,0,0,1-8.394-2.527c-.066-.044-.132-.088-.2-.133a15.232,15.232,0,0,1-1.6-1.262l-.049-.044q-.53-.483-1.013-1.014c-.119-.131-.235-.265-.35-.4-.086-.1-.171-.2-.254-.309-.11-.137-.219-.276-.324-.417q-.256-.343-.493-.7a15.27,15.27,0,0,1-1.027-1.8Z" transform="translate(-49.179 -16.264)" fill="none"/>
    </clipPath>
  </defs>
  <g id="Group_478" data-name="Group 478" transform="translate(0 0)">
    <g id="Group_466" data-name="Group 466" transform="translate(8.01 2.942)">
      <g id="Group_465" data-name="Group 465">
        <ellipse id="Ellipse_177" data-name="Ellipse 177" cx="27.728" cy="27.547" rx="27.728" ry="27.547" fill="#cff0ef"/>
      </g>
    </g>
    <g id="Group_475" data-name="Group 475" transform="translate(26.981)">
      <g id="Group_467" data-name="Group 467" transform="translate(12.817 36.967)">
        <rect id="Rectangle_368" data-name="Rectangle 368" width="8.015" height="3.1" transform="translate(0.013 8.019) rotate(-90.09)" fill="#c9a478"/>
      </g>
      <g id="Group_468" data-name="Group 468" transform="translate(6.69 2.309)">
        <path id="Path_490" data-name="Path 490" d="M69.876,48.633A18.932,18.932,0,0,0,76.8,12.08l-.735,1.871A16.923,16.923,0,1,1,62.4,44.887l-.889,1.8A18.74,18.74,0,0,0,69.876,48.633Z" transform="translate(-61.513 -12.08)" fill="#c9a478"/>
      </g>
      <g id="Group_469" data-name="Group 469" transform="translate(4.261)">
        <rect id="Rectangle_369" data-name="Rectangle 369" width="41.073" height="3.1" rx="1.55" transform="translate(0 36.818) rotate(-63.687)" fill="#b78e70"/>
      </g>
      <circle id="Ellipse_178" data-name="Ellipse 178" cx="15.201" cy="15.201" r="15.201" transform="translate(0 4.579)" fill="#a2d6dd"/>
      <g id="Group_473" data-name="Group 473" transform="translate(0 4.579)">
        <g id="Group_472" data-name="Group 472" clip-path="url(#clip-path)">
          <g id="Group_471" data-name="Group 471" transform="translate(0.139 0.992)">
            <path id="Path_491" data-name="Path 491" d="M49.435,30.919a6.816,6.816,0,0,1,.884-.1,4.263,4.263,0,0,0,2.031-.677,1.168,1.168,0,0,1,.3-.124c.075-.028.1.008.111.084a.653.653,0,0,1-.368.641,1.016,1.016,0,0,0-.4.382c-.019.04-.037.043-.077.021-.119-.068-.242-.127-.363-.194a.085.085,0,0,0-.114,0,2.99,2.99,0,0,0-.569.653.327.327,0,0,0,.067.411,4.126,4.126,0,0,0,.648.529,16.407,16.407,0,0,0,1.471.893c.092.053.085.093.026.159a.43.43,0,0,1-.323.164,2.782,2.782,0,0,1-.611-.065c-.012,0-.024-.008-.036-.01-.267-.045-.282-.025-.193.225a5.263,5.263,0,0,0,.532,1.209,2.754,2.754,0,0,0,.481.5,2.59,2.59,0,0,1,.86,1.592,3.89,3.89,0,0,1-.032,1.088,2.652,2.652,0,0,0-.008.678.808.808,0,0,0,.485.581c.138.078.278.15.419.221.193.1.215.112.129.3-.068.148-.073.305-.125.454-.039.109.095.307.247.386a.413.413,0,0,0,.138.059c.169.015.187.14.205.266a2.414,2.414,0,0,0,.574,1.29,1.488,1.488,0,0,0,1.392.448c.115-.015.228-.043.343-.063a.418.418,0,0,0,.337-.386c.037-.207.126-.4.182-.6.135-.487.281-.97.426-1.453q.083-.276.156-.554a2.917,2.917,0,0,0,.026-1.135,1.383,1.383,0,0,0-.106-.437.973.973,0,0,1,.016-.755q.232-.714.458-1.431a4.473,4.473,0,0,0,.15-.685.439.439,0,0,1,.209-.344,4.183,4.183,0,0,1,.661-.421,1.373,1.373,0,0,1,1.094.048,1.875,1.875,0,0,0,.9.222,1.315,1.315,0,0,0,.8-.342,3.207,3.207,0,0,0,.9-1.365,1.944,1.944,0,0,0,.032-1.151,3.664,3.664,0,0,1-.089-.86.87.87,0,0,0-.354-.735,4.294,4.294,0,0,1-1-1.23c-.057-.092-.113-.184-.167-.279a.568.568,0,0,0-.484-.26c-.328-.04-.655-.088-.982-.131-.494-.064-.988-.125-1.481-.19-.054-.007-.069.009-.067.057,0,.133,0,.268.019.4.01.081-.012.122-.086.136-.1.018-.2.025-.3.048a.79.79,0,0,0-.638.514c-.057.171-.217.171-.351.221-.106.039-.152.01-.18-.1-.049-.189-.116-.374-.174-.561-.022-.071-.047-.094-.132-.067-.389.125-.782.237-1.174.355q-.449.136-.9.276c-.161.05-.17.046-.16-.114.017-.263.078-.522.079-.787,0-.066.037-.1.1-.106l1.013-.177c.062-.011.123-.024.185-.034a.08.08,0,0,0,.077-.1c-.007-.056-.026-.086-.092-.093-.141-.016-.28-.047-.42-.071-.1-.016-.105-.066-.062-.143a.725.725,0,0,1,.923-.338c.1.036.2.064.3.1.123.049.157.091.114.212a1.923,1.923,0,0,0-.01.493c-.006.069.043.03.068,0l.51-.582q.43-.494.86-.988c.053-.061.117-.1.184-.039s.038.126-.018.184a5,5,0,0,0-.461.479.673.673,0,0,0-.121.621.372.372,0,0,0,.32.257c.14-.01.2-.046.188-.188a1.067,1.067,0,0,1,.454-.939.922.922,0,0,1,.7-.21,1.617,1.617,0,0,1,.761.22,1.293,1.293,0,0,1,.524.649.554.554,0,0,0,.415.369,1.646,1.646,0,0,0,.68.07.277.277,0,0,0,.245-.261.577.577,0,0,0-.008-.238,2.793,2.793,0,0,1-.084-.683.121.121,0,0,0-.088-.129c-.3-.114-.6-.238-.9-.351-.074-.028-.08-.05-.04-.115a2.1,2.1,0,0,0,.129-.257.385.385,0,0,0,.039-.313.229.229,0,0,1,.007-.149,4.3,4.3,0,0,0,.159-.734,1.1,1.1,0,0,0-.049-.433c-.016-.056-.035-.111-.05-.168-.039-.152-.058-.165-.216-.153-.046,0-.074.012-.087.066a3.733,3.733,0,0,0-.155.669,1.219,1.219,0,0,1-.16.375.425.425,0,0,0-.058.208.772.772,0,0,1-.449-.288,1.083,1.083,0,0,0-.905-.424c-.306-.014-.611.049-.916.037a1.29,1.29,0,0,1-.725-.207.8.8,0,0,1-.308-.386.632.632,0,0,0-.421-.374c-.08-.034-.164-.059-.247-.088-.029-.01-.06-.027-.061-.056s.036-.042.063-.054a1.085,1.085,0,0,1,.379-.078c.117-.005.234-.014.35-.029a.267.267,0,0,0,.267-.261,1.52,1.52,0,0,0,.006-.375c0-.036-.018-.082.014-.108s.068.014.1.029a1.18,1.18,0,0,1,.459.334.622.622,0,0,1,.11.546,1.405,1.405,0,0,0-.064.457.2.2,0,0,0,.206.2.875.875,0,0,0,.226-.005,2.181,2.181,0,0,1,.5-.034c.152,0,.158-.008.1-.143-.031-.072-.056-.148-.09-.219s-.017-.108.069-.094c.136.023.273.042.408.068.107.021.158.007.191-.12a1.113,1.113,0,0,0-.345-1.034,2.664,2.664,0,0,0-1.226-.8,2.367,2.367,0,0,0-1.2-.071c-.5.091-.995.184-1.493.274-.071.013-.118.04-.127.114s-.019.137.065.183c.124.068.239.152.361.223.085.049.059.074-.011.1l-.27.1a.132.132,0,0,1-.156-.044,2.093,2.093,0,0,0-.882-.575,1.861,1.861,0,0,0-.437-.106c-.041,0-.085,0-.119-.029a1.246,1.246,0,0,0-.357.291,16.137,16.137,0,0,0-1.409,1.473,16.917,16.917,0,0,0-1.142,1.531,15.554,15.554,0,0,0-1.591,3.171c-.129.351-.249.707-.345,1.07q-.093.35-.19.7A.8.8,0,0,0,49.435,30.919Z" transform="translate(-49.435 -19.966)" fill="#86ab6a"/>
            <path id="Path_492" data-name="Path 492" d="M87.038,18.093a1.146,1.146,0,0,1-.336.007A16.3,16.3,0,0,0,84.7,18.2a1.4,1.4,0,0,0-.38.072c-.1.043-.108.094-.027.159a1.794,1.794,0,0,0,.379.22,14.168,14.168,0,0,0,1.841.675,3.1,3.1,0,0,0,1.293.091c.142-.018.189-.125.114-.273a1.459,1.459,0,0,0-.255-.4.362.362,0,0,1-.12-.411,1.93,1.93,0,0,0-.377-.2A.833.833,0,0,0,87.038,18.093Z" transform="translate(-65.361 -18.093)" fill="#86ab6a"/>
            <path id="Path_493" data-name="Path 493" d="M95.332,21.612a.374.374,0,0,0,.355.285A1.44,1.44,0,0,0,95.332,21.612Z" transform="translate(-70.439 -19.703)" fill="#86ab6a"/>
            <path id="Path_494" data-name="Path 494" d="M95.257,21.528c0,.027.021.038.042.047C95.295,21.551,95.286,21.53,95.257,21.528Z" transform="translate(-70.405 -19.665)" fill="#86ab6a"/>
            <path id="Path_495" data-name="Path 495" d="M96.064,22.178v0Z" transform="translate(-70.774 -19.962)" fill="#86ab6a"/>
            <path id="Path_496" data-name="Path 496" d="M55.412,51.727a7.108,7.108,0,0,0,.035.812,5.224,5.224,0,0,0,.635,1.83c.041.072.054.068.111.018a.863.863,0,0,0,.277-.558,1.929,1.929,0,0,0-.159-.992,2.444,2.444,0,0,0-.843-1.076C55.455,51.752,55.441,51.744,55.412,51.727Z" transform="translate(-52.17 -33.485)" fill="#86ab6a"/>
            <path id="Path_497" data-name="Path 497" d="M95.023,39.2a1.274,1.274,0,0,0-1.028.446c-.025.031-.066.075-.059.1.011.046.072.044.116.055a1.135,1.135,0,0,0,.874-.248,1.11,1.11,0,0,1,.485-.212c.021,0,.046,0,.048-.029s-.021-.032-.042-.035A2.821,2.821,0,0,0,95.023,39.2Z" transform="translate(-69.8 -27.75)" fill="#86ab6a"/>
            <path id="Path_498" data-name="Path 498" d="M87.679,25.793c.008.011.013.026.021.028s.022-.009.025-.017.007-.036-.018-.035C87.7,25.771,87.69,25.784,87.679,25.793Z" transform="translate(-66.937 -21.606)" fill="#86ab6a"/>
            <path id="Path_499" data-name="Path 499" d="M73.625,20.112c.011-.131.154-.153.252-.2a4.371,4.371,0,0,1,.856-.274,4.9,4.9,0,0,1,1.091-.151,10.408,10.408,0,0,1,1.24.076,8.067,8.067,0,0,1,1.4.285,6.786,6.786,0,0,1,1,.382,2.3,2.3,0,0,1,.4.209.182.182,0,0,1,.092.168c-.012.079-.089.109-.157.125a1.815,1.815,0,0,1-.309.049.8.8,0,0,0-.646.627l.019.085V21.5a.3.3,0,0,0,.032.157,1.215,1.215,0,0,1-.032,1.2c-.133.226-.313.346-.523.289a4.135,4.135,0,0,1-.847-.335,4.223,4.223,0,0,0-.665-.366.758.758,0,0,1-.386-.275.775.775,0,0,0-.611-.3,2.477,2.477,0,0,1-.474-.046,1.258,1.258,0,0,1-.8-.683,1.514,1.514,0,0,0-.444-.591c-.094-.062-.188-.123-.276-.192S73.615,20.239,73.625,20.112Z" transform="translate(-60.505 -18.731)" fill="#86ab6a"/>
            <path id="Path_500" data-name="Path 500" d="M86.421,23.429a2.329,2.329,0,0,1,.349.221c.041,0,.081.012.122.014.131,0,.135.01.076.13,0,.016-.488.961-.628,1.263-.066.143-.1.21.118.245q.619.1,1.237.2c.171.029.234.025.2.256a1.249,1.249,0,0,0,.08.653.651.651,0,0,0,.551.414,2.06,2.06,0,0,1,1.574,1.1,2,2,0,0,0,.727.852,2.25,2.25,0,0,1,.5.392,1.166,1.166,0,0,1,.358.88.527.527,0,0,0,.162.366.064.064,0,0,0,.1.014.492.492,0,0,0,.193-.3.532.532,0,0,1,.586-.549,8.057,8.057,0,0,1,1.6.167.527.527,0,0,1,.379.383,3.131,3.131,0,0,1,.157,1.3,1,1,0,0,1-.078.264c-.025.068-.09.064-.149.067a1.772,1.772,0,0,1-1.185-.364c-.068-.05-.114-.054-.173,0a.43.43,0,0,1-.12.088c-.146.064-.127.167-.085.287.056.162.1.328.15.491a.1.1,0,0,1-.081.139l-.683.159c-.089.021-.145.062-.1.169a1.964,1.964,0,0,1,.088.274.557.557,0,0,1-.165.537,2.066,2.066,0,0,1-.359.308c-.052.033-.117.062-.1.142s.081.069.136.086a.811.811,0,0,0,1.067-.479A1.941,1.941,0,0,1,94.1,32.72a11.846,11.846,0,0,0,1.116-.439,3.393,3.393,0,0,0,.834-.649,2.812,2.812,0,0,1,.853-.578,3.033,3.033,0,0,0-.12-.61c-.052-.232-.115-.461-.18-.69-.079-.28-.17-.558-.265-.833-.14-.409-.3-.81-.483-1.2a16.4,16.4,0,0,0-.884-1.69,16.145,16.145,0,0,0-1.085-1.57,15.907,15.907,0,0,0-1.975-2.1c-.047-.041-.1-.077-.148-.116A2.463,2.463,0,0,1,91,22.123c-.261-.079-.495-.219-.748-.315a1.04,1.04,0,0,0-.293-.062.534.534,0,0,0-.536.423c0,.008,0,.017,0,.025-.127.275-.11.24.159.421.479.324.964.638,1.429.983a.81.81,0,0,1,.284.4c.034.1-.01.193-.134.265a1.344,1.344,0,0,1-.741.195.2.2,0,0,0-.239.182,1.393,1.393,0,0,1-.088.247c-.029.067-.1.092-.135.025a2.95,2.95,0,0,0-.515-.574,2.045,2.045,0,0,1-.483-.834c-.059-.233-.221-.278-.415-.3-.136-.015-.273-.027-.436-.042.133-.093.244-.175.359-.248a.327.327,0,0,0,.148-.3,1.134,1.134,0,0,0-.184-.641.291.291,0,0,0-.244-.13,2.452,2.452,0,0,0-.633.084,4.13,4.13,0,0,0-1.019.3,1.085,1.085,0,0,0-.546.655C85.963,22.944,86.415,23.373,86.421,23.429Zm.675.964a.029.029,0,0,0-.01.014.029.029,0,0,1,.01-.014.111.111,0,0,0,.053-.089A.111.111,0,0,1,87.1,24.393Zm-.009-.2-.005-.008.005.008.021.023Zm.259-.171a.266.266,0,0,0-.13-.06.139.139,0,0,0-.086.028.139.139,0,0,1,.086-.028A.266.266,0,0,1,87.346,24.024Zm.08.1c0-.021-.027-.054-.063-.085.036.03.064.063.063.085Zm-.119.127" transform="translate(-66.16 -19.764)" fill="#86ab6a"/>
            <g id="Group_470" data-name="Group 470" transform="translate(17.561 13.61)">
              <path id="Path_501" data-name="Path 501" d="M91.9,43.886h0Z" transform="translate(-86.429 -43.507)" fill="#86ab6a"/>
              <path id="Path_502" data-name="Path 502" d="M81.824,46.947a4.121,4.121,0,0,0,.429.786,2.781,2.781,0,0,1,.422,1.513.874.874,0,0,0,.707.923.826.826,0,0,1,.5.43c.073.121.135.249.208.37a.9.9,0,0,1,.11.429,1.245,1.245,0,0,0,.58.984.731.731,0,0,0,.618.031l.057-.014a1.349,1.349,0,0,1-.231.387.552.552,0,0,0-.066.12.237.237,0,0,0,.145.351c.143.064.3.063.443.131a.888.888,0,0,1,.464.919,1.165,1.165,0,0,1-.12.354.655.655,0,0,0,0,.5,2.082,2.082,0,0,1,.069.266c.016.177.176.216.289.3.028.021.084.017.08.068s-.056.044-.087.057q-.485.216-.973.423c-.065.027-.077.032-.024.1a.416.416,0,0,0,.37.159,1.666,1.666,0,0,0,1.45-.875,2.763,2.763,0,0,0,.238-.749c.081-.332.154-.668.211-1.005.081-.483.149-.966.183-1.456.05-.722-.015-1.441-.019-2.161a2.016,2.016,0,0,1,1.065-1.9,1.689,1.689,0,0,0,.632-.724,3.466,3.466,0,0,0,.4-1.308,1.6,1.6,0,0,0-.144-.754c-.1-.26-.174-.533-.289-.787a4.318,4.318,0,0,0-.744-1.331.8.8,0,0,0-.814-.265.888.888,0,0,0-.37.2,1.134,1.134,0,0,1-.332.154c.027.05.047.081-.02.138a1.586,1.586,0,0,1-.55.259c-.362.125-.731.233-1.1.349-.183.059-.361.137-.547.177a.465.465,0,0,0-.357.359c-.094.281-.179.565-.256.851-.025.093-.069.117-.16.108a2.116,2.116,0,0,0-1.37.389,7.365,7.365,0,0,0-.632.467,1.219,1.219,0,0,1-.406.153C81.816,46.842,81.8,46.861,81.824,46.947Zm7.4-1.807a.15.15,0,0,0,.018.061A.15.15,0,0,1,89.225,45.14Z" transform="translate(-81.813 -43.187)" fill="#86ab6a"/>
            </g>
          </g>
        </g>
      </g>
      <g id="Group_474" data-name="Group 474" transform="translate(7.448 41.956)">
        <rect id="Rectangle_370" data-name="Rectangle 370" width="13.852" height="4.463" rx="2.231" transform="translate(13.852 4.463) rotate(180)" fill="#b78e70"/>
      </g>
    </g>
    <g id="Group_477" data-name="Group 477" transform="translate(0 13.539)">
      <g id="Group_476" data-name="Group 476" transform="translate(11.443)">
        <circle id="Ellipse_179" data-name="Ellipse 179" cx="9.033" cy="9.033" r="9.033" transform="translate(1.11 1.11)" fill="#fff" opacity="0.45"/>
        <path id="Path_504" data-name="Path 504" d="M20.9,40.22A10.142,10.142,0,1,1,27.965,52.7,10.153,10.153,0,0,1,20.9,40.22Zm17.41,4.822a7.924,7.924,0,1,0-9.752,5.521A7.933,7.933,0,0,0,38.309,45.042Z" transform="translate(-20.53 -32.784)" fill="#ffd972"/>
      </g>
      <rect id="Rectangle_371" data-name="Rectangle 371" width="3.342" height="14.302" rx="1.671" transform="matrix(0.408, 0.913, -0.913, 0.408, 13.057, 11.807)" fill="#ffd972"/>
      <circle id="Ellipse_180" data-name="Ellipse 180" cx="3.088" cy="3.088" r="3.088" transform="translate(22.196 5.756)" fill="#fff" opacity="0.53"/>
    </g>
    <rect id="Rectangle_372" data-name="Rectangle 372" width="40.031" height="9.784" rx="0.706" transform="translate(54.477 56.174) rotate(-180)" fill="#9dba76"/>
    <rect id="Rectangle_373" data-name="Rectangle 373" width="40.132" height="6.074" transform="translate(54.527 54.319) rotate(-180)" fill="#eef5f4"/>
    <path id="Path_505" data-name="Path 505" d="M38.984,103.1l1.795-.711a.906.906,0,0,1,.68,0l1.807.713c.419.165.833-.285.833-.906v-2.054c0-.517-.293-.937-.655-.937H38.807c-.362,0-.656.42-.656.937v2.052C38.151,102.815,38.565,103.266,38.984,103.1Z" transform="translate(-17.151 -49.641)" fill="#a2d6dd"/>
    <path id="Path_506" data-name="Path 506" d="M59.341,108.945l1.795-.711a.906.906,0,0,1,.68,0l1.807.713c.419.165.832-.285.832-.906v-2.054c0-.517-.293-.937-.655-.937H59.164c-.362,0-.656.42-.656.937v2.052C58.508,108.661,58.922,109.111,59.341,108.945Z" transform="translate(-26.467 -52.317)" fill="#ffd972"/>
  </g>
</svg>
