<svg xmlns="http://www.w3.org/2000/svg" width="55.063" height="61.621" viewBox="0 0 55.063 61.621">
  <g id="picture_che" data-name="picture che" transform="translate(0 0.75)">
    <g id="Group_386" data-name="Group 386" transform="translate(0 0)">
      <g id="Group_383" data-name="Group 383" transform="translate(0 5.809)">
        <circle id="Ellipse_118" data-name="Ellipse 118" cx="27.531" cy="27.531" r="27.531" fill="#ffa8ba"/>
      </g>
      <path id="Path_370" data-name="Path 370" d="M-435.3-243.778v-8.879a4.076,4.076,0,0,1,3.952-4.191h0a4.076,4.076,0,0,1,3.952,4.191v6.25a3.309,3.309,0,0,0,3.209,3.4h0a3.309,3.309,0,0,0,3.208-3.4v-14.333a4.235,4.235,0,0,1,4.105-4.353h0a4.235,4.235,0,0,1,4.105,4.353v10.158" transform="translate(449.212 265.094)" fill="none" stroke="#7cb1bd" stroke-miterlimit="10" stroke-width="1.5"/>
      <g id="Group_384" data-name="Group 384" transform="translate(30.909 14.359)">
        <path id="Path_371" data-name="Path 371" d="M-400.882-235.117v31.566a3.88,3.88,0,0,0,3.866,2.78,4.059,4.059,0,0,0,3.865-2.78v-31.566Z" transform="translate(402.554 237.016)" fill="#cff0ef"/>
        <path id="Path_372" data-name="Path 372" d="M-392.891-238.619h-11.073v2.177h11.076v-2.177Z" transform="translate(403.965 238.619)" fill="#b8e5e0"/>
        <path id="Path_373" data-name="Path 373" d="M-395.688-190.508a2.286,2.286,0,0,1-2.29-1.452V-208.1h4.581v16.108A2.4,2.4,0,0,1-395.688-190.508Z" transform="translate(401.225 224.652)" fill="#8ec9da"/>
      </g>
      <g id="Group_385" data-name="Group 385" transform="translate(28.276 10.889)">
        <line id="Line_45" data-name="Line 45" x2="16.226" transform="translate(1.837 8.777)" fill="none" stroke="#646464" stroke-linecap="round" stroke-linejoin="round" stroke-width="1.3"/>
        <line id="Line_46" data-name="Line 46" x2="22.111" transform="translate(0 48.246)" fill="none" stroke="#646464" stroke-linecap="round" stroke-linejoin="round" stroke-width="1.3"/>
        <line id="Line_47" data-name="Line 47" y1="48.246" transform="translate(17.179)" fill="none" stroke="#646464" stroke-linecap="round" stroke-linejoin="round" stroke-width="1.3"/>
      </g>
      <rect id="Rectangle_330" data-name="Rectangle 330" width="8.036" height="15.892" transform="translate(9.897 22.232)" fill="#cff0ef"/>
      <path id="Path_374" data-name="Path 374" d="M-435.765-175.381h-20.484a2.583,2.583,0,0,1-2.093-3.916l8.316-20.207h8.037l8.316,20.207A2.583,2.583,0,0,1-435.765-175.381Z" transform="translate(459.923 235.078)" fill="#cff0ef"/>
      <path id="Path_375" data-name="Path 375" d="M-452.391-177.607c1.922-4.668,6.922-16.819,6.922-16.819h4.605l6.922,16.819a1.281,1.281,0,0,1-1.122,1.8H-451.27A1.281,1.281,0,0,1-452.391-177.607Z" transform="translate(457.082 232.754)" fill="#ffffc4"/>
      <rect id="Rectangle_331" data-name="Rectangle 331" width="10.932" height="3.766" transform="translate(8.45 21.188)" fill="#b8dce3"/>
      <circle id="Ellipse_119" data-name="Ellipse 119" cx="1.284" cy="1.284" r="1.284" transform="translate(36.301 27.137)" fill="#8ec9da"/>
      <circle id="Ellipse_120" data-name="Ellipse 120" cx="1.541" cy="1.541" r="1.541" transform="translate(34.156 21.188)" fill="#8ec9da"/>
      <circle id="Ellipse_121" data-name="Ellipse 121" cx="1.791" cy="1.791" r="1.791" transform="translate(37.975 7.308)" fill="#cff0ef"/>
      <path id="Path_376" data-name="Path 376" d="M-401.344-168.662h8.2a3.639,3.639,0,0,0,1.447-2.778c0-5.9-5.1-4.715-5-9.921,0,0-6.315,3.031-6.051,9.769A3.618,3.618,0,0,0-401.344-168.662Z" transform="translate(434.322 226.775)" fill="#efe081"/>
      <path id="Path_377" data-name="Path 377" d="M-397.59-176.309s4.859,2.264,4.655,7.3c-.045,1.126-.5,2.958-4.248,2.958-3.536,0-4.163-1.7-4.254-2.844h0C-401.437-173.306-397.516-172.421-397.59-176.309Z" transform="translate(433.717 224.463)" fill="#efcb68"/>
      <path id="Path_378" data-name="Path 378" d="M-395.2-170.168s-3.105,1.447-2.975,4.664c.029.72.323,1.89,2.715,1.89,2.259,0,2.66-1.085,2.719-1.817h0C-392.743-168.249-395.249-167.683-395.2-170.168Z" transform="translate(432.227 221.653)" fill="#e5b75b"/>
      <rect id="Rectangle_332" data-name="Rectangle 332" width="11.716" height="1.208" transform="translate(30.907 57.376)" fill="#646464"/>
    </g>
    <line id="Line_48" data-name="Line 48" y1="13.373" transform="translate(13.916 24.955)" fill="#ffffc4" stroke="#ffffc4" stroke-miterlimit="10" stroke-width="1.3"/>
  </g>
</svg>
