<svg xmlns="http://www.w3.org/2000/svg" width="64.738" height="55.063" viewBox="0 0 64.738 55.063">
  <g id="picture_phy" data-name="picture phy" transform="translate(0.65)">
    <g id="Group_418" data-name="Group 418" transform="translate(3.838)">
      <circle id="Ellipse_151" data-name="Ellipse 151" cx="27.531" cy="27.531" r="27.531" fill="#ffa8ba"/>
    </g>
    <g id="Group_419" data-name="Group 419" transform="translate(12.864 9.407)">
      <ellipse id="Ellipse_152" data-name="Ellipse 152" cx="6.111" cy="18.834" rx="6.111" ry="18.834" transform="translate(12.722)" fill="none" stroke="#ffffc4" stroke-miterlimit="10" stroke-width="2"/>
      <ellipse id="Ellipse_153" data-name="Ellipse 153" cx="18.834" cy="6.111" rx="18.834" ry="6.111" transform="translate(0 12.722)" fill="none" stroke="#ffffc4" stroke-miterlimit="10" stroke-width="2"/>
      <ellipse id="Ellipse_154" data-name="Ellipse 154" cx="6.111" cy="18.834" rx="6.111" ry="18.834" transform="translate(2.046 8.334) rotate(-40)" fill="none" stroke="#ffffc4" stroke-miterlimit="10" stroke-width="2"/>
      <ellipse id="Ellipse_155" data-name="Ellipse 155" cx="18.834" cy="6.111" rx="18.834" ry="6.111" transform="translate(2.046 29.333) rotate(-50)" fill="none" stroke="#ffffc4" stroke-miterlimit="10" stroke-width="2"/>
      <circle id="Ellipse_156" data-name="Ellipse 156" cx="2.295" cy="2.295" r="2.295" transform="translate(16.538 16.538)" fill="#7cb1bd"/>
      <circle id="Ellipse_157" data-name="Ellipse 157" cx="1.331" cy="1.331" r="1.331" transform="translate(29.543 31.852)" fill="#7cb1bd"/>
      <circle id="Ellipse_158" data-name="Ellipse 158" cx="1.331" cy="1.331" r="1.331" transform="translate(11.658 11.685)" fill="#7cb1bd"/>
      <circle id="Ellipse_159" data-name="Ellipse 159" cx="1.331" cy="1.331" r="1.331" transform="translate(22.047 4.977)" fill="#7cb1bd"/>
    </g>
    <g id="Group_422" data-name="Group 422" transform="translate(36.454 28.201)">
      <g id="Group_420" data-name="Group 420" transform="translate(0 1.663)">
        <path id="Path_423" data-name="Path 423" d="M88.054-54.2l-9.537-4.257a4.021,4.021,0,0,1-2.033-5.311h0a4.021,4.021,0,0,1,5.31-2.032l9.538,4.258,1.638-3.672-9.78-4.366a8.042,8.042,0,0,0-10.621,4.065h0A8.042,8.042,0,0,0,76.635-54.89l9.78,4.366Z" transform="translate(-71.869 70.276)" fill="#4da0b3"/>
        <rect id="Rectangle_359" data-name="Rectangle 359" width="4.021" height="5.661" transform="translate(9.376 17.444) rotate(-65.945)" fill="#b86963"/>
        <rect id="Rectangle_360" data-name="Rectangle 360" width="4.021" height="5.661" transform="translate(14.293 6.43) rotate(-65.945)" fill="#b86963"/>
      </g>
      <g id="Group_421" data-name="Group 421" transform="translate(0.738)">
        <path id="Path_424" data-name="Path 424" d="M89.416-57.261l-9.538-4.258a4.021,4.021,0,0,1-2.032-5.31h0a4.02,4.02,0,0,1,5.31-2.033L92.693-64.6l1.639-3.671-9.78-4.366a8.041,8.041,0,0,0-10.621,4.066h0A8.041,8.041,0,0,0,78-57.956l9.78,4.366Z" transform="translate(-73.231 73.342)" fill="#7cb1bd"/>
        <rect id="Rectangle_361" data-name="Rectangle 361" width="4.021" height="5.661" transform="translate(9.377 17.444) rotate(-65.945)" fill="#c76963"/>
        <rect id="Rectangle_362" data-name="Rectangle 362" width="4.021" height="5.661" transform="translate(14.293 6.43) rotate(-65.945)" fill="#c76963"/>
      </g>
      <line id="Line_57" data-name="Line 57" x1="3.329" y2="1.274" transform="translate(23.467 3.602)" fill="none" stroke="#726d68" stroke-linecap="round" stroke-linejoin="round" stroke-width="1.3"/>
      <line id="Line_58" data-name="Line 58" x1="0.952" y1="3.075" transform="translate(21.345 9.924)" fill="none" stroke="#726d68" stroke-linecap="round" stroke-linejoin="round" stroke-width="1.3"/>
      <line id="Line_59" data-name="Line 59" x1="3.363" y1="1.501" transform="translate(22.976 7.64)" fill="none" stroke="#726d68" stroke-linecap="round" stroke-linejoin="round" stroke-width="1.3"/>
      <line id="Line_60" data-name="Line 60" x1="2.816" y2="1.078" transform="translate(18.499 15.2)" fill="none" stroke="#726d68" stroke-linecap="round" stroke-linejoin="round" stroke-width="1.3"/>
      <line id="Line_61" data-name="Line 61" x1="1.189" y1="3.107" transform="translate(16.133 21.319)" fill="none" stroke="#726d68" stroke-linecap="round" stroke-linejoin="round" stroke-width="1.3"/>
      <line id="Line_62" data-name="Line 62" x1="3.354" y1="1.512" transform="translate(18.177 19.125)" fill="none" stroke="#726d68" stroke-linecap="round" stroke-linejoin="round" stroke-width="1.3"/>
    </g>
    <g id="Group_425" data-name="Group 425" transform="translate(0 4.135)">
      <g id="Group_424" data-name="Group 424" transform="translate(0.001 20.412)">
        <circle id="Ellipse_160" data-name="Ellipse 160" cx="11.013" cy="11.013" r="11.013" transform="translate(0 3.556)" fill="#c76963"/>
        <path id="Path_425" data-name="Path 425" d="M25.213-76.711a27.719,27.719,0,0,0-1.267,7.776" transform="translate(-13.485 78.538)" fill="none" stroke="#6d8955" stroke-linecap="round" stroke-linejoin="round" stroke-width="1.3"/>
        <path id="Path_426" data-name="Path 426" d="M18.709-63.061a3.8,3.8,0,0,0,5.36-.276" transform="translate(-11.089 72.418)" fill="none" stroke="#e3a695" stroke-linecap="round" stroke-linejoin="round" stroke-width="1.3"/>
        <g id="Group_423" data-name="Group 423" transform="translate(4.806)">
          <path id="Path_427" data-name="Path 427" d="M14.389-73.308c-1.6-2.55-.3-4.755-.869-6.77l0,0c1.615,1.333,4.162,1.025,5.854,3.517a4,4,0,0,1-.4,4.821h0A4.013,4.013,0,0,1,14.389-73.308Z" transform="translate(-13.52 80.08)" fill="#6d8955"/>
          <path id="Path_428" data-name="Path 428" d="M13.526-80.08c1.615,1.333,4.162,1.025,5.854,3.517a4,4,0,0,1-.4,4.821h0a19.173,19.173,0,0,1-2.735-3.28A52.748,52.748,0,0,1,13.526-80.08Z" transform="translate(-13.523 80.08)" fill="#64804e"/>
        </g>
      </g>
      <line id="Line_63" data-name="Line 63" y1="13.003" transform="translate(0 10.418)" fill="none" stroke="#726d68" stroke-linecap="round" stroke-linejoin="round" stroke-width="1.3"/>
      <path id="Path_429" data-name="Path 429" d="M25.726-30.79a13.021,13.021,0,0,1-7.115,1.8c-4.444,0-6.418-1.8-6.418-1.8" transform="translate(-8.105 77.935)" fill="none" stroke="#726d68" stroke-linecap="round" stroke-linejoin="round" stroke-width="1.3"/>
      <line id="Line_64" data-name="Line 64" y1="10.714" transform="translate(9.494 7.399)" fill="none" stroke="#726d68" stroke-linecap="round" stroke-linejoin="round" stroke-width="1.3"/>
      <line id="Line_65" data-name="Line 65" y1="16.452" transform="translate(6.592)" fill="none" stroke="#726d68" stroke-linecap="round" stroke-linejoin="round" stroke-width="1.3"/>
    </g>
  </g>
</svg>
