<svg xmlns="http://www.w3.org/2000/svg" width="63.522" height="55.063" viewBox="0 0 63.522 55.063">
  <g id="pic_osn" data-name="pic osn" transform="translate(0)">
    <g id="Group_408" data-name="Group 408" transform="translate(0 0)">
      <g id="Group_402" data-name="Group 402" transform="translate(3.729)">
        <circle id="Ellipse_140" data-name="Ellipse 140" cx="27.531" cy="27.531" r="27.531" fill="#f0eeaa"/>
      </g>
      <g id="Group_403" data-name="Group 403" transform="translate(0 8.233)">
        <path id="Path_404" data-name="Path 404" d="M-462.774-110.323h.262a10.545,10.545,0,0,1,5.259,1.573,10.544,10.544,0,0,1,5.258-1.573h.262a5.979,5.979,0,0,1,5.979,5.979h0c0,5.885-8.829,11.932-11.434,12.866v.052c-.018-.006-.046-.019-.065-.026s-.047.02-.066.026v-.052c-2.6-.934-11.434-6.981-11.434-12.866h0A5.979,5.979,0,0,1-462.774-110.323Z" transform="translate(468.752 110.323)" fill="#c76963"/>
        <path id="Path_405" data-name="Path 405" d="M-431.026-99.3h-13.96l-2.157-6.2-1.073,12.4-1.912-6.2h-6.661" transform="translate(463.277 108.117)" fill="none" stroke="#d7a068" stroke-linecap="round" stroke-linejoin="round" stroke-width="0.75"/>
      </g>
      <g id="Group_404" data-name="Group 404" transform="translate(6.702 28.205)">
        <circle id="Ellipse_141" data-name="Ellipse 141" cx="4.666" cy="4.666" r="4.666" transform="translate(4.706)" fill="#95af90"/>
        <circle id="Ellipse_142" data-name="Ellipse 142" cx="5.674" cy="5.674" r="5.674" transform="translate(8.897 4.172)" fill="#8fa577"/>
        <circle id="Ellipse_143" data-name="Ellipse 143" cx="5.674" cy="5.674" r="5.674" transform="translate(0 3.203)" fill="#88a168"/>
        <rect id="Rectangle_351" data-name="Rectangle 351" width="11.151" height="1.32" rx="0.66" transform="translate(15.975 21.781) rotate(-180)" fill="#d1a4bc"/>
        <path id="Path_406" data-name="Path 406" d="M-455.737-53.462h20.086s.328,10.826-10.035,10.846h-.015C-456.065-42.636-455.737-53.462-455.737-53.462Z" transform="translate(456.094 64.329)" fill="#d1a4bc"/>
        <path id="Path_407" data-name="Path 407" d="M-450.232-64.216a2.516,2.516,0,0,1-2.037,2.966" transform="translate(454.506 69.251)" fill="none" stroke="#a2b990" stroke-linecap="round" stroke-linejoin="round" stroke-width="0.75"/>
        <path id="Path_408" data-name="Path 408" d="M-456.394-62.259a2.516,2.516,0,0,1,3.5.823" transform="translate(456.394 68.538)" fill="none" stroke="#a2b990" stroke-linecap="round" stroke-linejoin="round" stroke-width="0.75"/>
        <path id="Path_409" data-name="Path 409" d="M-426.8-60.781a2.516,2.516,0,0,1-3.342-1.332" transform="translate(444.383 68.288)" fill="none" stroke="#a2b990" stroke-linecap="round" stroke-linejoin="round" stroke-width="0.75"/>
        <path id="Path_410" data-name="Path 410" d="M-426.956-66.216A2.516,2.516,0,0,1-428.3-62.88" transform="translate(443.539 70.166)" fill="none" stroke="#a2b990" stroke-linecap="round" stroke-linejoin="round" stroke-width="0.75"/>
        <path id="Path_411" data-name="Path 411" d="M-438.67-69.6a1.719,1.719,0,0,1-2.375.638" transform="translate(449.37 71.713)" fill="none" stroke="#a4c19d" stroke-linecap="round" stroke-linejoin="round" stroke-width="0.75"/>
        <path id="Path_412" data-name="Path 412" d="M-439.021-70.8a1.72,1.72,0,0,1,.454-2.417" transform="translate(448.59 73.371)" fill="none" stroke="#a4c19d" stroke-linecap="round" stroke-linejoin="round" stroke-width="0.75"/>
      </g>
      <g id="Group_405" data-name="Group 405" transform="translate(26.38 11.648)">
        <rect id="Rectangle_352" data-name="Rectangle 352" width="7.686" height="3.866" transform="translate(11.136 3.866) rotate(-180)" fill="#a2d6dd"/>
        <rect id="Rectangle_353" data-name="Rectangle 353" width="6.299" height="3.724" transform="translate(10.443 5.728) rotate(-180)" fill="#a2d6dd"/>
        <path id="Path_413" data-name="Path 413" d="M-415.969-93.466h6.3l.156.312c2.229,5.09,3.989,3.551,3.989,8.606v23.693h-14.587V-84.548c0-5.055,1.563-3.422,3.988-8.606Z" transform="translate(420.113 99.194)" fill="#a2d6dd"/>
      </g>
      <g id="Group_406" data-name="Group 406" transform="translate(46.111 19.273)">
        <rect id="Rectangle_354" data-name="Rectangle 354" width="2.654" height="16.673" transform="translate(10.033 23.693) rotate(-180)" fill="#969696"/>
        <rect id="Rectangle_355" data-name="Rectangle 355" width="17.411" height="3.61" transform="translate(17.411 27.103) rotate(-180)" fill="#5f5f5f"/>
        <rect id="Rectangle_356" data-name="Rectangle 356" width="11.041" height="3.61" transform="translate(14.226 30.713) rotate(-180)" fill="#5f5f5f"/>
        <rect id="Rectangle_357" data-name="Rectangle 357" width="17.411" height="3.61" transform="translate(17.411 7.219) rotate(-180)" fill="#5f5f5f"/>
        <rect id="Rectangle_358" data-name="Rectangle 358" width="11.041" height="3.61" transform="translate(14.226 3.61) rotate(-180)" fill="#5f5f5f"/>
      </g>
      <g id="Group_407" data-name="Group 407" transform="translate(31.285 19.731)">
        <path id="Path_414" data-name="Path 414" d="M-411.07-68.944a11.748,11.748,0,0,0,4.69,9.4,3.393,3.393,0,0,0,2.045.676h10.061a3.393,3.393,0,0,0,2.045-.676,11.747,11.747,0,0,0,4.69-9.4,11.689,11.689,0,0,0-1.663-6.03,11.75,11.75,0,0,0-1.3-1.772V-82.2a6.919,6.919,0,0,0-6.091-6.87h0a6.926,6.926,0,0,0-.826-.049h-3.773a6.9,6.9,0,0,0-2.393.426h0a6.939,6.939,0,0,0-3.353,2.64A6.884,6.884,0,0,0-408.11-82.2v5.458A11.72,11.72,0,0,0-411.07-68.944Zm17.505-13.26v2.988a11.691,11.691,0,0,0-5.494-1.49c-.082,0-.164,0-.246,0l-.182,0-.181,0-.1,0c-.04,0-.079,0-.118,0-.1,0-.193.01-.29.018l-.144.011c-.127.011-.253.024-.38.04l-.19.024-.184.027c-.119.018-.238.038-.355.059l-.161.03h0c-.179.036-.358.074-.535.118a11.486,11.486,0,0,0-1.46.463h0a11.684,11.684,0,0,0-1.459.689V-82.2a3.85,3.85,0,0,1,1.46-3.019,3.841,3.841,0,0,1,2.394-.835h3.773a3.858,3.858,0,0,1,3.853,3.854Z" transform="translate(411.07 89.124)" fill="#7cb1bd"/>
        <ellipse id="Ellipse_144" data-name="Ellipse 144" cx="6.082" cy="4.545" rx="6.082" ry="4.545" transform="translate(5.683 14.541)" fill="#7ca0a9"/>
      </g>
    </g>
  </g>
</svg>
