<svg id="picture_bio" data-name="picture bio" xmlns="http://www.w3.org/2000/svg" width="68.759" height="60.069" viewBox="0 0 68.759 60.069">
  <g id="Group_193" data-name="Group 193" transform="translate(4.612 3.145)">
    <circle id="Ellipse_68" data-name="Ellipse 68" cx="27.531" cy="27.531" r="27.531" fill="#f0eeaa"/>
  </g>
  <g id="Group_196" data-name="Group 196" transform="translate(24.933 26.333)">
    <g id="Group_195" data-name="Group 195" transform="translate(0 0)">
      <g id="Group_194" data-name="Group 194" transform="translate(0)">
        <path id="Rectangle_269" data-name="Rectangle 269" d="M0,0H1.489a0,0,0,0,1,0,0V3.407a.744.744,0,0,1-.744.744h0A.744.744,0,0,1,0,3.407V0A0,0,0,0,1,0,0Z" transform="matrix(0.797, -0.605, 0.605, 0.797, 12.949, 26.315)" fill="#6d8955"/>
        <path id="Rectangle_270" data-name="Rectangle 270" d="M0,0H1.489a0,0,0,0,1,0,0V3.407a.744.744,0,0,1-.744.744h0A.744.744,0,0,1,0,3.407V0A0,0,0,0,1,0,0Z" transform="translate(17.266 22.703) rotate(-41.584)" fill="#6d8955"/>
        <path id="Rectangle_271" data-name="Rectangle 271" d="M0,0H1.489a0,0,0,0,1,0,0V3.407a.744.744,0,0,1-.744.744h0A.744.744,0,0,1,0,3.407V0A0,0,0,0,1,0,0Z" transform="translate(21.004 19.387) rotate(-41.584)" fill="#6d8955"/>
        <path id="Rectangle_272" data-name="Rectangle 272" d="M0,0H1.489a0,0,0,0,1,0,0V3.407a.744.744,0,0,1-.744.744h0A.744.744,0,0,1,0,3.407V0A0,0,0,0,1,0,0Z" transform="translate(25.219 15.495) rotate(-41.584)" fill="#6d8955"/>
        <path id="Rectangle_273" data-name="Rectangle 273" d="M.744,0h0a.744.744,0,0,1,.744.744V4.151a0,0,0,0,1,0,0H0a0,0,0,0,1,0,0V.744A.744.744,0,0,1,.744,0Z" transform="translate(5.339 13.018) rotate(-41.584)" fill="#6d8955"/>
        <path id="Rectangle_274" data-name="Rectangle 274" d="M.744,0h0a.744.744,0,0,1,.744.744V4.151a0,0,0,0,1,0,0H0a0,0,0,0,1,0,0V.744A.744.744,0,0,1,.744,0Z" transform="translate(9.153 9.634) rotate(-41.584)" fill="#6d8955"/>
        <path id="Rectangle_275" data-name="Rectangle 275" d="M.744,0h0a.744.744,0,0,1,.744.744V4.151a0,0,0,0,1,0,0H0a0,0,0,0,1,0,0V.744A.744.744,0,0,1,.744,0Z" transform="matrix(0.06, -0.998, 0.998, 0.06, 0, 22.49)" fill="#6d8955"/>
        <path id="Rectangle_276" data-name="Rectangle 276" d="M.744,0h0a.744.744,0,0,1,.744.744V4.151a0,0,0,0,1,0,0H0a0,0,0,0,1,0,0V.744A.744.744,0,0,1,.744,0Z" transform="translate(1.939 16.035) rotate(-41.584)" fill="#6d8955"/>
        <path id="Rectangle_277" data-name="Rectangle 277" d="M.744,0h0a.744.744,0,0,1,.744.744V4.151a0,0,0,0,1,0,0H0a0,0,0,0,1,0,0V.744A.744.744,0,0,1,.744,0Z" transform="translate(12.599 6.576) rotate(-41.584)" fill="#6d8955"/>
        <path id="Rectangle_278" data-name="Rectangle 278" d="M.744,0h0a.744.744,0,0,1,.744.744V4.151a0,0,0,0,1,0,0H0a0,0,0,0,1,0,0V.744A.744.744,0,0,1,.744,0Z" transform="translate(16.569 2.781) rotate(-41.584)" fill="#6d8955"/>
        <path id="Rectangle_279" data-name="Rectangle 279" d="M.744,0h0a.744.744,0,0,1,.744.744V4.151a0,0,0,0,1,0,0H0a0,0,0,0,1,0,0V.744A.744.744,0,0,1,.744,0Z" transform="matrix(0.972, -0.236, 0.236, 0.972, 20.865, 0.351)" fill="#6d8955"/>
        <path id="Rectangle_280" data-name="Rectangle 280" d="M0,0H1.489a0,0,0,0,1,0,0V3.407a.744.744,0,0,1-.744.744h0A.744.744,0,0,1,0,3.407V0A0,0,0,0,1,0,0Z" transform="translate(28.437 11.794) rotate(-69.514)" fill="#6d8955"/>
        <path id="Rectangle_281" data-name="Rectangle 281" d="M.744,0h0a.744.744,0,0,1,.744.744V4.151a0,0,0,0,1,0,0H0a0,0,0,0,1,0,0V.744A.744.744,0,0,1,.744,0Z" transform="translate(10.931 31.537) rotate(171.071)" fill="#6d8955"/>
        <path id="Rectangle_282" data-name="Rectangle 282" d="M.744,0h0a.744.744,0,0,1,.744.744V4.151a0,0,0,0,1,0,0H0a0,0,0,0,1,0,0V.744A.744.744,0,0,1,.744,0Z" transform="translate(27.294 0.896) rotate(32.601)" fill="#6d8955"/>
        <path id="Rectangle_283" data-name="Rectangle 283" d="M.744,0h0a.744.744,0,0,1,.744.744V4.151a0,0,0,0,1,0,0H0a0,0,0,0,1,0,0V.744A.744.744,0,0,1,.744,0Z" transform="translate(32.173 4.945) rotate(65.437)" fill="#6d8955"/>
        <path id="Rectangle_284" data-name="Rectangle 284" d="M.744,0h0a.744.744,0,0,1,.744.744V4.151a0,0,0,0,1,0,0H0a0,0,0,0,1,0,0V.744A.744.744,0,0,1,.744,0Z" transform="translate(3.853 29.488) rotate(-143.487)" fill="#6d8955"/>
      </g>
      <rect id="Rectangle_285" data-name="Rectangle 285" width="30.292" height="11.731" rx="5.866" transform="translate(1.393 21.556) rotate(-41.584)" fill="#6d8955"/>
      <path id="Path_188" data-name="Path 188" d="M-406.031-334.673l-11.775,5.382,13.787-12.233a4.657,4.657,0,0,1,.324.583A4.744,4.744,0,0,1-406.031-334.673Z" transform="translate(423.123 347.365)" fill="#64804e"/>
      <circle id="Ellipse_69" data-name="Ellipse 69" cx="1.681" cy="1.681" r="1.681" transform="translate(9.069 21.089)" fill="#80a165"/>
      <circle id="Ellipse_70" data-name="Ellipse 70" cx="2.933" cy="2.933" r="2.933" transform="translate(20.527 6.01)" fill="#79975f"/>
    </g>
  </g>
  <g id="Group_198" data-name="Group 198" transform="translate(0 6.873)">
    <g id="Group_197" data-name="Group 197">
      <circle id="Ellipse_71" data-name="Ellipse 71" cx="2.076" cy="2.076" r="2.076" transform="translate(15.442 29.915)" fill="#e2bbd0"/>
      <circle id="Ellipse_72" data-name="Ellipse 72" cx="2.076" cy="2.076" r="2.076" transform="translate(4.343 25.335)" fill="#e2bbd0"/>
      <circle id="Ellipse_73" data-name="Ellipse 73" cx="14.619" cy="14.619" r="14.619" transform="translate(2.628 2.301)" fill="#e2bbd0"/>
      <circle id="Ellipse_74" data-name="Ellipse 74" cx="2.076" cy="2.076" r="2.076" transform="translate(15.871)" fill="#e2bbd0"/>
      <circle id="Ellipse_75" data-name="Ellipse 75" cx="2.076" cy="2.076" r="2.076" transform="translate(4.343 4.535)" fill="#e2bbd0"/>
      <circle id="Ellipse_76" data-name="Ellipse 76" cx="2.076" cy="2.076" r="2.076" transform="translate(0 14.845)" fill="#e2bbd0"/>
      <circle id="Ellipse_77" data-name="Ellipse 77" cx="2.076" cy="2.076" r="2.076" transform="translate(25.671 25.335)" fill="#e2bbd0"/>
      <circle id="Ellipse_78" data-name="Ellipse 78" cx="2.076" cy="2.076" r="2.076" transform="translate(25.671 4.535)" fill="#e2bbd0"/>
      <circle id="Ellipse_79" data-name="Ellipse 79" cx="2.076" cy="2.076" r="2.076" transform="translate(30.013 14.845)" fill="#e2bbd0"/>
    </g>
    <circle id="Ellipse_80" data-name="Ellipse 80" cx="4.817" cy="4.817" r="4.817" transform="translate(7.264 17.778)" fill="#f2e1e8"/>
    <circle id="Ellipse_81" data-name="Ellipse 81" cx="6.362" cy="6.362" r="6.362" transform="translate(15.352 6.272)" fill="#cd9fb3"/>
  </g>
  <g id="Group_200" data-name="Group 200" transform="translate(37.884 19.82)">
    <path id="Path_189" data-name="Path 189" d="M-390.118-361.99a11.072,11.072,0,0,0-11.072,11.072,11.072,11.072,0,0,0,11.072,11.072,11.015,11.015,0,0,0,5.978-1.755,11.111,11.111,0,0,0,2.524-2.226,11.026,11.026,0,0,0,2.57-7.091A11.072,11.072,0,0,0-390.118-361.99Z" transform="translate(402.568 363.244)" fill="#b8dce3" opacity="0.45"/>
    <g id="Group_199" data-name="Group 199">
      <path id="Path_190" data-name="Path 190" d="M-358.585-317.87l-8.5-10.483a1.373,1.373,0,0,0-.148-.149,11.111,11.111,0,0,1-2.524,2.226c.014.018.023.039.037.057l8.5,10.483a1.447,1.447,0,0,0,2.03.213l.392-.317A1.448,1.448,0,0,0-358.585-317.87Z" transform="translate(388.18 347.919)" fill="#87bfd3"/>
      <path id="Path_191" data-name="Path 191" d="M-391.28-364.3a12.45,12.45,0,0,0-12.45,12.45,12.45,12.45,0,0,0,12.45,12.45,12.45,12.45,0,0,0,12.45-12.45A12.45,12.45,0,0,0-391.28-364.3Zm0,23.4a11.072,11.072,0,0,1-11.072-11.072,11.072,11.072,0,0,1,11.072-11.072,11.072,11.072,0,0,1,11.072,11.072A11.072,11.072,0,0,1-391.28-340.9Z" transform="translate(403.73 364.303)" fill="#7cb1bd"/>
      <path id="Path_192" data-name="Path 192" d="M-354.583-312.762l-4.711-5.833.356-.3-.749-.892-3.293,2.768.749.891.341-.286,4.673,5.785a1.7,1.7,0,0,0,2.384.25A1.7,1.7,0,0,0-354.583-312.762Z" transform="translate(385.081 343.93)" fill="#7cb1bd"/>
    </g>
  </g>
  <g id="Group_202" data-name="Group 202" transform="translate(19.443)">
    <path id="Path_193" data-name="Path 193" d="M-428.878-346.313v27.56a4.092,4.092,0,0,0,4.078,2.932,4.282,4.282,0,0,0,4.078-2.932v-27.56Z" transform="translate(433.68 375.89)" fill="#cff0ef"/>
    <path id="Path_194" data-name="Path 194" d="M-426.962-325.363v15.6a3.016,3.016,0,0,0,3.04,2.068,3.206,3.206,0,0,0,3.039-2.091v-15.578Z" transform="translate(432.803 366.302)" fill="#8ec9da"/>
    <path id="Path_195" data-name="Path 195" d="M-420.449-350.007H-432.13v2.3h11.683v-2.3Z" transform="translate(435.168 377.58)" fill="#b8e5e0"/>
    <g id="Group_201" data-name="Group 201">
      <line id="Line_5" data-name="Line 5" y1="29.197" transform="translate(9.078 18.738)" fill="#b8dce3" stroke="#64804e" stroke-linecap="round" stroke-linejoin="round" stroke-width="2"/>
      <path id="Path_196" data-name="Path 196" d="M-422.278-374.1a14.61,14.61,0,0,1,.7,4.588" transform="translate(430.66 388.608)" fill="none" stroke="#64804e" stroke-linecap="round" stroke-linejoin="round" stroke-width="2"/>
      <path id="Path_197" data-name="Path 197" d="M-418.236-362.6a14.828,14.828,0,0,0-2.757,4.341" transform="translate(430.072 383.343)" fill="none" stroke="#64804e" stroke-linecap="round" stroke-linejoin="round" stroke-width="2"/>
      <path id="Path_198" data-name="Path 198" d="M-413.2-377.44c4.482-2.453,8.083-.017,11.552-.78l0,.006c-2.422,2.6-2.161,6.942-6.553,9.553s-8.1-1.145-8.122-1.172h0v0h0C-416.331-369.872-417.694-374.98-413.2-377.44Z" transform="translate(428.026 390.65)" fill="#6d8955"/>
      <path id="Path_199" data-name="Path 199" d="M-401.475-377.918c-2.422,2.6-2.162,6.942-6.553,9.553s-8.1-1.145-8.122-1.172h0v0h0a32.565,32.565,0,0,1,5.834-4.3A89.43,89.43,0,0,1-401.475-377.918Z" transform="translate(427.857 390.353)" fill="#64804e"/>
      <path id="Path_200" data-name="Path 200" d="M-427.821-394.082c-2.511-4.45-6.855-4.283-9.4-6.764l-.007,0c.684,3.486-1.83,7.037.52,11.573s7.48,3.3,7.516,3.295h0C-429.159-386-425.3-389.619-427.821-394.082Z" transform="translate(437.732 400.846)" fill="#6d8955"/>
      <path id="Path_201" data-name="Path 201" d="M-437.224-400.84c.684,3.486-1.83,7.037.52,11.573s7.48,3.3,7.516,3.295h0a32.5,32.5,0,0,0-2.685-6.729A89.56,89.56,0,0,0-437.224-400.84Z" transform="translate(437.732 400.843)" fill="#64804e"/>
    </g>
  </g>
</svg>
