<svg id="pic_inf" data-name="pic inf" xmlns="http://www.w3.org/2000/svg" width="66.084" height="55.063" viewBox="0 0 66.084 55.063">
  <g id="Group_400" data-name="Group 400" transform="translate(0)">
    <g id="Group_399" data-name="Group 399" transform="translate(3.555)">
      <circle id="Ellipse_136" data-name="Ellipse 136" cx="27.531" cy="27.531" r="27.531" fill="#f0eeaa"/>
    </g>
    <path id="Path_393" data-name="Path 393" d="M99.209-183.436a61.089,61.089,0,0,0,9.3,1.385c5.53.426,5.11,2.207.977,2.135-11.317-.2-11.735,2.385-3.995,2.379" transform="translate(-47.145 225.432)" fill="none" stroke="#726d68" stroke-linecap="round" stroke-linejoin="round" stroke-width="1.2"/>
    <path id="Path_394" data-name="Path 394" d="M69.2-169.066s-5.588-.412-4.867-.92c2.158-1.521,9.059-2.251,17.179-.7,16.5,3.161,19.055-1.771,8.163-1.877" transform="translate(-31.157 220.454)" fill="none" stroke="#726d68" stroke-linecap="round" stroke-linejoin="round" stroke-width="1.2"/>
    <rect id="Rectangle_341" data-name="Rectangle 341" width="41.716" height="25.923" rx="2.435" transform="translate(9.311 13.427)" fill="#777479"/>
    <rect id="Rectangle_342" data-name="Rectangle 342" width="36.426" height="20.457" rx="1.413" transform="translate(11.956 15.34)" fill="#cff0ef"/>
    <path id="Path_395" data-name="Path 395" d="M63.554-185.726H3.215v-1.837l9.311-4.621H54.4l9.153,4.621Z" transform="translate(-3.215 229.435)" fill="#929297"/>
    <rect id="Rectangle_343" data-name="Rectangle 343" width="60.338" height="2.65" transform="translate(0 41.87)" fill="#777479"/>
    <rect id="Rectangle_344" data-name="Rectangle 344" width="31.691" height="2.225" rx="0.975" transform="translate(14.537 31.5)" fill="#cfa6bd"/>
    <rect id="Rectangle_345" data-name="Rectangle 345" width="31.691" height="2.225" rx="0.975" transform="translate(14.392 20.557)" fill="#7cb1bd"/>
    <rect id="Rectangle_346" data-name="Rectangle 346" width="15.119" height="2.482" rx="1.087" transform="translate(31.11 27.651)" fill="#cfa6bd"/>
    <rect id="Rectangle_347" data-name="Rectangle 347" width="15.119" height="2.482" rx="1.087" transform="translate(14.537 23.898)" fill="#eec9de"/>
    <rect id="Rectangle_348" data-name="Rectangle 348" width="11.436" height="2.482" rx="1.087" transform="translate(14.731 28.665)" fill="#eec9de"/>
    <rect id="Rectangle_349" data-name="Rectangle 349" width="11.436" height="2.482" rx="1.087" transform="translate(34.489 17.289)" fill="#7cb1bd"/>
    <path id="Path_396" data-name="Path 396" d="M18.838-187.154a1.333,1.333,0,0,0-1.321-1.16,1.332,1.332,0,0,0-1.321,1.16Z" transform="translate(-9.156 227.664)" fill="#818183"/>
    <path id="Path_397" data-name="Path 397" d="M26.306-187.154a1.332,1.332,0,0,0-1.321-1.16,1.332,1.332,0,0,0-1.321,1.16Z" transform="translate(-12.573 227.664)" fill="#818183"/>
    <path id="Path_398" data-name="Path 398" d="M33.7-187.154a1.333,1.333,0,0,0-1.321-1.16,1.332,1.332,0,0,0-1.321,1.16Z" transform="translate(-15.955 227.664)" fill="#818183"/>
    <path id="Path_399" data-name="Path 399" d="M99.138-186.68a1.333,1.333,0,0,0-1.321-1.16,1.333,1.333,0,0,0-1.321,1.16Z" transform="translate(-45.904 227.447)" fill="#818183"/>
    <path id="Path_400" data-name="Path 400" d="M87.334-189.619a1.333,1.333,0,0,0-1.321-1.16,1.333,1.333,0,0,0-1.321,1.16Z" transform="translate(-40.502 228.792)" fill="#818183"/>
    <path id="Path_401" data-name="Path 401" d="M95.063-189.619a1.333,1.333,0,0,0-1.321-1.16,1.333,1.333,0,0,0-1.321,1.16Z" transform="translate(-44.039 228.792)" fill="#818183"/>
    <path id="Path_402" data-name="Path 402" d="M90.58-186.68a1.332,1.332,0,0,0-1.321-1.16,1.333,1.333,0,0,0-1.321,1.16Z" transform="translate(-41.987 227.447)" fill="#818183"/>
    <rect id="Rectangle_350" data-name="Rectangle 350" width="11.504" height="1.052" transform="translate(35.417 52.44)" fill="#777479"/>
    <ellipse id="Ellipse_137" data-name="Ellipse 137" cx="5.752" cy="1.052" rx="5.752" ry="1.052" transform="translate(35.417 52.44)" fill="#777479"/>
    <ellipse id="Ellipse_138" data-name="Ellipse 138" cx="5.752" cy="1.052" rx="5.752" ry="1.052" transform="translate(35.417 51.388)" fill="#929297"/>
    <path id="Path_403" data-name="Path 403" d="M80.021-165.9c-.22-1.1-2.7-1.975-5.752-1.975s-5.532.872-5.752,1.975Z" transform="translate(-33.1 218.312)" fill="#929297"/>
    <circle id="Ellipse_139" data-name="Ellipse 139" cx="0.516" cy="0.516" r="0.516" transform="translate(29.653 13.9)" fill="#818183"/>
  </g>
</svg>
