<svg id="pic_eng" data-name="pic eng" xmlns="http://www.w3.org/2000/svg" width="58.992" height="60.938" viewBox="0 0 58.992 60.938">
  <g id="Group_463" data-name="Group 463" transform="translate(0 0)">
    <g id="Group_455" data-name="Group 455" transform="translate(1.766 3.239)">
      <circle id="Ellipse_174" data-name="Ellipse 174" cx="27.531" cy="27.531" r="27.531" fill="#f0eeaa"/>
    </g>
    <path id="Path_459" data-name="Path 459" d="M-158.392,81.587a3.061,3.061,0,0,0,1.274-2.5,1.88,1.88,0,0,1,.474-1.079c.161-.182.429-.232.6-.439.19-.241.2-.565.37-.807.675-.945,1.91-.409,2.651-1.234.319-.355.24-.918.44-1.365s.7-.878-.2-.526c-.475.2-.747.75-1.276.958a1.636,1.636,0,0,1-1.512-.152,2.484,2.484,0,0,0-2.526.231c-.646.393-.719.45-1.188-.241-.4-.591-.4-.816.076-1.333.949-1.033,2.507-1.6,1.705-3.3-.318-.686-1.372-.662-1.541-1.151-.072-.213.277-.514.215-.835-.06-.271-.591-.565-.542-.859.11-.71,1.687-.583,2.128-.553a3.368,3.368,0,0,0,2.218-.593c-.08-.564-.506-1-.478-1.6.04-.567.509-.917-.056-1.434-.387-.345-1-.22-1.426-.554a2.271,2.271,0,0,1-.752-1.343c-.034-.51.609-1.118-.221-1.354-.431-.123-1.072.389-1.421.578-.8.431-2.258,1.351-2.5-.156-.174-1.058.257-2.539-.553-3.443-.995.26-.693,3.719-1.9,2.455a1.338,1.338,0,0,1-.158-1.526c.33-.88.4-.978-.217-1.78s-2.231-1.29-2.13-2.514c.059-.708.583-.974.265-1.755-.281-.68-1.48-1.037-.879-1.786.574-.718,1.588.259,2.161-.475.515-.651-.362-1.711.248-2.361.164-.834-.454-1.7.485-2.194.426-.222.972-.093,1.46-.217a6.561,6.561,0,0,0,1.382-.617c1.029-.548,2.042-.246,1.242,1.079-.486.8-1.629,1.635-1.371,2.673.493,1.986,3.47-1.451,4.777-.459,1.084.818.556,2.472.21,3.465a10.189,10.189,0,0,0-.528,1.828,1.726,1.726,0,0,0,.074.809c.07.387.232.75.046,1.093-.222.406-1.5.453-.673,1.143.5.42,1.912-.15,2.5-.127,1.772.073,1.721,1.582,2.463,2.793a4.47,4.47,0,0,0,1.59,1.4c.659.337,1.451.247,2.078.67,1.066.723.912,2.089,1.576,3.09.372.544.978.849,1.188,1.541.107.358-.108,1.4.4,1.553.227.068,1.3-.614,1.6-.686.85-.191,1.25-.173,1.736.517a3.379,3.379,0,0,1,.569,2.543c-.267.932-1.76,1.6-1.762,2.607-.008,1.46,2.693.927,1.458,2.617-1.313,1.8-3.772,1.164-5.361,2.136-.77.468-1.386,1.347-2.309,1.6-.667.178-.94-.28-1.59-.1a4.256,4.256,0,0,0-1.257.671c-.491.422-.32.546-.441,1.123-.218,1.071-.505.412-1.335.479-1.422.11-1.333,1.6-2.334,2.206C-157.55,82.215-158.338,82.295-158.392,81.587Z" transform="translate(200.195 -21.209)" fill="#6d8955"/>
    <path id="Path_460" data-name="Path 460" d="M-182.414,22.8c-1.047.532-2.019,1.019-2.282-.042-.259-1.039.885-1.873,1.371-2.673.8-1.325-.213-1.627-1.242-1.079a6.56,6.56,0,0,1-1.382.617c-.487.125-1.033,0-1.46.217-.939.49-.321,1.361-.485,2.195-.61.65.266,1.71-.248,2.361-.573.734-1.587-.242-2.161.475-.6.749.6,1.106.879,1.786.318.781-.206,1.047-.265,1.755-.1,1.224,1.507,1.7,2.13,2.514s.547.9.217,1.78a1.337,1.337,0,0,0,.158,1.526c1.2,1.264.9-2.194,1.9-2.455.81.905.38,2.385.554,3.444.225,1.4,1.5.706,2.32.254Z" transform="translate(210.656 -9.898)" fill="#6d8955"/>
    <g id="Group_458" data-name="Group 458" transform="translate(39.991 8.521)">
      <g id="Group_457" data-name="Group 457" transform="translate(0 12.543)">
        <path id="Path_461" data-name="Path 461" d="M-152.206,41.272v6.5c0,3.163,2.518,5.457,5.988,5.457h3.43c3.47,0,5.988-2.295,5.988-5.457v-6.5Z" transform="translate(153.154 -41.272)" fill="#7cb1bd"/>
        <path id="Path_462" data-name="Path 462" d="M-122.165,42.815H-123.8V44.03h.913c.312,0,.565.158.565.354V46c0,.589-.551,1.135-1.478,1.521V49.06c1.66-.692,2.646-1.669,2.646-2.724V43.45C-121.154,43.1-121.607,42.815-122.165,42.815Z" transform="translate(140.154 -41.978)" fill="#a2d6dd"/>
        <g id="Group_456" data-name="Group 456" transform="translate(0 11.336)">
          <rect id="Rectangle_366" data-name="Rectangle 366" width="17.302" height="1.436" rx="0.718" fill="#a2d6dd"/>
        </g>
      </g>
      <path id="Path_463" data-name="Path 463" d="M-140.119,18.145s-3.6,3.259-.107,6.876a3.072,3.072,0,0,1-.062,4.39" transform="translate(148.369 -18.145)" fill="none" stroke="#7cb1bd" stroke-linecap="round" stroke-linejoin="round" stroke-width="1.5"/>
      <path id="Path_464" data-name="Path 464" d="M-135.544,23.373c-.674,1.311-.275,2.294,1.347,4.04.874.942.856,2.939-.492,4.39" transform="translate(145.672 -20.538)" fill="none" stroke="#7cb1bd" stroke-linecap="round" stroke-linejoin="round" stroke-width="1.5"/>
    </g>
    <g id="Group_459" data-name="Group 459" transform="translate(25.566)">
      <path id="Path_465" data-name="Path 465" d="M-178.111,57.177V86.3c.8.067,1.6.11,2.409.11.327,0,.649-.014.973-.025v-25.7h2.639V86.174q1.3-.168,2.571-.451V60.683h2.639V84.995a27.954,27.954,0,0,0,3.381-1.357V57.177Z" transform="translate(179.434 -27.486)" fill="#dba948"/>
      <path id="Path_466" data-name="Path 466" d="M-173.67,111.06h.973v-.025C-173.021,111.046-173.344,111.06-173.67,111.06Z" transform="translate(177.402 -52.133)" fill="#dba948"/>
      <path id="Path_467" data-name="Path 467" d="M-159.632,63.642h-2.639v25.04q1.345-.3,2.639-.728Z" transform="translate(172.185 -30.445)" fill="#edbf63"/>
      <path id="Path_468" data-name="Path 468" d="M-169.237,63.642h-2.639v25.7q1.337-.046,2.639-.214Z" transform="translate(176.581 -30.445)" fill="#edbf63"/>
      <rect id="Rectangle_367" data-name="Rectangle 367" width="8.455" height="3.473" transform="translate(4.402 6.541)" fill="#dba948"/>
      <path id="Path_469" data-name="Path 469" d="M-166.888,5.2V2.433h-2.639V5.2l-.057.074-2.851,3.7h8.455Z" transform="translate(176.837 -2.433)" fill="#7c7779"/>
      <path id="Path_470" data-name="Path 470" d="M-165.418,20.9h-10.159v4.155h11.864V20.9Z" transform="translate(178.275 -10.883)" fill="#7c7779"/>
      <path id="Path_471" data-name="Path 471" d="M-166.941,41.974l-.131.385-1.093,1.423,1.09.837,1.509-1.964V39.677h-1.374Z" transform="translate(174.883 -19.477)" fill="#4d4d4d"/>
      <path id="Path_472" data-name="Path 472" d="M-165.99,28.557h-14.561V45.815h17.258V28.557Zm-5.932,14.021a5.4,5.4,0,0,1-5.392-5.392,5.4,5.4,0,0,1,5.392-5.391,5.4,5.4,0,0,1,5.392,5.391A5.4,5.4,0,0,1-171.922,42.578Z" transform="translate(180.551 -14.388)" fill="#dba948"/>
      <path id="Path_473" data-name="Path 473" d="M-169.19,34.527a5.4,5.4,0,0,0-5.392,5.391,5.4,5.4,0,0,0,5.392,5.392,5.4,5.4,0,0,0,5.392-5.392A5.4,5.4,0,0,0-169.19,34.527Zm.687,5.771-1.509,1.964-1.09-.837L-170.008,40l.131-.386v-2.3h1.374Z" transform="translate(177.819 -17.121)" fill="#fff"/>
    </g>
    <g id="Group_460" data-name="Group 460" transform="translate(0 19.06)">
      <circle id="Ellipse_175" data-name="Ellipse 175" cx="4.182" cy="4.182" r="4.182" transform="translate(4.153)" fill="#5d5d5d"/>
      <path id="Path_474" data-name="Path 474" d="M-202.437,62.084a3.546,3.546,0,0,0-.29,3.289c.081.194.175.393.28.59,1.476,2.8,5.636,3.826,8.368,2.879a10.41,10.41,0,0,0,5.137-4.694,9.518,9.518,0,0,1-2.419.4c-.813,0-1.594-.635-2.583-1.437-1.433-1.163-3.216-2.61-5.614-2.61l-.108,0A3.379,3.379,0,0,0-202.437,62.084Z" transform="translate(216.391 -48.069)" fill="#5f5f5f"/>
      <path id="Path_475" data-name="Path 475" d="M-227.689,64.149a10.411,10.411,0,0,0,5.137,4.693,6.71,6.71,0,0,0,2.183.343c2.41,0,5.067-1.1,6.186-3.222.1-.2.2-.4.279-.59a3.545,3.545,0,0,0-.29-3.289,3.378,3.378,0,0,0-2.77-1.578l-.108,0c-2.4,0-4.181,1.447-5.614,2.61-.989.8-1.77,1.437-2.583,1.437A9.542,9.542,0,0,1-227.689,64.149Z" transform="translate(227.689 -48.069)" fill="#5f5f5f"/>
      <circle id="Ellipse_176" data-name="Ellipse 176" cx="3.066" cy="3.066" r="3.066" transform="translate(5.27 1.116)" fill="#cff0ef"/>
      <path id="Path_476" data-name="Path 476" d="M-219.434,44.072a.533.533,0,0,0-.533.533v8.188a.533.533,0,0,0,.533.533.533.533,0,0,0,.533-.533V44.605A.533.533,0,0,0-219.434,44.072Z" transform="translate(224.155 -40.549)" fill="#5f5f5f"/>
    </g>
    <g id="Group_462" data-name="Group 462" transform="translate(6.597 38.248)">
      <g id="Group_461" data-name="Group 461" transform="translate(0.022)">
        <path id="Path_477" data-name="Path 477" d="M-214.278,80.072c-.041.068-.086.134-.125.2h8.5l-4.217-4.217c-.145.087-.2.121-.27.152a3.958,3.958,0,0,1-4.348-3.256S-216.691,77.281-214.278,80.072Z" transform="translate(215.486 -72.954)" fill="#a2d6dd"/>
        <path id="Path_478" data-name="Path 478" d="M-198.128,108.688V103.1l-4.27,4.292A18.494,18.494,0,0,0-198.128,108.688Z" transform="translate(209.496 -86.749)" fill="#a2d6dd"/>
        <path id="Path_479" data-name="Path 479" d="M-173.082,104.608a11.076,11.076,0,0,0,4.173-4.81h-8.968Z" transform="translate(198.275 -85.239)" fill="#a2d6dd"/>
        <path id="Path_480" data-name="Path 480" d="M-214.362,99.8a11.077,11.077,0,0,0,4.18,4.814l4.789-4.814Z" transform="translate(214.971 -85.239)" fill="#a2d6dd"/>
        <path id="Path_481" data-name="Path 481" d="M-197.571,74.617a18.671,18.671,0,0,0-3.61,1.019l3.61,3.609Z" transform="translate(208.939 -73.715)" fill="#a2d6dd"/>
        <path id="Path_482" data-name="Path 482" d="M-181.179,103.1v5.589a18.486,18.486,0,0,0,4.277-1.3Z" transform="translate(199.786 -86.749)" fill="#a2d6dd"/>
        <path id="Path_483" data-name="Path 483" d="M-181.179,74.617v4.628l3.592-3.617A18.721,18.721,0,0,0-181.179,74.617Z" transform="translate(199.786 -73.715)" fill="#a2d6dd"/>
        <path id="Path_484" data-name="Path 484" d="M-169.382,82.884a11.916,11.916,0,0,0-4.3-4.229l-4.2,4.229Z" transform="translate(198.275 -75.563)" fill="#a2d6dd"/>
      </g>
      <path id="Path_485" data-name="Path 485" d="M-202.414,96.891h-12.821a8.273,8.273,0,0,0,.485,1.578h8.968l-4.789,4.814a15.654,15.654,0,0,0,2.31,1.269l4.269-4.292v5.589q.774.137,1.578.216Z" transform="translate(215.393 -83.908)" fill="#fff"/>
      <path id="Path_486" data-name="Path 486" d="M-184.067,96.891v9.173q.8-.079,1.578-.216v-5.589l4.276,4.289a15.655,15.655,0,0,0,2.31-1.27l-4.8-4.81h8.968a8.313,8.313,0,0,0,.485-1.578Z" transform="translate(201.129 -83.908)" fill="#fff"/>
      <path id="Path_487" data-name="Path 487" d="M-202.2,82.433V74.22q-.8.079-1.578.216v4.628l-3.61-3.609a16.232,16.232,0,0,0-2.4,1.183l4.217,4.217h-8.5a8.809,8.809,0,0,0-.7,1.578Z" transform="translate(215.177 -73.533)" fill="#fff"/>
      <path id="Path_488" data-name="Path 488" d="M-184.067,82.433H-171.5a8.783,8.783,0,0,0-.7-1.578h-8.5l4.2-4.229a16.219,16.219,0,0,0-2.4-1.179l-3.592,3.617V74.436q-.774-.138-1.578-.216Z" transform="translate(201.129 -73.533)" fill="#fff"/>
      <path id="Path_489" data-name="Path 489" d="M-202.547,95.6c.668.066,1.349.1,2.042.1s1.373-.036,2.041-.1V86.43h12.822a7.951,7.951,0,0,0,.157-1.561,8.01,8.01,0,0,0-.413-2.521h-12.566V74.134c-.668-.065-1.349-.1-2.041-.1s-1.374.037-2.042.1v8.213h-12.566a8.01,8.01,0,0,0-.413,2.521,7.951,7.951,0,0,0,.158,1.561h12.821Z" transform="translate(215.526 -73.447)" fill="#c76963"/>
    </g>
  </g>
</svg>
