<svg id="pic_nach" data-name="pic nach" xmlns="http://www.w3.org/2000/svg" width="66.85" height="62.178" viewBox="0 0 66.85 62.178">
  <g id="Group_410" data-name="Group 410" transform="translate(6.227 6.033)">
    <circle id="Ellipse_145" data-name="Ellipse 145" cx="27.531" cy="27.531" r="27.531" fill="#cff0ef"/>
  </g>
  <g id="Group_411" data-name="Group 411" transform="translate(12.543)">
    <path id="Path_415" data-name="Path 415" d="M-173.8-87.3a4.32,4.32,0,0,1-.113,2.038l-3.555-4.9a2.018,2.018,0,0,1,.431-.137C-175.591-90.56-174.142-89.217-173.8-87.3Z" transform="translate(195.942 112.162)" fill="none"/>
    <path id="Path_416" data-name="Path 416" d="M-180.423-83.461a4.561,4.561,0,0,1-.05-.509l2.707,3.523A3.436,3.436,0,0,1-180.423-83.461Z" transform="translate(197.316 109.249)" fill="none"/>
    <path id="Path_417" data-name="Path 417" d="M-195.418-97.19c.69-3.167,2.787-3.374,4.544-3.589l3.351,4.36a4.574,4.574,0,0,0,.05.509,3.436,3.436,0,0,0,2.657,3.014,2.028,2.028,0,0,0,.581-.015,2.562,2.562,0,0,0,1.9-1.892,4.321,4.321,0,0,0,.113-2.038c-.339-1.913-1.788-3.256-3.237-3a1.988,1.988,0,0,0-.431.137l-2.267-3.123c.133-2.451-2.216-6.359,4.384-8.015,8.149-2.043,16.438,5.575,18.238,15.729,1.223,6.9-.811,13.446-4.83,17.4a13.985,13.985,0,0,1-1.845,1.519,12.7,12.7,0,0,1-5.044,2.118C-185.529-72.6-193.7-79.645-195.5-89.8A16.41,16.41,0,0,1-195.418-97.19Z" transform="translate(204.365 121.698)" fill="#fff"/>
    <path id="Path_418" data-name="Path 418" d="M-211.524-130.579s1.97,2.913,4.46,3.121c5.049.422,7.427,4.487,5.734,7.342l0,0,5.619,7.743v0l2.438,3.359,0,0,3.808,5.247a2.747,2.747,0,0,1-2.033,2.029,2.2,2.2,0,0,1-.623.016l-2.9-3.774s0,.007,0,.011l-3.6-4.69h.009l-5.881-7.654-.01,0c-3.549.912-5.814-3.073-6.281-4.924A36.305,36.305,0,0,1-211.524-130.579Z" transform="translate(211.527 130.579)" fill="#e5b75b"/>
    <circle id="Ellipse_146" data-name="Ellipse 146" cx="2.391" cy="2.391" r="2.391" transform="translate(25.702 16.57)" fill="#7cb1bd"/>
    <circle id="Ellipse_147" data-name="Ellipse 147" cx="2.391" cy="2.391" r="2.391" transform="translate(19.51 13.296)" fill="#fe9aab"/>
  </g>
  <text id="_б" data-name=" б" transform="translate(23.506 53.178)" fill="#7cb1bd" font-size="31" font-family="OpenSans-Bold, Open Sans" font-weight="700" letter-spacing="0.03em"><tspan x="0" y="0" xml:space="preserve"> б</tspan></text>
  <g id="Group_412" data-name="Group 412" transform="translate(0 36.904)">
    <circle id="Ellipse_148" data-name="Ellipse 148" cx="8.201" cy="8.201" r="8.201" transform="translate(0 2.204)" fill="#e5b75b"/>
    <path id="Path_419" data-name="Path 419" d="M-217.315-52.725A8.2,8.2,0,0,0-227.6-58.077a8.154,8.154,0,0,0-4.18,3.036,8.17,8.17,0,0,1,2.682-1.446,8.2,8.2,0,0,1,10.289,5.352,8.177,8.177,0,0,1-1.172,7.253A8.2,8.2,0,0,0-217.315-52.725Z" transform="translate(233.34 60.671)" fill="#efcb68"/>
    <path id="Path_420" data-name="Path 420" d="M-228.645-62.537s-2.227,2.578.292,4.8" transform="translate(232.319 62.537)" fill="none" stroke="#a2b990" stroke-linecap="round" stroke-linejoin="round" stroke-width="1"/>
  </g>
  <g id="Group_413" data-name="Group 413" transform="translate(10.02 25.235)">
    <path id="Path_421" data-name="Path 421" d="M-206.9-61.485l-2.162,7.793h-7.117l9.279-30.361h9.008l9.414,30.361h-7.387l-2.342-7.793Zm7.7-5.135-1.891-6.442c-.541-1.8-1.082-4.054-1.532-5.856h-.09c-.451,1.8-.9,4.1-1.4,5.856l-1.8,6.442Z" transform="translate(216.178 84.052)" fill="#c76963"/>
  </g>
  <g id="Group_416" data-name="Group 416" transform="translate(48.618 14.468)">
    <g id="Group_414" data-name="Group 414" transform="translate(8.292)">
      <ellipse id="Ellipse_149" data-name="Ellipse 149" cx="3.053" cy="2.226" rx="3.053" ry="2.226" transform="translate(0 6.405)" fill="#86ab6a"/>
      <line id="Line_55" data-name="Line 55" y1="8.562" transform="translate(5.534 0.211)" fill="#86ab6a" stroke="#86ab6a" stroke-linecap="round" stroke-linejoin="round" stroke-width="1"/>
      <path id="Path_422" data-name="Path 422" d="M-119.52-103.9a1.914,1.914,0,0,0,1.308,1.695c.855.331,1.762-.087,2.408.937" transform="translate(125.054 103.904)" fill="none" stroke="#86ab6a" stroke-linecap="round" stroke-linejoin="round" stroke-width="1"/>
    </g>
    <g id="Group_415" data-name="Group 415" transform="translate(0 13.207)">
      <ellipse id="Ellipse_150" data-name="Ellipse 150" cx="3.053" cy="2.226" rx="3.053" ry="2.226" transform="translate(1.228)" fill="#86ab6a"/>
      <line id="Line_56" data-name="Line 56" x1="8.562" transform="translate(0 2.226)" fill="#86ab6a" stroke="#86ab6a" stroke-linecap="round" stroke-linejoin="round" stroke-width="1"/>
    </g>
  </g>
</svg>
