<svg xmlns="http://www.w3.org/2000/svg" width="69.43" height="55.063" viewBox="0 0 69.43 55.063">
  <g id="picture_litra" data-name="picture litra" transform="translate(1)">
    <g id="Group_204" data-name="Group 204" transform="translate(7.283)">
      <ellipse id="Ellipse_82" data-name="Ellipse 82" cx="27.712" cy="27.531" rx="27.712" ry="27.531" fill="#cff0ef"/>
    </g>
    <g id="Group_207" data-name="Group 207" transform="translate(3.13 9.917)">
      <rect id="Rectangle_286" data-name="Rectangle 286" width="7.155" height="35.621" transform="translate(32.096 40.502) rotate(-180)" fill="#8ec9da"/>
      <rect id="Rectangle_287" data-name="Rectangle 287" width="10.909" height="40.502" transform="translate(24.218 40.502) rotate(-180)" fill="#d1a4bc"/>
      <rect id="Rectangle_288" data-name="Rectangle 288" width="5.056" height="23.041" transform="translate(4.711 39.639) rotate(-158.728)" fill="#95af90"/>
      <g id="Group_205" data-name="Group 205" transform="translate(24.94 33.076)">
        <rect id="Rectangle_289" data-name="Rectangle 289" width="7.155" height="1.875" fill="#fff"/>
      </g>
      <g id="Group_206" data-name="Group 206" transform="translate(24.94 11.125)">
        <rect id="Rectangle_290" data-name="Rectangle 290" width="7.155" height="1.875" fill="#fff"/>
      </g>
    </g>
    <line id="Line_6" data-name="Line 6" x1="67.43" transform="translate(0 50.419)" fill="none" stroke="#878787" stroke-linecap="round" stroke-linejoin="round" stroke-width="2"/>
    <g id="Group_208" data-name="Group 208" transform="translate(34.367 21.984)">
      <path id="Path_202" data-name="Path 202" d="M-173.359-323.5h21.541a4.193,4.193,0,0,1,4.193,4.194v.8a4.193,4.193,0,0,1-4.193,4.193h-21.541Zm0,9.19" transform="translate(176.349 340.964)" fill="#ffffc4"/>
      <path id="Path_203" data-name="Path 203" d="M-165.968-331.471a1.264,1.264,0,0,1-1.263-1.264v-3.906a1.263,1.263,0,0,1,1.263-1.264h24.47v6.434Zm0,0" transform="translate(173.544 347.555)" fill="#ffffc4"/>
      <rect id="Rectangle_291" data-name="Rectangle 291" width="23.436" height="6.893" transform="translate(1.391 1.379)" fill="#ffffc4"/>
      <path id="Path_204" data-name="Path 204" d="M-174.158-314.168a.919.919,0,0,1-.919-.919.919.919,0,0,1,.919-.919h21.138a3.681,3.681,0,0,0,3.677-3.676,3.681,3.681,0,0,0-3.677-3.676h-21.138a.919.919,0,0,1-.919-.919.919.919,0,0,1,.919-.919h21.138a5.52,5.52,0,0,1,5.514,5.514,5.52,5.52,0,0,1-5.514,5.514Zm0,0" transform="translate(177.135 341.739)" fill="#95af90"/>
      <path id="Path_205" data-name="Path 205" d="M-165.8-331.4a2.3,2.3,0,0,1-2.3-2.3v-2.757a2.3,2.3,0,0,1,2.3-2.3h24.355a.459.459,0,0,1,.459.459.459.459,0,0,1-.459.459H-165.8a1.38,1.38,0,0,0-1.379,1.379v2.757a1.38,1.38,0,0,0,1.379,1.379h24.355a.459.459,0,0,1,.459.459.459.459,0,0,1-.459.459Zm0,0" transform="translate(173.943 347.943)" fill="#8ec9da"/>
      <path id="Path_206" data-name="Path 206" d="M-176.306-350.614h21.138a.459.459,0,0,1,.459.459.459.459,0,0,1-.459.459h-21.138Zm0,.919" transform="translate(177.697 353.371)" fill="#e9d89f"/>
      <path id="Path_207" data-name="Path 207" d="M-176.736-346.378H-155.6a.46.46,0,0,1,.459.459.46.46,0,0,1-.459.46h-21.138Zm0,.919" transform="translate(177.894 351.433)" fill="#e9d89f"/>
      <path id="Path_208" data-name="Path 208" d="M-140.335-334.444h-23.9a.459.459,0,0,1-.459-.459.459.459,0,0,1,.459-.459h23.9Zm0-.919" transform="translate(172.381 346.392)" fill="#e9d89f"/>
      <path id="Path_209" data-name="Path 209" d="M-140.335-329.361h-23.9a.46.46,0,0,1-.459-.459.46.46,0,0,1,.459-.46h23.9Zm0-.919" transform="translate(172.381 344.066)" fill="#e9d89f"/>
      <path id="Path_210" data-name="Path 210" d="M-177.952-346.507a.919.919,0,0,1-.919-.919.919.919,0,0,1,.919-.919h22.057a.92.92,0,0,0,.919-.919v-3.676a.92.92,0,0,0-.919-.919h-22.057a.919.919,0,0,1-.919-.919.919.919,0,0,1,.919-.919h22.057a2.76,2.76,0,0,1,2.757,2.757v3.676a2.76,2.76,0,0,1-2.757,2.757Zm0,0" transform="translate(178.871 355.698)" fill="#d1a4bc"/>
      <path id="Path_211" data-name="Path 211" d="M-173.359-311.173v.919h21.138a.459.459,0,0,0,.46-.459.459.459,0,0,0-.46-.459Zm21.138,0" transform="translate(176.349 335.322)" fill="#e9d89f"/>
      <path id="Path_212" data-name="Path 212" d="M-173.359-315.877v.919h21.138a.459.459,0,0,0,.46-.46.46.46,0,0,0-.46-.459Zm21.138,0" transform="translate(176.349 337.475)" fill="#e9d89f"/>
      <path id="Path_213" data-name="Path 213" d="M-173.359-320.112v.919h21.138a.459.459,0,0,0,.46-.459.459.459,0,0,0-.46-.459Zm21.138,0" transform="translate(176.349 339.413)" fill="#e9d89f"/>
    </g>
    <g id="Group_209" data-name="Group 209" transform="translate(18.252 13.411)">
      <path id="Path_214" data-name="Path 214" d="M-201.051-365.9a2.213,2.213,0,0,1,.473,1.434,3.3,3.3,0,0,1-.568,1.857,3.981,3.981,0,0,1-1.61,1.371,5.369,5.369,0,0,1-2.393.511,4.082,4.082,0,0,1-2.52-.695,2.287,2.287,0,0,1-.915-1.932,1.53,1.53,0,0,1,.233-.935.845.845,0,0,1,.714-.3.784.784,0,0,1,.562.2.731.731,0,0,1,.208.562,2.521,2.521,0,0,0,.171,1.029,1.06,1.06,0,0,0,.556.543,2.736,2.736,0,0,0,1.08.17,2.7,2.7,0,0,0,1.358-.341,2.524,2.524,0,0,0,.935-.9,2.262,2.262,0,0,0,.335-1.187,1.509,1.509,0,0,0-.253-.891.96.96,0,0,0-.656-.423,3.929,3.929,0,0,1-1.97.555.973.973,0,0,1-.594-.139.542.542,0,0,1-.176-.454.75.75,0,0,1,.486-.694,4.1,4.1,0,0,1,1.534-.291,2.424,2.424,0,0,0,1.288-2.122,1.157,1.157,0,0,0-.315-.865,1.3,1.3,0,0,0-.948-.31,2.78,2.78,0,0,0-1.048.184,1.715,1.715,0,0,0-.707.492,1.031,1.031,0,0,0-.253.663,1.909,1.909,0,0,0,.025.265,1.723,1.723,0,0,1,.025.253.569.569,0,0,1-.2.473.807.807,0,0,1-.524.159.756.756,0,0,1-.695-.348,1.753,1.753,0,0,1-.215-.929,2.034,2.034,0,0,1,.461-1.282,3.113,3.113,0,0,1,1.32-.935,5.267,5.267,0,0,1,1.983-.348,3.2,3.2,0,0,1,2.122.582,2,2,0,0,1,.669,1.591,3.193,3.193,0,0,1-.335,1.434,3.313,3.313,0,0,1-.979,1.168A2.528,2.528,0,0,1-201.051-365.9Z" transform="translate(208.584 371.505)" fill="#fff"/>
    </g>
    <g id="Group_210" data-name="Group 210" transform="translate(17.836 39.008)">
      <path id="Path_215" data-name="Path 215" d="M-201.047-321.115a.787.787,0,0,1,.095.417,1.162,1.162,0,0,1-.24.784,10.5,10.5,0,0,1-.726.789,2.975,2.975,0,0,1-.758.518,2.274,2.274,0,0,1-1.017.221,1.106,1.106,0,0,1-1.06-.587,3.868,3.868,0,0,1-.316-1.775q0-.593.051-1.149h-.026a7.568,7.568,0,0,1-1.244,2.589,2.146,2.146,0,0,1-1.686.909,1.21,1.21,0,0,1-1.01-.467,1.844,1.844,0,0,1-.367-1.175,1.675,1.675,0,0,1,.29-1.023.963.963,0,0,1,.822-.392.549.549,0,0,1,.36.1.284.284,0,0,1,.094.278,6.1,6.1,0,0,0-.1.834q0,.454.227.455c.085,0,.179-.063.284-.189a6.451,6.451,0,0,0,.537-.922q.29-.556.6-1.25t.511-1.238a1.6,1.6,0,0,1,.468-.727,1.266,1.266,0,0,1,.758-.2,1.091,1.091,0,0,1,.707.189.763.763,0,0,1,.227.619l-.025.935q-.05,1.061-.05,1.528,0,1.326.543,1.327a.649.649,0,0,0,.449-.215q.22-.215.688-.783l.316-.378a.443.443,0,0,1,.341-.177A.294.294,0,0,1-201.047-321.115Z" transform="translate(209.351 324.31)" fill="#fff"/>
    </g>
  </g>
</svg>
