<svg id="picture_math_" data-name="picture math " xmlns="http://www.w3.org/2000/svg" width="66.317" height="55.063" viewBox="0 0 66.317 55.063">
  <g id="Group_362" data-name="Group 362">
    <g id="Group_358" data-name="Group 358" transform="translate(6.558)">
      <circle id="Ellipse_108" data-name="Ellipse 108" cx="27.531" cy="27.531" r="27.531" fill="#cff0ef"/>
    </g>
    <g id="Group_359" data-name="Group 359" transform="translate(49.937 34.933)">
      <path id="Path_322" data-name="Path 322" d="M345.639-196.459,333.9-184.724h15.73" transform="translate(-333.904 196.459)" fill="none" stroke="#eec9de" stroke-linecap="round" stroke-linejoin="round" stroke-width="1.3"/>
      <path id="Path_323" data-name="Path 323" d="M340.469-178.74c0-.088.027-.172.027-.262a5.926,5.926,0,0,0-1.948-4.382L333.9-178.74Z" transform="translate(-333.904 190.475)" fill="none" stroke="#eec9de" stroke-linecap="round" stroke-linejoin="round" stroke-width="1.3"/>
    </g>
    <path id="Path_324" data-name="Path 324" d="M268.026-216.671l23.188,25.145H268.026Zm4.878,20.079h6.688l-6.688-7.252Z" transform="translate(-253.819 240.641)" fill="#cfa6bd"/>
    <path id="Path_325" data-name="Path 325" d="M241.831-189.188l1.309,4.847,22.353-6.036-1.309-4.847-1.792.484a9.779,9.779,0,0,0-11.659-5.891,9.778,9.778,0,0,0-7.109,10.959Zm15.68-4.234-9.006,2.432a4.667,4.667,0,0,1,3.3-5.667A4.667,4.667,0,0,1,257.511-193.423Z" transform="translate(-241.831 233.457)" fill="#eec9de"/>
    <g id="Group_360" data-name="Group 360" transform="translate(8.986 0.168)">
      <rect id="Rectangle_312" data-name="Rectangle 312" width="0.866" height="29.74" transform="translate(9.604 11.489) rotate(-90)" fill="#88abb8"/>
      <rect id="Rectangle_313" data-name="Rectangle 313" width="0.866" height="29.74" transform="translate(10.233 24.546) rotate(-90)" fill="#88abb8"/>
      <rect id="Rectangle_314" data-name="Rectangle 314" width="0.866" height="29.74" transform="translate(10.847 37.702) rotate(-90)" fill="#88abb8"/>
      <rect id="Rectangle_315" data-name="Rectangle 315" width="2.587" height="5.788" rx="1.294" transform="translate(14.228 8.025)" fill="#ce935f"/>
      <path id="Path_326" data-name="Path 326" d="M285.141-215.594h0a2.867,2.867,0,0,1-1.058-2.225v-2.007a2.868,2.868,0,0,1,1.058-2.225h0a2.87,2.87,0,0,1,1.058,2.225v2.007A2.869,2.869,0,0,1,285.141-215.594Z" transform="translate(-270.153 242.935)" fill="#c76963"/>
      <path id="Path_327" data-name="Path 327" d="M290.2-215.594h0a2.869,2.869,0,0,1-1.058-2.225v-2.007a2.87,2.87,0,0,1,1.058-2.225h0a2.868,2.868,0,0,1,1.058,2.225v2.007A2.867,2.867,0,0,1,290.2-215.594Z" transform="translate(-272.469 242.935)" fill="#c76963"/>
      <path id="Path_328" data-name="Path 328" d="M308.305-215.594h0a2.867,2.867,0,0,1-1.058-2.225v-2.007a2.868,2.868,0,0,1,1.058-2.225h0a2.87,2.87,0,0,1,1.058,2.225v2.007A2.869,2.869,0,0,1,308.305-215.594Z" transform="translate(-280.754 242.935)" fill="#ffd972"/>
      <path id="Path_329" data-name="Path 329" d="M303.114-215.594h0a2.869,2.869,0,0,1-1.058-2.225v-2.007a2.87,2.87,0,0,1,1.058-2.225h0a2.868,2.868,0,0,1,1.058,2.225v2.007A2.867,2.867,0,0,1,303.114-215.594Z" transform="translate(-278.378 242.935)" fill="#ffd972"/>
      <path id="Path_330" data-name="Path 330" d="M313.365-215.594h0a2.867,2.867,0,0,1-1.059-2.225v-2.007a2.869,2.869,0,0,1,1.059-2.225h0a2.87,2.87,0,0,1,1.058,2.225v2.007A2.869,2.869,0,0,1,313.365-215.594Z" transform="translate(-283.069 242.935)" fill="#ffd972"/>
      <path id="Path_331" data-name="Path 331" d="M318.573-215.594h0a2.869,2.869,0,0,1-1.058-2.225v-2.007a2.87,2.87,0,0,1,1.058-2.225h0a2.868,2.868,0,0,1,1.058,2.225v2.007A2.867,2.867,0,0,1,318.573-215.594Z" transform="translate(-285.453 242.935)" fill="#c76963"/>
      <path id="Path_332" data-name="Path 332" d="M323.633-215.594h0a2.867,2.867,0,0,1-1.058-2.225v-2.007a2.868,2.868,0,0,1,1.058-2.225h0a2.87,2.87,0,0,1,1.058,2.225v2.007A2.869,2.869,0,0,1,323.633-215.594Z" transform="translate(-287.769 242.935)" fill="#c76963"/>
      <rect id="Rectangle_316" data-name="Rectangle 316" width="2.587" height="5.788" rx="1.294" transform="translate(18.613 8.025)" fill="#ce935f"/>
      <rect id="Rectangle_317" data-name="Rectangle 317" width="2.587" height="5.788" rx="1.294" transform="translate(22.384 8.025)" fill="#ce935f"/>
      <rect id="Rectangle_318" data-name="Rectangle 318" width="2.587" height="5.788" rx="1.294" transform="translate(26.111 8.025)" fill="#ce935f"/>
      <rect id="Rectangle_319" data-name="Rectangle 319" width="2.587" height="5.788" rx="1.294" transform="translate(33.824 8.162)" fill="#c76963"/>
      <rect id="Rectangle_320" data-name="Rectangle 320" width="2.587" height="5.788" rx="1.294" transform="translate(22.384 34.306)" fill="#ffe686"/>
      <rect id="Rectangle_321" data-name="Rectangle 321" width="2.587" height="5.788" rx="1.294" transform="translate(25.817 34.306)" fill="#ffe686"/>
      <rect id="Rectangle_322" data-name="Rectangle 322" width="2.587" height="5.788" rx="1.294" transform="translate(13.777 34.306)" fill="#86ab6a"/>
      <rect id="Rectangle_323" data-name="Rectangle 323" width="2.587" height="5.788" rx="1.294" transform="translate(29.475 34.306)" fill="#86ab6a"/>
      <rect id="Rectangle_324" data-name="Rectangle 324" width="2.587" height="5.788" rx="1.294" transform="translate(32.978 34.443)" fill="#86ab6a"/>
      <path id="Rectangle_325" data-name="Rectangle 325" d="M2.3,0h0a2.3,2.3,0,0,1,2.3,2.3V48.948a0,0,0,0,1,0,0H0a0,0,0,0,1,0,0V2.3A2.3,2.3,0,0,1,2.3,0Z" transform="translate(7.432)" fill="#87bfd3"/>
      <path id="Rectangle_326" data-name="Rectangle 326" d="M2.3,0h0a2.3,2.3,0,0,1,2.3,2.3V48.948a0,0,0,0,1,0,0H0a0,0,0,0,1,0,0V2.3A2.3,2.3,0,0,1,2.3,0Z" transform="translate(38.04)" fill="#87bfd3"/>
      <rect id="Rectangle_327" data-name="Rectangle 327" width="2.914" height="48.948" rx="1.457" transform="translate(0 49.853) rotate(-90)" fill="#88abb8"/>
    </g>
    <text id="_2_2_" data-name="2+2=" stroke-linejoin="round" fill="#88abb8" stroke="#88abb8" stroke-linecap="round" transform="translate(57.249 34.474) rotate(-90)" stroke-width="0.5" font-size="5" font-family="FiraSans-SemiBold, Fira Sans" font-weight="600" letter-spacing="0.07em"><tspan x="0" y="0">2+2</tspan><tspan y="0" letter-spacing="0.03em">=</tspan></text>
    <g id="Group_361" data-name="Group 361" transform="translate(3.717 17.231)">
      <text id="_2" data-name="2" stroke-linejoin="round" fill="#88abb8" stroke="#88abb8" stroke-linecap="round" transform="translate(4.916 4)" stroke-width="0.5" font-size="4" font-family="FiraSans-SemiBold, Fira Sans" font-weight="600" letter-spacing="0.03em"><tspan x="0" y="0">2</tspan></text>
      <path id="Path_333" data-name="Path 333" d="M248.684-226.474l1.44,4.595,1.309-6.627h7.79" transform="translate(-248.684 228.827)" fill="none" stroke="#88abb8" stroke-linecap="round" stroke-linejoin="round" stroke-width="1.2"/>
    </g>
  </g>
</svg>
