<svg id="picture_gr_os" data-name="picture gr os" xmlns="http://www.w3.org/2000/svg" width="63.638" height="56.589" viewBox="0 0 63.638 56.589">
  <g id="Group_388" data-name="Group 388" transform="translate(0.912)">
    <circle id="Ellipse_122" data-name="Ellipse 122" cx="27.531" cy="27.531" r="27.531" fill="#cff0ef"/>
  </g>
  <g id="Group_389" data-name="Group 389" transform="translate(0 14.32)">
    <path id="Path_381" data-name="Path 381" d="M-201.759-209.536l-19.211,5.809a1.383,1.383,0,0,1-1.105-.309c-.315-.277-.706-.674-.706-.674l-5.852-24.358,17.4-6.791a2.542,2.542,0,0,0,.8.7,2.944,2.944,0,0,0,1.014.28Z" transform="translate(230.444 235.858)" fill="#dba948"/>
    <rect id="Rectangle_333" data-name="Rectangle 333" width="20.07" height="26.473" transform="matrix(0.957, -0.289, 0.289, 0.957, 0, 5.809)" fill="#c76963"/>
    <path id="Path_382" data-name="Path 382" d="M-224.112-220.277l-1.489-1.009-.7,1.67-2.335-7.72,2.186-.661Z" transform="translate(230.444 232.261)" fill="#dba948"/>
  </g>
  <g id="Group_392" data-name="Group 392" transform="translate(17.907 2.951)">
    <g id="Group_391" data-name="Group 391" transform="translate(0 0.906)">
      <rect id="Rectangle_334" data-name="Rectangle 334" width="31.804" height="2.573" transform="translate(40.122 45.73) rotate(-180)" fill="#646464"/>
      <g id="Group_390" data-name="Group 390">
        <line id="Line_49" data-name="Line 49" x2="6.036" y2="24.725" transform="translate(37.762 6.484)" fill="none" stroke="#5f5f5f" stroke-linecap="round" stroke-linejoin="round" stroke-width="1.3"/>
        <line id="Line_50" data-name="Line 50" x1="6.036" y2="24.725" transform="translate(31.726 6.484)" fill="none" stroke="#5f5f5f" stroke-linecap="round" stroke-linejoin="round" stroke-width="1.3"/>
        <line id="Line_51" data-name="Line 51" x2="6.064" y2="25.147" transform="translate(7.852 0.808)" fill="none" stroke="#777577" stroke-linecap="round" stroke-linejoin="round" stroke-width="1.3"/>
        <line id="Line_52" data-name="Line 52" x1="6.036" y2="25.147" transform="translate(1.844 0.808)" fill="none" stroke="#777577" stroke-linecap="round" stroke-linejoin="round" stroke-width="1.3"/>
        <path id="Rectangle_335" data-name="Rectangle 335" d="M7.514,0h.731A7.514,7.514,0,0,1,15.76,7.514v0a0,0,0,0,1,0,0H0a0,0,0,0,1,0,0v0A7.514,7.514,0,0,1,7.514,0Z" transform="translate(45.732 37.928) rotate(-180)" fill="#dba948"/>
        <path id="Rectangle_336" data-name="Rectangle 336" d="M7.514,0h.731A7.514,7.514,0,0,1,15.76,7.514v0a0,0,0,0,1,0,0H0a0,0,0,0,1,0,0v0A7.514,7.514,0,0,1,7.514,0Z" transform="translate(15.76 31.74) rotate(180)" fill="#edbf63"/>
        <line id="Line_53" data-name="Line 53" x2="34.475" y2="7.275" transform="translate(5.838)" fill="none" stroke="#e5b75b" stroke-linecap="round" stroke-linejoin="round" stroke-width="2"/>
      </g>
      <ellipse id="Ellipse_123" data-name="Ellipse 123" cx="15.902" cy="0.689" rx="15.902" ry="0.689" transform="translate(8.318 45.041)" fill="#646464"/>
      <ellipse id="Ellipse_124" data-name="Ellipse 124" cx="15.902" cy="0.689" rx="15.902" ry="0.689" transform="translate(8.318 42.468)" fill="#7c7779"/>
      <path id="Path_383" data-name="Path 383" d="M-167.533-180.188h14.354v2.23h-14.354Z" transform="translate(184.576 220.844)" fill="#646464"/>
      <ellipse id="Ellipse_125" data-name="Ellipse 125" cx="7.177" cy="0.61" rx="7.177" ry="0.61" transform="translate(17.043 40.046)" fill="#7c7779"/>
      <ellipse id="Ellipse_126" data-name="Ellipse 126" cx="7.177" cy="0.61" rx="7.177" ry="0.61" transform="translate(17.043 42.276)" fill="#646464"/>
      <line id="Line_54" data-name="Line 54" y1="39.102" transform="translate(24.422 0.944)" fill="none" stroke="#e5b75b" stroke-linecap="round" stroke-linejoin="round" stroke-width="2"/>
    </g>
    <circle id="Ellipse_127" data-name="Ellipse 127" cx="2.461" cy="2.461" r="2.461" transform="translate(21.853)" fill="#e5b75b"/>
  </g>
  <g id="Group_396" data-name="Group 396" transform="translate(13.437 20.921)">
    <g id="Group_393" data-name="Group 393" transform="translate(0 32.368)">
      <ellipse id="Ellipse_128" data-name="Ellipse 128" cx="11.915" cy="1.024" rx="11.915" ry="1.024" transform="translate(0 1.238)" fill="#b78e70"/>
      <rect id="Rectangle_337" data-name="Rectangle 337" width="23.83" height="1.281" transform="translate(0 1.024)" fill="#b78e70"/>
      <ellipse id="Ellipse_129" data-name="Ellipse 129" cx="11.915" cy="1.024" rx="11.915" ry="1.024" fill="#c9a478"/>
    </g>
    <path id="Path_384" data-name="Path 384" d="M-196.316-173.183s-2.154-1.717-.128-3.549" transform="translate(202.674 202.199)" fill="none" stroke="#726d68" stroke-linecap="round" stroke-linejoin="round" stroke-width="1.2"/>
    <path id="Path_385" data-name="Path 385" d="M-201.095-173.442s-2.154-1.717-.128-3.549" transform="translate(204.861 202.317)" fill="none" stroke="#726d68" stroke-linecap="round" stroke-linejoin="round" stroke-width="1.2"/>
    <path id="Path_386" data-name="Path 386" d="M-157.249-165.95s1.155,2.317-2.4,3.508" transform="translate(185.436 197.265)" fill="none" stroke="#726d68" stroke-linecap="round" stroke-linejoin="round" stroke-width="1.2"/>
    <path id="Path_387" data-name="Path 387" d="M-151.615-164.43s.715,1.2-1.032,2.684" transform="translate(182.233 196.569)" fill="none" stroke="#726d68" stroke-linecap="round" stroke-linejoin="round" stroke-width="1.2"/>
    <g id="Group_395" data-name="Group 395" transform="translate(8.182 4.939)">
      <path id="Path_388" data-name="Path 388" d="M-143.659-171.444a1.613,1.613,0,0,1-.67-.145l-20.605-9.433a.512.512,0,0,1-.253-.676l.921-2.03a.514.514,0,0,1,.287-.268.524.524,0,0,1,.179-.033.51.51,0,0,1,.213.047l20.6,9.432a1.613,1.613,0,0,1,.848.909,1.61,1.61,0,0,1-.042,1.243A1.628,1.628,0,0,1-143.659-171.444Z" transform="translate(179.811 200.599)" fill="#b78e70"/>
      <g id="Group_394" data-name="Group 394" transform="translate(0 0)">
        <rect id="Rectangle_338" data-name="Rectangle 338" width="2.688" height="11.736" transform="translate(0.906 22.832) rotate(-65.598)" fill="#b78e70"/>
        <ellipse id="Ellipse_130" data-name="Ellipse 130" cx="2.318" cy="5.863" rx="2.318" ry="5.863" transform="matrix(0.413, -0.911, 0.911, 0.413, 0, 24.852)" fill="#b78e70"/>
        <ellipse id="Ellipse_131" data-name="Ellipse 131" cx="2.318" cy="5.863" rx="2.318" ry="5.863" transform="matrix(0.413, -0.911, 0.911, 0.413, 1.044, 22.551)" fill="#c9a478"/>
        <rect id="Rectangle_339" data-name="Rectangle 339" width="12.034" height="11.716" transform="translate(3.128 17.967) rotate(-65.625)" fill="#b78e70"/>
        <rect id="Rectangle_340" data-name="Rectangle 340" width="2.688" height="11.736" transform="translate(9.191 4.557) rotate(-65.598)" fill="#b78e70"/>
        <ellipse id="Ellipse_132" data-name="Ellipse 132" cx="2.318" cy="5.863" rx="2.318" ry="5.863" transform="matrix(0.413, -0.911, 0.911, 0.413, 7.141, 9.099)" fill="#c9a478"/>
        <path id="Path_389" data-name="Path 389" d="M-165.588-201.436-174-205.25c-.312.014-.117.332-.359.4l-.8,1.763c.519,1.108,1.658,2.166,3.807,3.14s3.7,1.142,4.87.8l.8-1.772C-165.778-201.135-165.4-201.2-165.588-201.436Z" transform="translate(184.351 210.31)" fill="#a98769"/>
        <path id="Path_390" data-name="Path 390" d="M-176.919-176.509l-8.408-3.814c-.311.013-.117.332-.358.4l-.8,1.763c.519,1.108,1.659,2.166,3.807,3.141s3.7,1.141,4.87.8l.8-1.771C-177.109-176.209-176.731-176.274-176.919-176.509Z" transform="translate(189.537 198.903)" fill="#a98769"/>
        <ellipse id="Ellipse_133" data-name="Ellipse 133" cx="2.318" cy="5.863" rx="2.318" ry="5.863" transform="matrix(0.413, -0.911, 0.911, 0.413, 8.256, 6.642)" fill="#b78e70"/>
        <ellipse id="Ellipse_134" data-name="Ellipse 134" cx="2.318" cy="5.863" rx="2.318" ry="5.863" transform="matrix(0.413, -0.911, 0.911, 0.413, 9.351, 4.222)" fill="#c9a478"/>
        <ellipse id="Ellipse_135" data-name="Ellipse 135" cx="2.318" cy="5.863" rx="2.318" ry="5.863" transform="matrix(0.413, -0.911, 0.911, 0.413, 2.141, 20.108)" fill="#b78e70"/>
      </g>
    </g>
    <path id="Path_391" data-name="Path 391" d="M-166.286-216.22a15.516,15.516,0,0,1,5.826-7.467" transform="translate(188.475 223.687)" fill="none" stroke="#726d68" stroke-linecap="round" stroke-linejoin="round" stroke-width="1.2"/>
    <path id="Path_392" data-name="Path 392" d="M-169.7-217.975a9.906,9.906,0,0,1,3.244-4.6" transform="translate(190.035 223.176)" fill="none" stroke="#726d68" stroke-linecap="round" stroke-linejoin="round" stroke-width="1.2"/>
  </g>
</svg>
