<svg id="picture_geo" data-name="picture geo" xmlns="http://www.w3.org/2000/svg" width="59.699" height="61.305" viewBox="0 0 59.699 61.305">
  <circle id="Ellipse_114" data-name="Ellipse 114" cx="27.524" cy="27.524" r="27.524" transform="translate(0 1.206)" fill="#cffeff"/>
  <g id="Group_374" data-name="Group 374" transform="translate(5.951 7.156)">
    <circle id="Ellipse_115" data-name="Ellipse 115" cx="21.573" cy="21.573" r="21.573" fill="#a2d6dd"/>
    <path id="Path_354" data-name="Path 354" d="M22.709-364.476c2.558.645,2.862,1.464,3.519,2.295s-3.18-.382-3.746.347.141,5.38.344,5.89,6.933,6.312,7.773,6.092c3.423-.9,6.276-6.6,5.5-8.028a2.357,2.357,0,0,1,.734-3.287c1-.754,4.317-.977,6.59-2.239s5.093-7.511,4.635-9.4-4.242-7.139-5.49-7.674-8.222-.909-9.806-1.251a5.929,5.929,0,0,1-2.421-1.25,21.582,21.582,0,0,0-10.664,17.033C20.038-365.1,20.531-365.025,22.709-364.476Z" transform="translate(-19.594 385.83)" fill="#86ab6a"/>
    <path id="Path_355" data-name="Path 355" d="M86.061-325.526c-1.27.109-3.786,2.337-3.959,3.271a6.879,6.879,0,0,0,.131,1.934,21.679,21.679,0,0,0,5.067-5.147A5.7,5.7,0,0,0,86.061-325.526Z" transform="translate(-48.149 359.544)" fill="#86ab6a"/>
    <path id="Path_356" data-name="Path 356" d="M86.8-375.618a14.224,14.224,0,0,0-1.561,2.77c-1.142,2.875.967,10.756,2.809,12.147a17.008,17.008,0,0,0,4.451,1.848A21.42,21.42,0,0,0,86.8-375.618Z" transform="translate(-49.451 382.462)" fill="#86ab6a"/>
  </g>
  <g id="Group_376" data-name="Group 376" transform="translate(7.016)">
    <path id="Path_357" data-name="Path 357" d="M22.214-378.648a20.482,20.482,0,0,0,11.35,13.315l.337-7.776A18.493,18.493,0,0,1,26.7-383.4a18.556,18.556,0,0,1,4.573-17.783.145.145,0,0,0-.183-.223A20.529,20.529,0,0,0,22.214-378.648Z" transform="translate(-21.489 401.432)" fill="#e5b75b"/>
    <path id="Path_358" data-name="Path 358" d="M25.768-383.25a.16.16,0,0,1,.3.09,20.032,20.032,0,0,0,.422,8.664,19.912,19.912,0,0,0,8.482,11.582l.046.156-1.613,3.6a19.041,19.041,0,0,1-1.989-1.369,18.91,18.91,0,0,1-6.6-9.979A19.041,19.041,0,0,1,25.768-383.25Z" transform="translate(-22.702 393.156)" fill="#efcb68"/>
    <g id="Group_375" data-name="Group 375" transform="translate(4.538 25.634)">
      <path id="Path_359" data-name="Path 359" d="M37.531-342.451l4.36-6.351,4.874,3.346a23.746,23.746,0,0,1,8.44,10.467h0a23.741,23.741,0,0,1-12.8-4.117Z" transform="translate(-33.368 351.712)" fill="#fff"/>
      <path id="Path_360" data-name="Path 360" d="M38.346-354.08l-.052-.088.1.017a23.194,23.194,0,0,1,9.368,3.766h0a2.241,2.241,0,0,1,.579,3.115h0a2.241,2.241,0,0,1-3.115.579h0A23.2,23.2,0,0,1,38.346-354.08Z" transform="translate(-33.718 354.168)" fill="#ce935f"/>
      <path id="Path_361" data-name="Path 361" d="M29.908-341.789l-.052-.088.1.016a23.192,23.192,0,0,1,9.368,3.766h0a2.241,2.241,0,0,1,.579,3.115h0a2.24,2.24,0,0,1-3.115.579h0A23.2,23.2,0,0,1,29.908-341.789Z" transform="translate(-29.856 348.543)" fill="#ce935f"/>
      <path id="Path_362" data-name="Path 362" d="M30.411-350.552l-.04-.068.078.012a17.943,17.943,0,0,1,7.247,2.914h0a1.734,1.734,0,0,1,.448,2.41h0a1.734,1.734,0,0,1-2.41.448h0A17.943,17.943,0,0,1,30.411-350.552Z" transform="translate(-30.092 352.544)" fill="#ce935f"/>
      <circle id="Ellipse_116" data-name="Ellipse 116" cx="1.529" cy="1.529" r="1.529" transform="translate(13.261 10.432)" fill="#606060"/>
    </g>
  </g>
  <g id="Group_380" data-name="Group 380" transform="translate(39.269 36.038)">
    <g id="Group_377" data-name="Group 377" transform="translate(1.939)">
      <path id="Path_363" data-name="Path 363" d="M84.531-314.859a33.14,33.14,0,0,0,9.041-6.281c4.7-4.307,7.878-9.438,8.864-13.7.054-.231.422-.171.426.069.071,5.128-3.783,12.348-10.157,18.194a37.825,37.825,0,0,1-5.027,3.9Z" transform="translate(-84.531 334.986)" fill="#dbd8d1"/>
    </g>
    <g id="Group_378" data-name="Group 378" transform="translate(2.645 0.669)">
      <path id="Path_364" data-name="Path 364" d="M85.832-315.215a37.715,37.715,0,0,0,6.191-4.67c4.753-4.308,7.977-9.459,8.966-13.731.05-.218.4-.161.4.066.087,5.132-3.818,12.378-10.264,18.222q-1.215,1.1-2.454,2.05Z" transform="translate(-85.832 333.753)" fill="#dbd8d1"/>
    </g>
    <g id="Group_379" data-name="Group 379" transform="translate(5.082 6.303)">
      <path id="Path_365" data-name="Path 365" d="M92.441-306.987l-2.115-1.9a26.819,26.819,0,0,0,3.043-1.637,34.948,34.948,0,0,0,12.02-12.763.154.154,0,0,1,.278.125c-2.006,6.118-7.677,13.144-14.547,17.519Z" transform="translate(-90.326 323.365)" fill="#dbd8d1"/>
    </g>
    <ellipse id="Ellipse_117" data-name="Ellipse 117" cx="3.479" cy="2.86" rx="3.479" ry="2.86" transform="matrix(0.98, -0.197, 0.197, 0.98, 0, 19.66)" fill="#dbd8d1"/>
  </g>
  <g id="Group_381" data-name="Group 381" transform="translate(7.404 42.855)">
    <path id="Path_366" data-name="Path 366" d="M34.252-318.123a6.138,6.138,0,0,0-1.46-2.424,1.46,1.46,0,0,1-1.009,1.52,1.461,1.461,0,0,1-1.836-.948,1.461,1.461,0,0,1,.948-1.836c.03-.009.061-.011.091-.019a6.141,6.141,0,0,0-4.487-.3,6.135,6.135,0,0,0-2.515,1.547,1.037,1.037,0,0,1,.267.425,1.048,1.048,0,0,1-.68,1.317,1.041,1.041,0,0,1-.765-.053,6.14,6.14,0,0,0-.309,4.517,6.17,6.17,0,0,0,7.754,4A6.169,6.169,0,0,0,34.252-318.123Zm-6.064,6.461a1.049,1.049,0,0,1-1.317-.68,1.048,1.048,0,0,1,.68-1.317,1.048,1.048,0,0,1,1.317.68A1.048,1.048,0,0,1,28.189-311.662Z" transform="translate(-22.205 322.416)" fill="#dbd8d1"/>
    <path id="Path_367" data-name="Path 367" d="M31.446-306.313a1.048,1.048,0,0,0-.68,1.317,1.049,1.049,0,0,0,1.317.68,1.048,1.048,0,0,0,.68-1.317A1.048,1.048,0,0,0,31.446-306.313Z" transform="translate(-26.1 315.07)" fill="#b9b9b9"/>
    <path id="Path_368" data-name="Path 368" d="M24.078-317.283a1.048,1.048,0,0,0,.68-1.317,1.037,1.037,0,0,0-.267-.425,6.166,6.166,0,0,0-1.177,1.689A1.041,1.041,0,0,0,24.078-317.283Z" transform="translate(-22.712 320.865)" fill="#b9b9b9"/>
    <path id="Path_369" data-name="Path 369" d="M36.421-319.479a1.461,1.461,0,0,0,1.836.948,1.46,1.46,0,0,0,1.009-1.52,6.18,6.18,0,0,0-1.807-1.283c-.03.008-.061.01-.091.019A1.461,1.461,0,0,0,36.421-319.479Z" transform="translate(-28.679 321.921)" fill="#b9b9b9"/>
  </g>
</svg>
