<svg xmlns="http://www.w3.org/2000/svg" width="11.418" height="21.868" viewBox="0 0 11.418 21.868">
  <path id="Path_79" data-name="Path 79" d="M666.628,215.747c.678-.022,1.355,0,2.034-.006h.28v-3.524c-.363-.037-.741-.089-1.12-.107-.694-.031-1.391-.066-2.086-.049a5.106,5.106,0,0,0-2.945.91,4.405,4.405,0,0,0-1.769,2.942,10.251,10.251,0,0,0-.122,1.512c-.019.791,0,1.582,0,2.373v.3h-3.372v3.935h3.352v9.895h4.1v-9.879h3.341c.171-1.309.339-2.6.514-3.955h-.751c-.95,0-3.131,0-3.131,0s.009-1.951.033-2.8C665.012,216.134,665.7,215.78,666.628,215.747Z" transform="translate(-657.524 -212.057)" fill="#e2e2e2" fill-rule="evenodd"/>
</svg>
