<svg xmlns="http://www.w3.org/2000/svg" width="20.976" height="17.833" viewBox="0 0 20.976 17.833">
  <g id="Group_23" data-name="Group 23" transform="translate(0 0)">
    <path id="Path_83" data-name="Path 83" d="M727.523,214.9l-19.55,7.372a.824.824,0,0,0,.068,1.564l6.838,1.919a.647.647,0,0,1,.246.131l8.062,6.492a1.318,1.318,0,0,0,2.142-.748l3.074-15.984A.66.66,0,0,0,727.523,214.9Z" transform="translate(-707.44 -214.857)" fill="#e2e2e2"/>
    <path id="Path_84" data-name="Path 84" d="M716.526,231.826l2.45-2.64-2.891-2.329-.624,5.226A.981.981,0,0,0,716.526,231.826Z" transform="translate(-707.726 -215.285)" fill="#c5c5c5"/>
    <path id="Path_85" data-name="Path 85" d="M724.261,218.419l-11.277,6.876,1.783,5.846a.976.976,0,0,0,.606.64l.624-5.226,8.462-7.875A.165.165,0,0,0,724.261,218.419Z" transform="translate(-707.638 -214.983)" fill="#d6d6d6"/>
  </g>
</svg>
