<svg xmlns="http://www.w3.org/2000/svg" width="20.45" height="14.331" viewBox="0 0 20.45 14.331">
  <path id="Path_82" data-name="Path 82" d="M554.947,229.877a2.377,2.377,0,0,1-1.57-1.525c-.68-1.869-.88-9.688.427-11.229a2.537,2.537,0,0,1,1.709-.907c3.527-.38,14.426-.325,15.682.127a2.455,2.455,0,0,1,1.542,1.483c.744,1.932.769,8.961-.1,10.823a2.387,2.387,0,0,1-1.105,1.117C570.218,230.457,556.678,230.448,554.947,229.877Zm5.6-3.664,6.351-3.293-6.351-3.314Z" transform="translate(-552.843 -215.965)" fill="#e2e2e2" fill-rule="evenodd"/>
</svg>
