<?xml version="1.0" encoding="utf-8"?>
<!-- Generator: Adobe Illustrator 23.1.0, SVG Export Plug-In . SVG Version: 6.00 Build 0)  -->
<svg version="1.1" id="Слой_1" xmlns="http://www.w3.org/2000/svg" xmlns:xlink="http://www.w3.org/1999/xlink" x="0px" y="0px"
	 viewBox="0 0 335.5 308.7" style="enable-background:new 0 0 335.5 308.7;" xml:space="preserve">
<style type="text/css">
	.st0{fill:#F2FBFF;}
	.st1{fill:#ABDBE1;}
	.st2{fill:#F1F1F1;}
	.st3{fill:#A2C9CE;}
	.st4{fill:#90B9C0;}
	.st5{fill:#FFFFFF;}
	.st6{fill:#FFCD6C;}
	.st7{fill:#FFAE42;}
	.st8{fill:#FFA342;}
	.st9{opacity:0.27;fill:#FFA342;enable-background:new    ;}
	.st10{fill:#F7D6B0;}
	.st11{fill:#F4CC99;}
	.st12{fill:#EDC08D;}
	.st13{fill:#F2AD4C;}
	.st14{fill:#D4E8EA;}
	.st15{fill:#FFCD72;}
	.st16{fill:#A9CED1;}
	.st17{fill:#FFAA05;}
	.st18{fill:#8BBDB7;}
	.st19{fill:#E9F6F8;}
	.st20{fill:#A0BCC2;}
	.st21{fill:#65959F;}
</style>
<g>
	<path class="st0" d="M311.2,202.7c-11.5-11.6-27.2-18.5-38.5-30.4c-11.3-11.9-4.2-44.6-4.2-44.6c2-41.3-4.8-48.9-38.6-72.8
		C196.2,31,152.9,22.8,111.8,27.5c-30.1,3.4-60.6,14.1-81.5,36.1c-20.9,22-30,56.7-16.3,83.8c3.8,7.4,9,14.1,11.9,21.9
		c9.7,26-9.1,54.6-5.2,82c4.1,28.8,33,48.9,61.8,52.6c28.8,3.8,57.7-5,85.5-13.5s56.8-17,85.6-12.6c14.9,2.2,30,7.9,44.6,4.2
		c15.8-4,27.6-19.1,29.5-35.2S322.7,214.2,311.2,202.7z"/>
	<g id="Group_564_4_" transform="translate(1353.894 3099.762)">
		<g id="Group_488_5_" transform="translate(7.569)">
			<path id="Rectangle_376_5_" class="st1" d="M-1289.9-3009.4h129.7c3.9,0,7.1,3.2,7.1,7.1l0,0v91.1c0,3.5-2.9,6.4-6.4,6.4
				c0,0,0,0,0,0h-131.1c-3.5,0-6.4-2.9-6.4-6.4c0,0,0,0,0,0v-91.1C-1297-3006.2-1293.8-3009.4-1289.9-3009.4z"/>
		</g>
		<g id="Group_489_5_" transform="translate(17.349 10.361)">
			<path id="Path_507_5_" class="st2" d="M-1174.8-2921.9h-119.9c-1.3,0-2.3-1-2.3-2.3l0,0l0.2-82.9c0-1.3,1-2.3,2.3-2.3h119.7
				c1.3,0,2.3,1,2.3,2.3c0,0,0,0,0,0v82.9C-1172.6-2922.9-1173.6-2921.9-1174.8-2921.9L-1174.8-2921.9L-1174.8-2921.9z"/>
		</g>
		<path id="Rectangle_377_5_" class="st3" d="M-1279.1-2919.5h123.4c2.2,0,3.9,1.8,3.9,3.9l0,0v1.1H-1283v-1.1
			C-1283-2917.8-1281.3-2919.5-1279.1-2919.5C-1279.1-2919.5-1279.1-2919.5-1279.1-2919.5z"/>
		<path id="Rectangle_378_5_" class="st4" d="M-1294.8-2915.2h154.7c1.2,0,2.2,1,2.2,2.2v2.7c0,4.2-3.4,7.6-7.6,7.6h-143.8
			c-4.2,0-7.6-3.4-7.6-7.6l0,0v-2.7C-1297-2914.2-1296-2915.2-1294.8-2915.2L-1294.8-2915.2z"/>
		<path id="Rectangle_379_5_" class="st5" d="M-1276.8-2999.3h118.7c1.6,0,2.8,1.3,2.8,2.8l0,0v6.3h-124.4v-6.3
			C-1279.6-2998.1-1278.4-2999.3-1276.8-2999.3z"/>
	</g>
	<g>
		<path id="Path_531_4_" class="st6" d="M201.1,4.6l4.9,10c0.2,0.4,0.6,0.7,1.1,0.8l11,1.6c0.8,0.1,1.4,0.9,1.2,1.7
			c0,0.3-0.2,0.6-0.4,0.8l-8,7.8c-0.3,0.3-0.5,0.8-0.4,1.3l1.9,11c0.1,0.8-0.4,1.6-1.2,1.7c-0.3,0.1-0.6,0-0.9-0.1l-9.9-5.2
			c-0.4-0.2-0.9-0.2-1.4,0l-9.9,5.2c-0.7,0.4-1.6,0.1-2-0.6c-0.1-0.3-0.2-0.6-0.1-0.9l1.9-11c0.1-0.5-0.1-1-0.4-1.3l-8-7.8
			c-0.6-0.6-0.6-1.5,0-2.1c0.2-0.2,0.5-0.4,0.8-0.4l11-1.6c0.5-0.1,0.9-0.4,1.1-0.8l4.9-10c0.4-0.7,1.2-1,2-0.7
			C200.8,4,201,4.3,201.1,4.6z"/>
		<path id="Path_532_6_" class="st7" d="M244.2,42.8l3.5,7.2c0.2,0.3,0.4,0.5,0.8,0.6l7.9,1.1c0.6,0.1,1,0.6,0.9,1.2
			c0,0.2-0.1,0.4-0.3,0.6l-5.7,5.6c-0.2,0.2-0.4,0.6-0.3,0.9l1.3,7.9c0.1,0.6-0.3,1.1-0.9,1.2c-0.2,0-0.5,0-0.7-0.1l-7.1-3.7
			c-0.3-0.2-0.7-0.2-1,0l-7.1,3.7c-0.5,0.3-1.1,0.1-1.4-0.4c-0.1-0.2-0.1-0.4-0.1-0.7l1.3-7.9c0.1-0.3-0.1-0.7-0.3-0.9l-5.7-5.6
			c-0.4-0.4-0.4-1.1,0-1.5c0.2-0.2,0.4-0.3,0.6-0.3l7.9-1.1c0.3,0,0.6-0.3,0.8-0.6l3.5-7.2c0.3-0.5,0.9-0.7,1.4-0.5
			C243.9,42.4,244.1,42.6,244.2,42.8z"/>
		<path id="Path_533_4_" class="st8" d="M251.2,91.9l5.6,11.4c0.2,0.5,0.7,0.8,1.3,0.9l12.6,1.8c0.9,0.1,1.5,1,1.4,1.9
			c-0.1,0.4-0.2,0.7-0.5,1l-9.1,8.9c-0.4,0.4-0.6,0.9-0.5,1.5l2.1,12.5c0.2,0.9-0.5,1.8-1.4,1.9c-0.4,0.1-0.7,0-1.1-0.2l-11.2-5.9
			c-0.5-0.3-1.1-0.3-1.6,0l-11.2,5.9c-0.8,0.4-1.8,0.1-2.2-0.7c-0.2-0.3-0.2-0.7-0.2-1.1l2.1-12.5c0.1-0.5-0.1-1.1-0.5-1.5l-9.1-8.9
			c-0.7-0.6-0.7-1.7,0-2.4c0.3-0.3,0.6-0.4,1-0.5l12.6-1.8c0.5-0.1,1-0.4,1.3-0.9l5.6-11.4c0.4-0.8,1.4-1.2,2.2-0.8
			C250.7,91.3,251,91.5,251.2,91.9z"/>
		<g id="Group_505_5_" transform="translate(1373.014 3068.196)">
			<g id="Group_504_5_" transform="translate(25.284)">
				<rect id="Rectangle_386_5_" x="-1265.6" y="-2942" class="st6" width="8.9" height="27.6"/>
				<rect id="Rectangle_387_5_" x="-1269.7" y="-2931.6" class="st7" width="17.2" height="9.1"/>
				<path id="Path_514_5_" class="st8" d="M-1236.5-2902.5h-48.4c-1.2,0-2.1-1-2.1-2.1c0-0.1,0-0.2,0-0.3l2.8-17.3
					c0.2-1,1.1-1.8,2.1-1.8h43.1c1.1,0,2,0.8,2.1,1.8l2.5,17.3c0.2,1.2-0.6,2.3-1.8,2.4C-1236.3-2902.5-1236.4-2902.5-1236.5-2902.5
					z"/>
				<path id="Rectangle_388_5_" class="st6" d="M-1292.5-3006.3h62.6v40.1c0,14.5-11.8,26.2-26.2,26.2l0,0h-10.1
					c-14.5,0-26.2-11.8-26.2-26.2l0,0l0,0L-1292.5-3006.3L-1292.5-3006.3z"/>
				<path id="Rectangle_389_5_" class="st8" d="M-1295.6-3009.4h69c0.8,0,1.4,0.6,1.4,1.4v5c0,0.8-0.6,1.4-1.4,1.4h-69
					c-0.8,0-1.4-0.6-1.4-1.4v-5C-1297-3008.8-1296.4-3009.4-1295.6-3009.4z"/>
			</g>
			<path id="Path_515_5_" class="st6" d="M-1262.4-2962.5c-1-1-2.1-1.9-3.2-2.8c-1.9-1.4-3.9-2.8-5.9-4.1c-3.2-2-6.3-4.3-9.2-6.9
				c-1.7-1.4-3-3.2-3.8-5.3c-1.9-5.1,0.7-10.9,5.8-12.8c0,0,0,0,0,0c0.3-0.1,0.6-0.2,0.9-0.3c2.9-0.7,5.5,0.1,8.2,1.3
				c0.3,0.1,0.5,0.3,0.7,0.5l3.3,1.4c-0.9-3.7,0.3-5,0.3-5.1c-2-2.6-8.7-3.4-11.2-3.3c-2.5,0.1-4.9,0.9-6.9,2.3
				c-1.1,0.7-2,1.5-2.9,2.5c-0.2-0.9-0.3-1.7-0.6-2.5c-0.3-0.8-0.5-2.1-1.2-2.1c-0.8-0.1-1.3,1-1.7,1.9c-0.8,1.8-1.1,3.8-0.8,5.7
				c0.1,0.4,0.1,0.8,0,1.2c-0.9-0.7-1.8-1.4-2.7-2.1c-1.1-0.8-1.6-0.6-1.8,0.8c-0.3,2,0,4,0.7,5.8c0.5,1.1,1.1,2.1,1.7,3.3
				c-1.2-0.2-2.4-0.3-3.6-0.3c-0.5,0-0.6,0.1-0.6,0.6c0.1,1.4,0.4,2.7,1,3.9c1.5,2.7,3.5,5.1,6.1,6.8c0.3,0.3,4.3,2.7,4.7,2.9
				c2.8,1.4,5.7,2.6,8.7,3.6c3.6,1.1,9.3,5,11.2,7.6c1.5,1.7,2.1,4,1.7,6.2c-0.2,0.9-0.9,1.6-1.8,1.8c-0.9,0.1-1.8-0.3-2.4-1
				c-0.4-0.4-0.2-0.6,0.4-0.7c1.2-0.1,2-1.1,2.1-2.2c0.1-1.9-1.6-3-3.5-2.8c-3,0.3-4.8,3.9-4.1,6.5c0.6,2.3,2.3,4.1,4.5,4.8
				c3.6,1.4,7.7-0.3,9.2-3.9c0.5-1.3,0.8-2.8,0.7-4.2l0.1,0.1C-1258.3-2953.7-1262.4-2962.7-1262.4-2962.5z"/>
			<path id="Path_516_5_" class="st6" d="M-1210.7-2962.5c1-1,2.1-1.9,3.2-2.8c1.9-1.4,3.9-2.8,5.9-4.1c3.2-2,6.3-4.3,9.2-6.9
				c1.7-1.4,3-3.2,3.8-5.3c1.9-5.1-0.7-10.9-5.8-12.8c0,0,0,0,0,0c-0.3-0.1-0.6-0.2-0.9-0.3c-2.9-0.7-5.5,0.1-8.2,1.3
				c-0.3,0.1-0.5,0.3-0.7,0.5l-3.3,1.4c0.9-3.7-0.3-5-0.3-5.1c2-2.6,8.7-3.4,11.2-3.3c2.5,0.1,4.9,0.9,6.9,2.3
				c1.1,0.7,2,1.5,2.9,2.5c0.2-0.9,0.3-1.7,0.6-2.5c0.3-0.8,0.5-2.1,1.2-2.1c0.8-0.1,1.3,1,1.7,1.9c0.8,1.8,1.1,3.8,0.8,5.7
				c-0.1,0.4-0.1,0.8,0,1.2c0.9-0.7,1.8-1.4,2.7-2.1c1.1-0.8,1.6-0.6,1.8,0.8c0.3,2,0,4-0.7,5.8c-0.5,1.1-1.1,2.1-1.7,3.3
				c1.2-0.2,2.4-0.3,3.6-0.3c0.5,0,0.6,0.1,0.6,0.6c-0.1,1.4-0.4,2.7-1,3.9c-1.5,2.7-3.5,5.1-6.1,6.8c-0.3,0.3-4.3,2.7-4.7,2.9
				c-2.8,1.4-5.7,2.6-8.7,3.6c-3.6,1.1-9.3,5-11.2,7.6c-1.5,1.7-2.1,4-1.7,6.2c0.2,0.9,0.9,1.6,1.8,1.8c0.9,0.1,1.8-0.3,2.4-1
				c0.4-0.4,0.2-0.6-0.4-0.7c-1.2-0.1-2-1.1-2.1-2.2c-0.1-1.9,1.6-3,3.5-2.8c3,0.3,4.8,3.9,4.1,6.5c-0.6,2.3-2.3,4.1-4.5,4.8
				c-3.6,1.4-7.7-0.3-9.2-3.9c-0.5-1.3-0.8-2.8-0.7-4.2l-0.1,0.1C-1214.8-2953.7-1210.8-2962.7-1210.7-2962.5z"/>
			<circle id="Ellipse_191_5_" class="st9" cx="-1235.8" cy="-2975.9" r="19.9"/>
			<circle id="Ellipse_192_5_" class="st6" cx="-1235.8" cy="-2975.9" r="15.1"/>
		</g>
	</g>
	<path id="Rectangle_475_4_" class="st10" d="M80.5,168h37.4l0,0v12.2l0,0H77.5l0,0V171C77.5,169.3,78.9,168,80.5,168L80.5,168z"/>
	<path id="Rectangle_476_4_" class="st10" d="M154.1,171.7h37.1c1.8,0,3.3,1.5,3.3,3.3c0,0,0,0,0,0v5.2l0,0h-40.4l0,0V171.7
		L154.1,171.7z"/>
	<path id="Rectangle_477_4_" class="st11" d="M106.9,164.7H166c2.4,0,4.3,1.9,4.3,4.3v11.2l0,0h-67.8l0,0V169
		C102.5,166.6,104.5,164.7,106.9,164.7L106.9,164.7z"/>
	<g>
		<path class="st8" d="M272.7,160.6l-1.7,5.3c-0.1,0.4,0,0.9,0.5,1.2c1.7,0.9,6,3.3,6.2,3.2c0.1-0.1,2-3.7,2.8-5.4
			c0.2-0.5,0.1-1-0.4-1.3l-5.9-3.5C273.6,159.8,272.9,160.1,272.7,160.6z"/>
		<path class="st11" d="M233,179.1c0,0-17.1,80.9-15.9,84.4c1.3,3.4,46.3,6.8,46.3,6.8s40.2-60.1,39.5-63S233,179.1,233,179.1z"/>
		<path class="st6" d="M307.1,183.4c0,0,6.6-19.2,0.1-24.9s-27.1,6.1-27.1,6.1l-3,5.2L307.1,183.4z"/>
		<path class="st6" d="M273.3,159.3c-1.3-3.3-7.2-17.4-16.1-20.8c-0.5-0.2-1.1-0.2-1.5,0.1c-11.4,5.6-12.7,16.6-12.7,20.6
			c0,0.9,0.6,1.7,1.5,1.9l24.9,5.7c1,0.2,1.9-0.3,2.3-1.2l1.8-5C273.4,160.2,273.4,159.7,273.3,159.3z"/>
		<path class="st12" d="M233.3,179.2c0,0-0.5,1.5-0.5,2.3c30.7,4.8,67.8,30.2,67.8,30.2s1.4-1.9,2.6-4.4
			C266.7,181.6,233.3,179.2,233.3,179.2z"/>
		<path class="st8" d="M261.7,185.7c0,0-12.7,43-24.9,59c-3.6,1.2-10.4,27.8,1.7,14c12.1-13.8,29.8-70.7,29.8-70.7L261.7,185.7z"/>
		<path class="st10" d="M240.1,160.7c-2.8,0.7-9.1,15.6-8.4,18.9c45.4,4.6,72.2,31.1,74.2,29.9c2.1-1.2,8.4-22.2,8.4-22.2
			S275.9,162,240.1,160.7z"/>
		<path class="st8" d="M276,168.5c-2.3-0.8-4.6-1.7-7-2.4c-5.2,4.5-7.9,15.7-8.7,19.7c2.2,0.8,4.4,1.6,6.5,2.4
			C266.1,184.1,273.4,172.4,276,168.5z"/>
		<path class="st13" d="M239.9,205.7l-1.1,1.9c0,0-0.1,0.1-0.1,0.1l-2,0.2c-0.2,0-0.2,0.2-0.1,0.3l1.4,0.9c0.1,0,0.1,0.1,0.1,0.2
			l-0.6,1.8c-0.1,0.2,0.1,0.3,0.3,0.2l1.9-1.4c0.1-0.1,0.2,0,0.2,0l0.5,0.8c0.1,0.1,0.3,0.1,0.3-0.1l0.1-1.5c0-0.1,0-0.1,0.1-0.1
			l1.5-0.8c0.1-0.1,0.1-0.3-0.1-0.3l-1.9-0.3c-0.1,0-0.1-0.1-0.1-0.2l-0.1-1.5C240.2,205.6,240,205.6,239.9,205.7z"/>
		<path class="st8" d="M297.1,164.4c-1.5,0.5-3,0.8-4.5,1c-1.5,0.2-3,0.4-4.4,0.5c-1.5,0.1-2.9,0.2-4.4,0.2c-1.5,0-3,0-4.6-0.1
			c1.2-1.1,2.7-1.8,4.2-2.3c1.5-0.5,3-0.7,4.6-0.9c1.5-0.1,3.1,0,4.6,0.2C294.1,163.3,295.6,163.7,297.1,164.4z"/>
		<path class="st8" d="M294.8,170.9c-1.6,0-3.1-0.2-4.6-0.4c-1.5-0.2-2.9-0.5-4.4-0.9c-1.4-0.3-2.8-0.7-4.3-1.2
			c-1.4-0.4-2.8-0.9-4.4-1.5c1.5-0.7,3.1-0.9,4.7-0.9c1.6,0,3.1,0.2,4.6,0.6c1.5,0.4,3,0.9,4.4,1.6
			C292.2,168.9,293.6,169.7,294.8,170.9z"/>
		<path class="st8" d="M261.5,149.6c1.5,0.6,2.9,1.4,4.1,2.3c1.2,1,2.3,2,3.3,3.2c1,1.2,1.9,2.5,2.6,3.9c0.7,1.4,1.2,3,1.3,4.6
			c-1.2-1.1-2.2-2.2-3.2-3.3c-1-1.1-2-2.2-2.9-3.3c-0.9-1.1-1.9-2.3-2.7-3.5C263,152.4,262.2,151.1,261.5,149.6z"/>
		<path class="st8" d="M258.4,155.8c1.6,0.1,3.2,0.5,4.6,1c1.5,0.5,2.8,1.2,4.2,2.1c1.3,0.8,2.5,1.8,3.6,3c1.1,1.2,2,2.5,2.6,4
			c-1.5-0.7-2.8-1.4-4.1-2.1c-1.3-0.7-2.5-1.5-3.8-2.3c-1.2-0.8-2.5-1.6-3.7-2.5C260.7,157.9,259.6,157,258.4,155.8z"/>
	</g>
	<g>
		<polygon class="st14" points="55.8,266.8 93.5,297.1 124.5,295.7 104.8,242.6 80.9,249.5 		"/>
		<path class="st15" d="M78.9,215.5c-2,1.3-8.5,25.5-8.5,25.5s-3.3,2.4,1.5,1.9c4.8-0.6,19-10.2,19.4-11.6
			C91.8,230,88.4,214.8,78.9,215.5z M86.2,229.2c0.1,1.9-12.6,9.3-12.6,9.3s5.9-10.4,7.2-15C81.7,222.5,86.1,227.3,86.2,229.2z"/>
		<path class="st15" d="M49.4,253.3c1.4,0.4,17.4-5.7,20.6-9.4c3.2-3.7-0.6-2.5-0.6-2.5s-23.5-9.4-25.8-8.5
			C37.6,240.6,48.1,252.9,49.4,253.3z M49,239.5c4.6,1.8,16.5,3.1,16.5,3.1s-13.4,6.3-14.9,5C49.1,246.4,47.7,239.7,49,239.5z"/>
		<path class="st15" d="M73.2,218.4c-3.1-3.8-19.1,0.6-20.5,6.3c-1.4,5.7,14.3,18.2,17.4,17.3C73.1,241.1,76.3,222.2,73.2,218.4z
			 M69.9,240.6c0.3,1.8-12.2-8.9-10.8-13.7c1.4-4.8,11-5.4,11.8-3.9C72.1,225.7,69.5,238.8,69.9,240.6z"/>
		<path class="st4" d="M105,243.8l-0.2-2l-9.1,3.3c-10.9,4.6-31,14-38,23.2l2.6,2.3c8.2-12.1,39.8-24.1,44.7-25.9L105,243.8z"/>
		<path class="st16" d="M98.4,232.3c3.8,0.7,7.8,10,7.8,10s-34,9.5-50.9,29.7c-0.5,1.7-8.6-8.2-8.4-10.9
			C47,258.5,75.8,238.5,98.4,232.3z"/>
		<path class="st15" d="M78.3,253.4c-1.7,1.1-2.3,1.5-2.3,1.5s14.4,20.4,18.1,23.3c7.5,9.5,14.8,18.2,15.9,18.1
			c2.4-0.2,4.7-0.4,4.7-0.4S79.1,255.8,78.3,253.4z"/>
		<path class="st15" d="M72.1,243.5c0.6,3.7,5.8,10.9,5.8,10.9l-2.5,1.5c0,0-4.7-5.2-5.4-11.4C70.9,243.4,72.1,243.2,72.1,243.5z"/>
		<circle class="st17" cx="70.2" cy="242.8" r="2.2"/>
	</g>
	<g>
		<g id="Group_562_4_" transform="translate(1378.759 3237.49)">
			<path id="Rectangle_469_4_" class="st3" d="M-1291.9-3009.4h150.3c2.8,0,5.1,2.3,5.1,5.1v21.4c0,2.8-2.3,5.1-5.1,5.1h-150.3
				c-2.8,0-5.1-2.3-5.1-5.1v-21.4C-1297-3007.1-1294.7-3009.4-1291.9-3009.4z"/>
			<rect id="Rectangle_470_4_" x="-1186.1" y="-3009.4" class="st4" width="27.4" height="31.6"/>
		</g>
		<g id="Group_563_4_" transform="translate(1393.855 3205.771)">
			<path id="Rectangle_471_4_" class="st15" d="M-1291.4-3009.4h149.3c3.1,0,5.6,2.5,5.6,5.6v20.4c0,3.1-2.5,5.6-5.6,5.6h-149.3
				c-3.1,0-5.6-2.5-5.6-5.6v-20.4C-1297-3006.8-1294.5-3009.4-1291.4-3009.4z"/>
			<rect id="Rectangle_472_4_" x="-1186.1" y="-3009.4" class="st17" width="27.4" height="31.6"/>
		</g>
		<path id="Rectangle_473_4_" class="st18" d="M272.3,295.9H109.7c-0.3,0-0.6-0.3-0.6-0.6v-34.8c0-0.3,0.3-0.6,0.6-0.6h162.6
			c0.3,0,0.6,0.3,0.6,0.6v34.8C272.9,295.6,272.6,295.9,272.3,295.9z"/>
		<rect id="Rectangle_474_4_" x="109" y="268.5" class="st19" width="164.2" height="18.3"/>
		<path id="Path_529_4_" class="st20" d="M121.9,284.8l5.1-2c0.6-0.3,1.3-0.3,1.9,0l5.2,2c1.2,0.5,2.4-0.8,2.4-2.6v-5.9
			c0-1.5-0.8-2.7-1.9-2.7h-13.2c-1,0-1.9,1.2-1.9,2.7v5.9C119.5,284,120.7,285.3,121.9,284.8z"/>
		<path id="Path_530_4_" class="st21" d="M152.7,292.1l5.1-2c0.6-0.2,1.3-0.2,1.9,0l5.1,2c1.2,0.5,2.3-0.8,2.3-2.6v-5.8
			c0-1.5-0.8-2.6-1.8-2.6h-13.1c-1,0-1.8,1.2-1.8,2.6v5.8C150.3,291.3,151.5,292.6,152.7,292.1z"/>
	</g>
</g>
</svg>
